<?xml version="1.0" encoding="UTF-8" standalone="no"?>
<!DOCTYPE svg PUBLIC "-//W3C//DTD SVG 1.1//EN"
 "http://www.w3.org/Graphics/SVG/1.1/DTD/svg11.dtd">
<!-- Generated by graphviz version 2.47.0 (20210316.0004)
 -->
<!-- Pages: 1 -->
<svg width="362pt" height="237pt"
 viewBox="0.00 0.00 361.62 237.24" xmlns="http://www.w3.org/2000/svg" xmlns:xlink="http://www.w3.org/1999/xlink">
<g id="graph0" class="graph" transform="scale(1 1) rotate(0) translate(4 233.24)">
<polygon fill="white" stroke="transparent" points="-4,4 -4,-233.24 357.62,-233.24 357.62,4 -4,4"/>
<!-- &#45;1 -->
<g id="node1" class="node">
<title>&#45;1</title>
<polygon fill="lightgray" stroke="black" points="353.62,-229.24 329.62,-229.24 329.62,-211.24 353.62,-211.24 353.62,-229.24"/>
<text text-anchor="middle" x="341.62" y="-218.04" font-family="Times New Roman,serif" font-size="9.00">&#45;1</text>
</g>
<!-- 19 -->
<g id="node11" class="node">
<title>19</title>
<ellipse fill="white" stroke="black" cx="327.62" cy="-84.08" rx="18.27" ry="18.27"/>
<text text-anchor="middle" x="327.62" y="-81.88" font-family="Times New Roman,serif" font-size="9.00">19</text>
</g>
<!-- &#45;1&#45;&gt;19 -->
<g id="edge12" class="edge">
<title>&#45;1&#45;&gt;19</title>
<path fill="none" stroke="green" stroke-width="0.26" stroke-dasharray="1,5" d="M343.14,-211.15C345.64,-196.53 349.94,-164.79 345.62,-138.47 344.12,-129.31 341.25,-119.61 338.25,-111.02"/>
<polygon fill="green" stroke="green" stroke-width="0.26" points="341.49,-109.71 334.72,-101.56 334.93,-112.15 341.49,-109.71"/>
</g>
<!-- 22 -->
<g id="node14" class="node">
<title>22</title>
<ellipse fill="white" stroke="black" cx="318.62" cy="-156.85" rx="18.27" ry="18.27"/>
<text text-anchor="middle" x="318.62" y="-154.65" font-family="Times New Roman,serif" font-size="9.00">22</text>
</g>
<!-- &#45;1&#45;&gt;22 -->
<g id="edge27" class="edge">
<title>&#45;1&#45;&gt;22</title>
<path fill="none" stroke="green" stroke-width="0.24" d="M338.61,-211.21C336,-204.24 332.07,-193.75 328.38,-183.9"/>
<polygon fill="green" stroke="green" stroke-width="0.24" points="331.62,-182.57 324.83,-174.43 325.06,-185.02 331.62,-182.57"/>
</g>
<!-- &#45;2 -->
<g id="node2" class="node">
<title>&#45;2</title>
<polygon fill="lightgray" stroke="black" points="169.62,-165.85 145.62,-165.85 145.62,-147.85 169.62,-147.85 169.62,-165.85"/>
<text text-anchor="middle" x="157.62" y="-154.65" font-family="Times New Roman,serif" font-size="9.00">&#45;2</text>
</g>
<!-- 0 -->
<g id="node7" class="node">
<title>0</title>
<ellipse fill="lightblue" stroke="black" cx="156.62" cy="-14.85" rx="14.7" ry="14.7"/>
<text text-anchor="middle" x="156.62" y="-12.65" font-family="Times New Roman,serif" font-size="9.00">0</text>
</g>
<!-- &#45;2&#45;&gt;0 -->
<g id="edge11" class="edge">
<title>&#45;2&#45;&gt;0</title>
<path fill="none" stroke="red" stroke-width="0.55" d="M156.8,-147.54C155.82,-137.05 154.21,-118.44 153.62,-102.47 153.01,-86.14 153.13,-82.03 153.62,-65.7 153.87,-57.26 154.37,-48.03 154.88,-39.84"/>
<polygon fill="red" stroke="red" stroke-width="0.55" points="158.38,-40.02 155.55,-29.81 151.39,-39.55 158.38,-40.02"/>
</g>
<!-- 17 -->
<g id="node9" class="node">
<title>17</title>
<ellipse fill="white" stroke="black" cx="180.62" cy="-84.08" rx="18.27" ry="18.27"/>
<text text-anchor="middle" x="180.62" y="-81.88" font-family="Times New Roman,serif" font-size="9.00">17</text>
</g>
<!-- &#45;2&#45;&gt;17 -->
<g id="edge10" class="edge">
<title>&#45;2&#45;&gt;17</title>
<path fill="none" stroke="red" stroke-width="0.13" d="M160.26,-147.73C163.12,-138.91 167.86,-124.35 172.04,-111.48"/>
<polygon fill="red" stroke="red" stroke-width="0.13" points="175.46,-112.26 175.23,-101.67 168.81,-110.1 175.46,-112.26"/>
</g>
<!-- &#45;2&#45;&gt;19 -->
<g id="edge17" class="edge">
<title>&#45;2&#45;&gt;19</title>
<path fill="none" stroke="green" stroke-width="0.48" d="M169.89,-151.4C202.09,-139.68 287.39,-108.49 299.62,-102.47 301,-101.79 302.4,-101.06 303.79,-100.3"/>
<polygon fill="green" stroke="green" stroke-width="0.48" points="305.95,-103.09 312.81,-95.02 302.42,-97.05 305.95,-103.09"/>
</g>
<!-- 21 -->
<g id="node13" class="node">
<title>21</title>
<ellipse fill="white" stroke="black" cx="88.62" cy="-84.08" rx="18.27" ry="18.27"/>
<text text-anchor="middle" x="88.62" y="-81.88" font-family="Times New Roman,serif" font-size="9.00">21</text>
</g>
<!-- &#45;2&#45;&gt;21 -->
<g id="edge3" class="edge">
<title>&#45;2&#45;&gt;21</title>
<path fill="none" stroke="red" stroke-width="0.24" d="M149.7,-147.73C139.67,-137.44 122.02,-119.34 108.26,-105.23"/>
<polygon fill="red" stroke="red" stroke-width="0.24" points="110.58,-102.6 101.09,-97.88 105.57,-107.48 110.58,-102.6"/>
</g>
<!-- &#45;3 -->
<g id="node3" class="node">
<title>&#45;3</title>
<polygon fill="lightgray" stroke="black" points="238.62,-165.85 214.62,-165.85 214.62,-147.85 238.62,-147.85 238.62,-165.85"/>
<text text-anchor="middle" x="226.62" y="-154.65" font-family="Times New Roman,serif" font-size="9.00">&#45;3</text>
</g>
<!-- 1 -->
<g id="node8" class="node">
<title>1</title>
<ellipse fill="lightblue" stroke="black" cx="226.62" cy="-14.85" rx="14.7" ry="14.7"/>
<text text-anchor="middle" x="226.62" y="-12.65" font-family="Times New Roman,serif" font-size="9.00">1</text>
</g>
<!-- &#45;3&#45;&gt;1 -->
<g id="edge16" class="edge">
<title>&#45;3&#45;&gt;1</title>
<path fill="none" stroke="red" stroke-width="0.14" d="M226.62,-147.51C226.62,-126.77 226.62,-72.19 226.62,-40.19"/>
<polygon fill="red" stroke="red" stroke-width="0.14" points="230.12,-39.91 226.62,-29.91 223.12,-39.91 230.12,-39.91"/>
</g>
<!-- &#45;3&#45;&gt;17 -->
<g id="edge15" class="edge">
<title>&#45;3&#45;&gt;17</title>
<path fill="none" stroke="red" stroke-width="0.17" d="M221.34,-147.73C215.15,-138.2 204.6,-121.98 195.79,-108.43"/>
<polygon fill="red" stroke="red" stroke-width="0.17" points="198.7,-106.48 190.32,-100.01 192.83,-110.3 198.7,-106.48"/>
</g>
<!-- 18 -->
<g id="node10" class="node">
<title>18</title>
<ellipse fill="white" stroke="black" cx="272.62" cy="-84.08" rx="18.27" ry="18.27"/>
<text text-anchor="middle" x="272.62" y="-81.88" font-family="Times New Roman,serif" font-size="9.00">18</text>
</g>
<!-- &#45;3&#45;&gt;18 -->
<g id="edge13" class="edge">
<title>&#45;3&#45;&gt;18</title>
<path fill="none" stroke="red" stroke-width="0.16" d="M231.89,-147.73C238.09,-138.2 248.64,-121.98 257.44,-108.43"/>
<polygon fill="red" stroke="red" stroke-width="0.16" points="260.4,-110.3 262.92,-100.01 254.53,-106.48 260.4,-110.3"/>
</g>
<!-- &#45;3&#45;&gt;19 -->
<g id="edge4" class="edge">
<title>&#45;3&#45;&gt;19</title>
<path fill="none" stroke="red" stroke-width="0.6" d="M237.3,-147.61C241.16,-144.68 245.55,-141.39 249.62,-138.47 267.66,-125.49 288.44,-111.3 304.01,-100.82"/>
<polygon fill="red" stroke="red" stroke-width="0.6" points="306.16,-103.59 312.52,-95.11 302.26,-97.78 306.16,-103.59"/>
</g>
<!-- &#45;3&#45;&gt;21 -->
<g id="edge23" class="edge">
<title>&#45;3&#45;&gt;21</title>
<path fill="none" stroke="red" stroke-width="0.1" d="M214.37,-149.57C191.87,-138.03 143.54,-113.25 113.78,-97.99"/>
<polygon fill="red" stroke="red" stroke-width="0.1" points="115.32,-94.84 104.83,-93.4 112.13,-101.07 115.32,-94.84"/>
</g>
<!-- &#45;4 -->
<g id="node4" class="node">
<title>&#45;4</title>
<polygon fill="lightgray" stroke="black" points="52.62,-165.85 28.62,-165.85 28.62,-147.85 52.62,-147.85 52.62,-165.85"/>
<text text-anchor="middle" x="40.62" y="-154.65" font-family="Times New Roman,serif" font-size="9.00">&#45;4</text>
</g>
<!-- 20 -->
<g id="node12" class="node">
<title>20</title>
<ellipse fill="white" stroke="black" cx="33.62" cy="-84.08" rx="18.27" ry="18.27"/>
<text text-anchor="middle" x="33.62" y="-81.88" font-family="Times New Roman,serif" font-size="9.00">20</text>
</g>
<!-- &#45;4&#45;&gt;20 -->
<g id="edge26" class="edge">
<title>&#45;4&#45;&gt;20</title>
<path fill="none" stroke="red" stroke-width="0.18" d="M39.81,-147.73C38.97,-139.17 37.58,-125.19 36.34,-112.61"/>
<polygon fill="red" stroke="red" stroke-width="0.18" points="39.81,-112.13 35.34,-102.52 32.84,-112.82 39.81,-112.13"/>
</g>
<!-- &#45;4&#45;&gt;21 -->
<g id="edge5" class="edge">
<title>&#45;4&#45;&gt;21</title>
<path fill="none" stroke="green" stroke-width="0.18" d="M46.12,-147.73C52.63,-138.14 63.73,-121.77 72.96,-108.17"/>
<polygon fill="green" stroke="green" stroke-width="0.18" points="75.96,-109.97 78.68,-99.73 70.17,-106.04 75.96,-109.97"/>
</g>
<!-- &#45;5 -->
<g id="node5" class="node">
<title>&#45;5</title>
<polygon fill="lightgray" stroke="black" points="282.62,-165.85 258.62,-165.85 258.62,-147.85 282.62,-147.85 282.62,-165.85"/>
<text text-anchor="middle" x="270.62" y="-154.65" font-family="Times New Roman,serif" font-size="9.00">&#45;5</text>
</g>
<!-- &#45;5&#45;&gt;17 -->
<g id="edge1" class="edge">
<title>&#45;5&#45;&gt;17</title>
<path fill="none" stroke="green" stroke-width="0.32" d="M260.29,-147.73C246.28,-136.72 220.88,-116.74 202.52,-102.31"/>
<polygon fill="green" stroke="green" stroke-width="0.32" points="204.67,-99.54 194.65,-96.11 200.34,-105.05 204.67,-99.54"/>
</g>
<!-- &#45;5&#45;&gt;18 -->
<g id="edge18" class="edge">
<title>&#45;5&#45;&gt;18</title>
<path fill="none" stroke="red" stroke-width="0.31" d="M270.85,-147.73C271.09,-139.17 271.48,-125.19 271.84,-112.61"/>
<polygon fill="red" stroke="red" stroke-width="0.31" points="275.34,-112.62 272.12,-102.52 268.34,-112.42 275.34,-112.62"/>
</g>
<!-- &#45;5&#45;&gt;19 -->
<g id="edge6" class="edge">
<title>&#45;5&#45;&gt;19</title>
<path fill="none" stroke="green" stroke-width="0.72" d="M277.16,-147.73C285.1,-137.87 298.82,-120.84 309.95,-107.02"/>
<polygon fill="green" stroke="green" stroke-width="0.72" points="312.92,-108.91 316.47,-98.93 307.47,-104.52 312.92,-108.91"/>
</g>
<!-- &#45;6 -->
<g id="node6" class="node">
<title>&#45;6</title>
<polygon fill="lightgray" stroke="black" points="100.62,-165.85 76.62,-165.85 76.62,-147.85 100.62,-147.85 100.62,-165.85"/>
<text text-anchor="middle" x="88.62" y="-154.65" font-family="Times New Roman,serif" font-size="9.00">&#45;6</text>
</g>
<!-- &#45;6&#45;&gt;0 -->
<g id="edge24" class="edge">
<title>&#45;6&#45;&gt;0</title>
<path fill="none" stroke="green" stroke-width="0.3" d="M76.6,-148.14C53.95,-133.56 7.11,-103.37 6.62,-102.47 -1.17,-88.1 -2.94,-78.95 6.62,-65.7 35.16,-26.14 96.39,-17.48 131.15,-15.89"/>
<polygon fill="green" stroke="green" stroke-width="0.3" points="131.53,-19.38 141.43,-15.59 131.33,-12.38 131.53,-19.38"/>
</g>
<!-- &#45;6&#45;&gt;18 -->
<g id="edge2" class="edge">
<title>&#45;6&#45;&gt;18</title>
<path fill="none" stroke="green" stroke-width="0.12" d="M100.69,-151.21C130.02,-139.93 205.61,-110.86 246.09,-95.29"/>
<polygon fill="green" stroke="green" stroke-width="0.12" points="247.5,-98.49 255.58,-91.64 244.99,-91.96 247.5,-98.49"/>
</g>
<!-- &#45;6&#45;&gt;21 -->
<g id="edge19" class="edge">
<title>&#45;6&#45;&gt;21</title>
<path fill="none" stroke="red" stroke-width="0.24" d="M88.62,-147.73C88.62,-139.17 88.62,-125.19 88.62,-112.61"/>
<polygon fill="red" stroke="red" stroke-width="0.24" points="92.12,-112.52 88.62,-102.52 85.12,-112.52 92.12,-112.52"/>
</g>
<!-- 17&#45;&gt;0 -->
<g id="edge8" class="edge">
<title>17&#45;&gt;0</title>
<path fill="none" stroke="red" stroke-width="0.33" d="M174.68,-66.46C171.7,-58.1 168.03,-47.83 164.79,-38.74"/>
<polygon fill="red" stroke="red" stroke-width="0.33" points="168.02,-37.37 161.36,-29.13 161.42,-39.72 168.02,-37.37"/>
</g>
<!-- 17&#45;&gt;1 -->
<g id="edge20" class="edge">
<title>17&#45;&gt;1</title>
<path fill="none" stroke="red" stroke-width="0.23" d="M190.6,-68.49C197.06,-59.06 205.56,-46.63 212.68,-36.22"/>
<polygon fill="red" stroke="red" stroke-width="0.23" points="215.74,-37.95 218.49,-27.72 209.96,-34 215.74,-37.95"/>
</g>
<!-- 18&#45;&gt;0 -->
<g id="edge22" class="edge">
<title>18&#45;&gt;0</title>
<path fill="none" stroke="green" stroke-width="0.35" d="M256.97,-74.02C236.63,-62.22 200.99,-41.57 178.12,-28.31"/>
<polygon fill="green" stroke="green" stroke-width="0.35" points="179.58,-25.11 169.18,-23.13 176.07,-31.17 179.58,-25.11"/>
</g>
<!-- 18&#45;&gt;1 -->
<g id="edge25" class="edge">
<title>18&#45;&gt;1</title>
<path fill="none" stroke="red" stroke-width="0.34" d="M262.64,-68.49C256.18,-59.06 247.68,-46.63 240.56,-36.22"/>
<polygon fill="red" stroke="red" stroke-width="0.34" points="243.28,-34 234.74,-27.72 237.5,-37.95 243.28,-34"/>
</g>
<!-- 19&#45;&gt;0 -->
<g id="edge7" class="edge">
<title>19&#45;&gt;0</title>
<path fill="none" stroke="green" stroke-width="0.64" d="M312.85,-73.07C308.67,-70.48 304.06,-67.82 299.62,-65.7 278.12,-55.43 215.38,-34.71 180.57,-23.49"/>
<polygon fill="green" stroke="green" stroke-width="0.64" points="181.34,-20.06 170.75,-20.34 179.2,-26.73 181.34,-20.06"/>
</g>
<!-- 19&#45;&gt;1 -->
<g id="edge9" class="edge">
<title>19&#45;&gt;1</title>
<path fill="none" stroke="green" stroke-width="0.16" d="M312.71,-73.16C295.38,-61.62 266.65,-42.5 247.19,-29.55"/>
<polygon fill="green" stroke="green" stroke-width="0.16" points="248.99,-26.54 238.73,-23.91 245.11,-32.37 248.99,-26.54"/>
</g>
<!-- 20&#45;&gt;1 -->
<g id="edge14" class="edge">
<title>20&#45;&gt;1</title>
<path fill="none" stroke="green" stroke-width="0.19" d="M48.33,-72.95C52.5,-70.35 57.13,-67.73 61.62,-65.7 62.45,-65.32 157.58,-36.65 203,-22.96"/>
<polygon fill="green" stroke="green" stroke-width="0.19" points="204.07,-26.3 212.64,-20.06 202.05,-19.59 204.07,-26.3"/>
</g>
<!-- 21&#45;&gt;0 -->
<g id="edge21" class="edge">
<title>21&#45;&gt;0</title>
<path fill="none" stroke="green" stroke-width="0.22" d="M101.41,-70.44C112.14,-59.83 127.56,-44.58 139.38,-32.89"/>
<polygon fill="green" stroke="green" stroke-width="0.22" points="141.89,-35.33 146.54,-25.81 136.97,-30.35 141.89,-35.33"/>
</g>
<!-- 22&#45;&gt;18 -->
<g id="edge29" class="edge">
<title>22&#45;&gt;18</title>
<path fill="none" stroke="green" stroke-width="0.51" d="M308.86,-140.84C302.76,-131.46 294.78,-119.18 287.86,-108.53"/>
<polygon fill="green" stroke="green" stroke-width="0.51" points="290.74,-106.55 282.36,-100.07 284.87,-110.36 290.74,-106.55"/>
</g>
<!-- 22&#45;&gt;19 -->
<g id="edge28" class="edge">
<title>22&#45;&gt;19</title>
<path fill="none" stroke="green" stroke-width="0.18" d="M320.84,-138.36C321.83,-130.56 323.03,-121.19 324.13,-112.49"/>
<polygon fill="green" stroke="green" stroke-width="0.18" points="327.63,-112.74 325.42,-102.38 320.68,-111.85 327.63,-112.74"/>
</g>
</g>
</svg>
