<?xml version="1.0" encoding="utf-8" standalone="no"?>
<!DOCTYPE svg PUBLIC "-//W3C//DTD SVG 1.1//EN"
  "http://www.w3.org/Graphics/SVG/1.1/DTD/svg11.dtd">
<svg height="345.6pt" version="1.1" viewBox="0 0 460.8 345.6" width="460.8pt" xmlns="http://www.w3.org/2000/svg" xmlns:xlink="http://www.w3.org/1999/xlink">
 <metadata>
  <rdf:RDF xmlns:cc="http://creativecommons.org/ns#" xmlns:dc="http://purl.org/dc/elements/1.1/" xmlns:rdf="http://www.w3.org/1999/02/22-rdf-syntax-ns#">
   <cc:Work>
    <dc:type rdf:resource="http://purl.org/dc/dcmitype/StillImage"/>
    <dc:date>2021-04-13T19:38:28.165386</dc:date>
    <dc:format>image/svg+xml</dc:format>
    <dc:creator>
     <cc:Agent>
      <dc:title>Matplotlib v3.4.1, https://matplotlib.org/</dc:title>
     </cc:Agent>
    </dc:creator>
   </cc:Work>
  </rdf:RDF>
 </metadata>
 <defs>
  <style type="text/css">*{stroke-linecap:butt;stroke-linejoin:round;}</style>
 </defs>
 <g id="figure_1">
  <g id="patch_1">
   <path d="M 0 345.6 
L 460.8 345.6 
L 460.8 0 
L 0 0 
z
" style="fill:#ffffff;"/>
  </g>
  <g id="axes_1">
   <g id="patch_2">
    <path d="M 57.6 307.584 
L 414.72 307.584 
L 414.72 41.472 
L 57.6 41.472 
z
" style="fill:#ffffff;"/>
   </g>
   <g id="matplotlib.axis_1">
    <g id="xtick_1">
     <g id="line2d_1">
      <path clip-path="url(#pdc769ac1ab)" d="M 73.832727 307.584 
L 73.832727 41.472 
" style="fill:none;stroke:#b0b0b0;stroke-linecap:square;stroke-width:0.8;"/>
     </g>
     <g id="line2d_2">
      <defs>
       <path d="M 0 0 
L 0 3.5 
" id="m343a66cca5" style="stroke:#000000;stroke-width:0.8;"/>
      </defs>
      <g>
       <use style="stroke:#000000;stroke-width:0.8;" x="73.832727" xlink:href="#m343a66cca5" y="307.584"/>
      </g>
     </g>
     <g id="text_1">
      <!-- 0 -->
      <g transform="translate(70.651477 322.182437)scale(0.1 -0.1)">
       <defs>
        <path d="M 2034 4250 
Q 1547 4250 1301 3770 
Q 1056 3291 1056 2328 
Q 1056 1369 1301 889 
Q 1547 409 2034 409 
Q 2525 409 2770 889 
Q 3016 1369 3016 2328 
Q 3016 3291 2770 3770 
Q 2525 4250 2034 4250 
z
M 2034 4750 
Q 2819 4750 3233 4129 
Q 3647 3509 3647 2328 
Q 3647 1150 3233 529 
Q 2819 -91 2034 -91 
Q 1250 -91 836 529 
Q 422 1150 422 2328 
Q 422 3509 836 4129 
Q 1250 4750 2034 4750 
z
" id="DejaVuSans-30" transform="scale(0.015625)"/>
       </defs>
       <use xlink:href="#DejaVuSans-30"/>
      </g>
     </g>
    </g>
    <g id="xtick_2">
     <g id="line2d_3">
      <path clip-path="url(#pdc769ac1ab)" d="M 138.893758 307.584 
L 138.893758 41.472 
" style="fill:none;stroke:#b0b0b0;stroke-linecap:square;stroke-width:0.8;"/>
     </g>
     <g id="line2d_4">
      <g>
       <use style="stroke:#000000;stroke-width:0.8;" x="138.893758" xlink:href="#m343a66cca5" y="307.584"/>
      </g>
     </g>
     <g id="text_2">
      <!-- 100 -->
      <g transform="translate(129.350008 322.182437)scale(0.1 -0.1)">
       <defs>
        <path d="M 794 531 
L 1825 531 
L 1825 4091 
L 703 3866 
L 703 4441 
L 1819 4666 
L 2450 4666 
L 2450 531 
L 3481 531 
L 3481 0 
L 794 0 
L 794 531 
z
" id="DejaVuSans-31" transform="scale(0.015625)"/>
       </defs>
       <use xlink:href="#DejaVuSans-31"/>
       <use x="63.623047" xlink:href="#DejaVuSans-30"/>
       <use x="127.246094" xlink:href="#DejaVuSans-30"/>
      </g>
     </g>
    </g>
    <g id="xtick_3">
     <g id="line2d_5">
      <path clip-path="url(#pdc769ac1ab)" d="M 203.95479 307.584 
L 203.95479 41.472 
" style="fill:none;stroke:#b0b0b0;stroke-linecap:square;stroke-width:0.8;"/>
     </g>
     <g id="line2d_6">
      <g>
       <use style="stroke:#000000;stroke-width:0.8;" x="203.95479" xlink:href="#m343a66cca5" y="307.584"/>
      </g>
     </g>
     <g id="text_3">
      <!-- 200 -->
      <g transform="translate(194.41104 322.182437)scale(0.1 -0.1)">
       <defs>
        <path d="M 1228 531 
L 3431 531 
L 3431 0 
L 469 0 
L 469 531 
Q 828 903 1448 1529 
Q 2069 2156 2228 2338 
Q 2531 2678 2651 2914 
Q 2772 3150 2772 3378 
Q 2772 3750 2511 3984 
Q 2250 4219 1831 4219 
Q 1534 4219 1204 4116 
Q 875 4013 500 3803 
L 500 4441 
Q 881 4594 1212 4672 
Q 1544 4750 1819 4750 
Q 2544 4750 2975 4387 
Q 3406 4025 3406 3419 
Q 3406 3131 3298 2873 
Q 3191 2616 2906 2266 
Q 2828 2175 2409 1742 
Q 1991 1309 1228 531 
z
" id="DejaVuSans-32" transform="scale(0.015625)"/>
       </defs>
       <use xlink:href="#DejaVuSans-32"/>
       <use x="63.623047" xlink:href="#DejaVuSans-30"/>
       <use x="127.246094" xlink:href="#DejaVuSans-30"/>
      </g>
     </g>
    </g>
    <g id="xtick_4">
     <g id="line2d_7">
      <path clip-path="url(#pdc769ac1ab)" d="M 269.015821 307.584 
L 269.015821 41.472 
" style="fill:none;stroke:#b0b0b0;stroke-linecap:square;stroke-width:0.8;"/>
     </g>
     <g id="line2d_8">
      <g>
       <use style="stroke:#000000;stroke-width:0.8;" x="269.015821" xlink:href="#m343a66cca5" y="307.584"/>
      </g>
     </g>
     <g id="text_4">
      <!-- 300 -->
      <g transform="translate(259.472071 322.182437)scale(0.1 -0.1)">
       <defs>
        <path d="M 2597 2516 
Q 3050 2419 3304 2112 
Q 3559 1806 3559 1356 
Q 3559 666 3084 287 
Q 2609 -91 1734 -91 
Q 1441 -91 1130 -33 
Q 819 25 488 141 
L 488 750 
Q 750 597 1062 519 
Q 1375 441 1716 441 
Q 2309 441 2620 675 
Q 2931 909 2931 1356 
Q 2931 1769 2642 2001 
Q 2353 2234 1838 2234 
L 1294 2234 
L 1294 2753 
L 1863 2753 
Q 2328 2753 2575 2939 
Q 2822 3125 2822 3475 
Q 2822 3834 2567 4026 
Q 2313 4219 1838 4219 
Q 1578 4219 1281 4162 
Q 984 4106 628 3988 
L 628 4550 
Q 988 4650 1302 4700 
Q 1616 4750 1894 4750 
Q 2613 4750 3031 4423 
Q 3450 4097 3450 3541 
Q 3450 3153 3228 2886 
Q 3006 2619 2597 2516 
z
" id="DejaVuSans-33" transform="scale(0.015625)"/>
       </defs>
       <use xlink:href="#DejaVuSans-33"/>
       <use x="63.623047" xlink:href="#DejaVuSans-30"/>
       <use x="127.246094" xlink:href="#DejaVuSans-30"/>
      </g>
     </g>
    </g>
    <g id="xtick_5">
     <g id="line2d_9">
      <path clip-path="url(#pdc769ac1ab)" d="M 334.076852 307.584 
L 334.076852 41.472 
" style="fill:none;stroke:#b0b0b0;stroke-linecap:square;stroke-width:0.8;"/>
     </g>
     <g id="line2d_10">
      <g>
       <use style="stroke:#000000;stroke-width:0.8;" x="334.076852" xlink:href="#m343a66cca5" y="307.584"/>
      </g>
     </g>
     <g id="text_5">
      <!-- 400 -->
      <g transform="translate(324.533102 322.182437)scale(0.1 -0.1)">
       <defs>
        <path d="M 2419 4116 
L 825 1625 
L 2419 1625 
L 2419 4116 
z
M 2253 4666 
L 3047 4666 
L 3047 1625 
L 3713 1625 
L 3713 1100 
L 3047 1100 
L 3047 0 
L 2419 0 
L 2419 1100 
L 313 1100 
L 313 1709 
L 2253 4666 
z
" id="DejaVuSans-34" transform="scale(0.015625)"/>
       </defs>
       <use xlink:href="#DejaVuSans-34"/>
       <use x="63.623047" xlink:href="#DejaVuSans-30"/>
       <use x="127.246094" xlink:href="#DejaVuSans-30"/>
      </g>
     </g>
    </g>
    <g id="xtick_6">
     <g id="line2d_11">
      <path clip-path="url(#pdc769ac1ab)" d="M 399.137883 307.584 
L 399.137883 41.472 
" style="fill:none;stroke:#b0b0b0;stroke-linecap:square;stroke-width:0.8;"/>
     </g>
     <g id="line2d_12">
      <g>
       <use style="stroke:#000000;stroke-width:0.8;" x="399.137883" xlink:href="#m343a66cca5" y="307.584"/>
      </g>
     </g>
     <g id="text_6">
      <!-- 500 -->
      <g transform="translate(389.594133 322.182437)scale(0.1 -0.1)">
       <defs>
        <path d="M 691 4666 
L 3169 4666 
L 3169 4134 
L 1269 4134 
L 1269 2991 
Q 1406 3038 1543 3061 
Q 1681 3084 1819 3084 
Q 2600 3084 3056 2656 
Q 3513 2228 3513 1497 
Q 3513 744 3044 326 
Q 2575 -91 1722 -91 
Q 1428 -91 1123 -41 
Q 819 9 494 109 
L 494 744 
Q 775 591 1075 516 
Q 1375 441 1709 441 
Q 2250 441 2565 725 
Q 2881 1009 2881 1497 
Q 2881 1984 2565 2268 
Q 2250 2553 1709 2553 
Q 1456 2553 1204 2497 
Q 953 2441 691 2322 
L 691 4666 
z
" id="DejaVuSans-35" transform="scale(0.015625)"/>
       </defs>
       <use xlink:href="#DejaVuSans-35"/>
       <use x="63.623047" xlink:href="#DejaVuSans-30"/>
       <use x="127.246094" xlink:href="#DejaVuSans-30"/>
      </g>
     </g>
    </g>
    <g id="text_7">
     <!-- Generations -->
     <g transform="translate(205.662344 335.860562)scale(0.1 -0.1)">
      <defs>
       <path d="M 3809 666 
L 3809 1919 
L 2778 1919 
L 2778 2438 
L 4434 2438 
L 4434 434 
Q 4069 175 3628 42 
Q 3188 -91 2688 -91 
Q 1594 -91 976 548 
Q 359 1188 359 2328 
Q 359 3472 976 4111 
Q 1594 4750 2688 4750 
Q 3144 4750 3555 4637 
Q 3966 4525 4313 4306 
L 4313 3634 
Q 3963 3931 3569 4081 
Q 3175 4231 2741 4231 
Q 1884 4231 1454 3753 
Q 1025 3275 1025 2328 
Q 1025 1384 1454 906 
Q 1884 428 2741 428 
Q 3075 428 3337 486 
Q 3600 544 3809 666 
z
" id="DejaVuSans-47" transform="scale(0.015625)"/>
       <path d="M 3597 1894 
L 3597 1613 
L 953 1613 
Q 991 1019 1311 708 
Q 1631 397 2203 397 
Q 2534 397 2845 478 
Q 3156 559 3463 722 
L 3463 178 
Q 3153 47 2828 -22 
Q 2503 -91 2169 -91 
Q 1331 -91 842 396 
Q 353 884 353 1716 
Q 353 2575 817 3079 
Q 1281 3584 2069 3584 
Q 2775 3584 3186 3129 
Q 3597 2675 3597 1894 
z
M 3022 2063 
Q 3016 2534 2758 2815 
Q 2500 3097 2075 3097 
Q 1594 3097 1305 2825 
Q 1016 2553 972 2059 
L 3022 2063 
z
" id="DejaVuSans-65" transform="scale(0.015625)"/>
       <path d="M 3513 2113 
L 3513 0 
L 2938 0 
L 2938 2094 
Q 2938 2591 2744 2837 
Q 2550 3084 2163 3084 
Q 1697 3084 1428 2787 
Q 1159 2491 1159 1978 
L 1159 0 
L 581 0 
L 581 3500 
L 1159 3500 
L 1159 2956 
Q 1366 3272 1645 3428 
Q 1925 3584 2291 3584 
Q 2894 3584 3203 3211 
Q 3513 2838 3513 2113 
z
" id="DejaVuSans-6e" transform="scale(0.015625)"/>
       <path d="M 2631 2963 
Q 2534 3019 2420 3045 
Q 2306 3072 2169 3072 
Q 1681 3072 1420 2755 
Q 1159 2438 1159 1844 
L 1159 0 
L 581 0 
L 581 3500 
L 1159 3500 
L 1159 2956 
Q 1341 3275 1631 3429 
Q 1922 3584 2338 3584 
Q 2397 3584 2469 3576 
Q 2541 3569 2628 3553 
L 2631 2963 
z
" id="DejaVuSans-72" transform="scale(0.015625)"/>
       <path d="M 2194 1759 
Q 1497 1759 1228 1600 
Q 959 1441 959 1056 
Q 959 750 1161 570 
Q 1363 391 1709 391 
Q 2188 391 2477 730 
Q 2766 1069 2766 1631 
L 2766 1759 
L 2194 1759 
z
M 3341 1997 
L 3341 0 
L 2766 0 
L 2766 531 
Q 2569 213 2275 61 
Q 1981 -91 1556 -91 
Q 1019 -91 701 211 
Q 384 513 384 1019 
Q 384 1609 779 1909 
Q 1175 2209 1959 2209 
L 2766 2209 
L 2766 2266 
Q 2766 2663 2505 2880 
Q 2244 3097 1772 3097 
Q 1472 3097 1187 3025 
Q 903 2953 641 2809 
L 641 3341 
Q 956 3463 1253 3523 
Q 1550 3584 1831 3584 
Q 2591 3584 2966 3190 
Q 3341 2797 3341 1997 
z
" id="DejaVuSans-61" transform="scale(0.015625)"/>
       <path d="M 1172 4494 
L 1172 3500 
L 2356 3500 
L 2356 3053 
L 1172 3053 
L 1172 1153 
Q 1172 725 1289 603 
Q 1406 481 1766 481 
L 2356 481 
L 2356 0 
L 1766 0 
Q 1100 0 847 248 
Q 594 497 594 1153 
L 594 3053 
L 172 3053 
L 172 3500 
L 594 3500 
L 594 4494 
L 1172 4494 
z
" id="DejaVuSans-74" transform="scale(0.015625)"/>
       <path d="M 603 3500 
L 1178 3500 
L 1178 0 
L 603 0 
L 603 3500 
z
M 603 4863 
L 1178 4863 
L 1178 4134 
L 603 4134 
L 603 4863 
z
" id="DejaVuSans-69" transform="scale(0.015625)"/>
       <path d="M 1959 3097 
Q 1497 3097 1228 2736 
Q 959 2375 959 1747 
Q 959 1119 1226 758 
Q 1494 397 1959 397 
Q 2419 397 2687 759 
Q 2956 1122 2956 1747 
Q 2956 2369 2687 2733 
Q 2419 3097 1959 3097 
z
M 1959 3584 
Q 2709 3584 3137 3096 
Q 3566 2609 3566 1747 
Q 3566 888 3137 398 
Q 2709 -91 1959 -91 
Q 1206 -91 779 398 
Q 353 888 353 1747 
Q 353 2609 779 3096 
Q 1206 3584 1959 3584 
z
" id="DejaVuSans-6f" transform="scale(0.015625)"/>
       <path d="M 2834 3397 
L 2834 2853 
Q 2591 2978 2328 3040 
Q 2066 3103 1784 3103 
Q 1356 3103 1142 2972 
Q 928 2841 928 2578 
Q 928 2378 1081 2264 
Q 1234 2150 1697 2047 
L 1894 2003 
Q 2506 1872 2764 1633 
Q 3022 1394 3022 966 
Q 3022 478 2636 193 
Q 2250 -91 1575 -91 
Q 1294 -91 989 -36 
Q 684 19 347 128 
L 347 722 
Q 666 556 975 473 
Q 1284 391 1588 391 
Q 1994 391 2212 530 
Q 2431 669 2431 922 
Q 2431 1156 2273 1281 
Q 2116 1406 1581 1522 
L 1381 1569 
Q 847 1681 609 1914 
Q 372 2147 372 2553 
Q 372 3047 722 3315 
Q 1072 3584 1716 3584 
Q 2034 3584 2315 3537 
Q 2597 3491 2834 3397 
z
" id="DejaVuSans-73" transform="scale(0.015625)"/>
      </defs>
      <use xlink:href="#DejaVuSans-47"/>
      <use x="77.490234" xlink:href="#DejaVuSans-65"/>
      <use x="139.013672" xlink:href="#DejaVuSans-6e"/>
      <use x="202.392578" xlink:href="#DejaVuSans-65"/>
      <use x="263.916016" xlink:href="#DejaVuSans-72"/>
      <use x="305.029297" xlink:href="#DejaVuSans-61"/>
      <use x="366.308594" xlink:href="#DejaVuSans-74"/>
      <use x="405.517578" xlink:href="#DejaVuSans-69"/>
      <use x="433.300781" xlink:href="#DejaVuSans-6f"/>
      <use x="494.482422" xlink:href="#DejaVuSans-6e"/>
      <use x="557.861328" xlink:href="#DejaVuSans-73"/>
     </g>
    </g>
   </g>
   <g id="matplotlib.axis_2">
    <g id="ytick_1">
     <g id="line2d_13">
      <path clip-path="url(#pdc769ac1ab)" d="M 57.6 281.981186 
L 414.72 281.981186 
" style="fill:none;stroke:#b0b0b0;stroke-linecap:square;stroke-width:0.8;"/>
     </g>
     <g id="line2d_14">
      <defs>
       <path d="M 0 0 
L -3.5 0 
" id="m2cd3af4ece" style="stroke:#000000;stroke-width:0.8;"/>
      </defs>
      <g>
       <use style="stroke:#000000;stroke-width:0.8;" x="57.6" xlink:href="#m2cd3af4ece" y="281.981186"/>
      </g>
     </g>
     <g id="text_8">
      <!-- 0 -->
      <g transform="translate(44.2375 285.780405)scale(0.1 -0.1)">
       <use xlink:href="#DejaVuSans-30"/>
      </g>
     </g>
    </g>
    <g id="ytick_2">
     <g id="line2d_15">
      <path clip-path="url(#pdc769ac1ab)" d="M 57.6 223.413702 
L 414.72 223.413702 
" style="fill:none;stroke:#b0b0b0;stroke-linecap:square;stroke-width:0.8;"/>
     </g>
     <g id="line2d_16">
      <g>
       <use style="stroke:#000000;stroke-width:0.8;" x="57.6" xlink:href="#m2cd3af4ece" y="223.413702"/>
      </g>
     </g>
     <g id="text_9">
      <!-- 20 -->
      <g transform="translate(37.875 227.212921)scale(0.1 -0.1)">
       <use xlink:href="#DejaVuSans-32"/>
       <use x="63.623047" xlink:href="#DejaVuSans-30"/>
      </g>
     </g>
    </g>
    <g id="ytick_3">
     <g id="line2d_17">
      <path clip-path="url(#pdc769ac1ab)" d="M 57.6 164.846219 
L 414.72 164.846219 
" style="fill:none;stroke:#b0b0b0;stroke-linecap:square;stroke-width:0.8;"/>
     </g>
     <g id="line2d_18">
      <g>
       <use style="stroke:#000000;stroke-width:0.8;" x="57.6" xlink:href="#m2cd3af4ece" y="164.846219"/>
      </g>
     </g>
     <g id="text_10">
      <!-- 40 -->
      <g transform="translate(37.875 168.645438)scale(0.1 -0.1)">
       <use xlink:href="#DejaVuSans-34"/>
       <use x="63.623047" xlink:href="#DejaVuSans-30"/>
      </g>
     </g>
    </g>
    <g id="ytick_4">
     <g id="line2d_19">
      <path clip-path="url(#pdc769ac1ab)" d="M 57.6 106.278735 
L 414.72 106.278735 
" style="fill:none;stroke:#b0b0b0;stroke-linecap:square;stroke-width:0.8;"/>
     </g>
     <g id="line2d_20">
      <g>
       <use style="stroke:#000000;stroke-width:0.8;" x="57.6" xlink:href="#m2cd3af4ece" y="106.278735"/>
      </g>
     </g>
     <g id="text_11">
      <!-- 60 -->
      <g transform="translate(37.875 110.077954)scale(0.1 -0.1)">
       <defs>
        <path d="M 2113 2584 
Q 1688 2584 1439 2293 
Q 1191 2003 1191 1497 
Q 1191 994 1439 701 
Q 1688 409 2113 409 
Q 2538 409 2786 701 
Q 3034 994 3034 1497 
Q 3034 2003 2786 2293 
Q 2538 2584 2113 2584 
z
M 3366 4563 
L 3366 3988 
Q 3128 4100 2886 4159 
Q 2644 4219 2406 4219 
Q 1781 4219 1451 3797 
Q 1122 3375 1075 2522 
Q 1259 2794 1537 2939 
Q 1816 3084 2150 3084 
Q 2853 3084 3261 2657 
Q 3669 2231 3669 1497 
Q 3669 778 3244 343 
Q 2819 -91 2113 -91 
Q 1303 -91 875 529 
Q 447 1150 447 2328 
Q 447 3434 972 4092 
Q 1497 4750 2381 4750 
Q 2619 4750 2861 4703 
Q 3103 4656 3366 4563 
z
" id="DejaVuSans-36" transform="scale(0.015625)"/>
       </defs>
       <use xlink:href="#DejaVuSans-36"/>
       <use x="63.623047" xlink:href="#DejaVuSans-30"/>
      </g>
     </g>
    </g>
    <g id="ytick_5">
     <g id="line2d_21">
      <path clip-path="url(#pdc769ac1ab)" d="M 57.6 47.711252 
L 414.72 47.711252 
" style="fill:none;stroke:#b0b0b0;stroke-linecap:square;stroke-width:0.8;"/>
     </g>
     <g id="line2d_22">
      <g>
       <use style="stroke:#000000;stroke-width:0.8;" x="57.6" xlink:href="#m2cd3af4ece" y="47.711252"/>
      </g>
     </g>
     <g id="text_12">
      <!-- 80 -->
      <g transform="translate(37.875 51.51047)scale(0.1 -0.1)">
       <defs>
        <path d="M 2034 2216 
Q 1584 2216 1326 1975 
Q 1069 1734 1069 1313 
Q 1069 891 1326 650 
Q 1584 409 2034 409 
Q 2484 409 2743 651 
Q 3003 894 3003 1313 
Q 3003 1734 2745 1975 
Q 2488 2216 2034 2216 
z
M 1403 2484 
Q 997 2584 770 2862 
Q 544 3141 544 3541 
Q 544 4100 942 4425 
Q 1341 4750 2034 4750 
Q 2731 4750 3128 4425 
Q 3525 4100 3525 3541 
Q 3525 3141 3298 2862 
Q 3072 2584 2669 2484 
Q 3125 2378 3379 2068 
Q 3634 1759 3634 1313 
Q 3634 634 3220 271 
Q 2806 -91 2034 -91 
Q 1263 -91 848 271 
Q 434 634 434 1313 
Q 434 1759 690 2068 
Q 947 2378 1403 2484 
z
M 1172 3481 
Q 1172 3119 1398 2916 
Q 1625 2713 2034 2713 
Q 2441 2713 2670 2916 
Q 2900 3119 2900 3481 
Q 2900 3844 2670 4047 
Q 2441 4250 2034 4250 
Q 1625 4250 1398 4047 
Q 1172 3844 1172 3481 
z
" id="DejaVuSans-38" transform="scale(0.015625)"/>
       </defs>
       <use xlink:href="#DejaVuSans-38"/>
       <use x="63.623047" xlink:href="#DejaVuSans-30"/>
      </g>
     </g>
    </g>
    <g id="text_13">
     <!-- Fitness -->
     <g transform="translate(31.795312 191.845187)rotate(-90)scale(0.1 -0.1)">
      <defs>
       <path d="M 628 4666 
L 3309 4666 
L 3309 4134 
L 1259 4134 
L 1259 2759 
L 3109 2759 
L 3109 2228 
L 1259 2228 
L 1259 0 
L 628 0 
L 628 4666 
z
" id="DejaVuSans-46" transform="scale(0.015625)"/>
      </defs>
      <use xlink:href="#DejaVuSans-46"/>
      <use x="50.269531" xlink:href="#DejaVuSans-69"/>
      <use x="78.052734" xlink:href="#DejaVuSans-74"/>
      <use x="117.261719" xlink:href="#DejaVuSans-6e"/>
      <use x="180.640625" xlink:href="#DejaVuSans-65"/>
      <use x="242.164062" xlink:href="#DejaVuSans-73"/>
      <use x="294.263672" xlink:href="#DejaVuSans-73"/>
     </g>
    </g>
   </g>
   <g id="line2d_23">
    <path clip-path="url(#pdc769ac1ab)" d="M 73.832727 186.516188 
L 74.483338 169.531617 
L 75.133948 173.631341 
L 76.435169 203.207921 
L 77.085779 178.902415 
L 77.736389 196.765497 
L 78.386999 170.702967 
L 79.03761 189.151724 
L 79.68822 210.821693 
L 80.33883 176.266878 
L 80.989441 185.637675 
L 81.640051 176.559715 
L 82.290661 190.323074 
L 82.941272 206.72197 
L 83.591882 175.681203 
L 84.242492 200.474771 
L 84.893103 184.368713 
L 85.543713 145.323724 
L 86.194323 189.249337 
L 86.844934 165.334281 
L 87.495544 185.344838 
L 88.146154 180.659439 
L 88.796764 192.958611 
L 89.447375 173.045666 
L 90.097985 181.830789 
L 90.748595 182.416464 
L 92.049816 167.774593 
L 92.700426 167.188918 
L 93.351037 188.273212 
L 94.001647 185.344838 
L 94.652257 172.459992 
L 95.302868 174.217016 
L 95.953478 188.858887 
L 96.604088 188.858887 
L 97.254698 175.388366 
L 97.905309 172.459992 
L 98.555919 176.559715 
L 99.206529 169.970874 
L 100.50775 171.288642 
L 101.15836 176.559715 
L 101.808971 174.363435 
L 102.459581 173.045666 
L 103.110191 170.702967 
L 103.760802 187.101863 
L 104.411412 175.974041 
L 105.062022 186.516188 
L 105.712633 167.188918 
L 106.363243 175.974041 
L 107.013853 174.217016 
L 107.664463 187.687537 
L 108.315074 189.444562 
L 108.965684 173.631341 
L 109.616294 171.874317 
L 110.266905 169.531617 
L 110.917515 204.672108 
L 111.568125 184.173488 
L 112.218736 176.559715 
L 112.869346 194.129961 
L 113.519956 171.874317 
L 114.170567 168.360268 
L 114.821177 183.587814 
L 115.471787 208.186157 
L 116.122398 188.273212 
L 116.773008 174.802691 
L 117.423618 173.045666 
L 118.724839 203.500758 
L 119.375449 188.273212 
L 120.026059 207.600482 
L 120.67667 175.974041 
L 121.32728 176.559715 
L 121.97789 175.095528 
L 122.628501 189.444562 
L 123.279111 192.958611 
L 123.929721 175.388366 
L 124.580332 177.14539 
L 125.230942 171.874317 
L 125.881552 174.217016 
L 126.532163 186.516188 
L 127.182773 168.945943 
L 127.833383 175.388366 
L 128.483993 189.444562 
L 129.134604 191.787261 
L 129.785214 175.388366 
L 130.435824 171.288642 
L 131.086435 174.217016 
L 131.737045 173.045666 
L 132.387655 174.217016 
L 133.038266 173.045666 
L 133.688876 173.045666 
L 134.339486 208.186157 
L 134.990097 174.217016 
L 135.640707 206.429132 
L 136.291317 171.288642 
L 136.941927 210.528856 
L 137.592538 173.631341 
L 138.243148 171.288642 
L 138.893758 176.559715 
L 139.544369 173.631341 
L 140.194979 170.117292 
L 140.845589 174.802691 
L 142.14681 173.631341 
L 142.79742 174.802691 
L 143.448031 174.217016 
L 144.098641 175.388366 
L 144.749251 173.045666 
L 145.399862 176.559715 
L 146.050472 175.827622 
L 146.701082 175.388366 
L 147.351692 172.459992 
L 148.002303 191.201586 
L 148.652913 189.444562 
L 149.303523 176.559715 
L 149.954134 175.827622 
L 150.604744 168.945943 
L 151.255354 176.559715 
L 151.905965 171.435061 
L 152.556575 171.288642 
L 153.207185 176.559715 
L 153.857796 173.631341 
L 154.508406 176.559715 
L 155.159016 192.665773 
L 155.809627 176.559715 
L 156.460237 176.559715 
L 157.110847 174.363435 
L 157.761457 173.045666 
L 158.412068 176.559715 
L 159.062678 175.095528 
L 159.713288 195.886985 
L 160.363899 176.559715 
L 161.014509 175.827622 
L 161.665119 173.631341 
L 162.31573 173.045666 
L 162.96634 175.974041 
L 163.61695 176.559715 
L 164.267561 174.363435 
L 164.918171 173.631341 
L 165.568781 191.787261 
L 166.219392 174.217016 
L 166.870002 176.559715 
L 167.520612 172.899248 
L 168.171222 190.615912 
L 168.821833 174.217016 
L 169.472443 191.201586 
L 170.123053 169.531617 
L 170.773664 191.201586 
L 171.424274 173.045666 
L 172.074884 175.974041 
L 172.725495 175.388366 
L 173.376105 176.559715 
L 174.026715 175.827622 
L 174.677326 172.459992 
L 175.327936 175.388366 
L 175.978546 176.559715 
L 176.629156 176.559715 
L 177.279767 175.095528 
L 177.930377 174.802691 
L 178.580987 173.045666 
L 179.231598 176.559715 
L 179.882208 194.862054 
L 180.532818 175.388366 
L 181.183429 175.388366 
L 181.834039 176.559715 
L 182.484649 176.559715 
L 183.13526 175.095528 
L 183.78587 176.559715 
L 184.43648 173.631341 
L 185.087091 176.559715 
L 185.737701 175.827622 
L 186.388311 208.186157 
L 187.038921 175.388366 
L 187.689532 176.559715 
L 188.340142 176.559715 
L 188.990752 172.899248 
L 189.641363 176.559715 
L 192.894414 176.559715 
L 193.545025 173.631341 
L 194.195635 173.045666 
L 194.846245 175.974041 
L 195.496856 172.459992 
L 196.147466 188.858887 
L 196.798076 175.388366 
L 197.448686 171.874317 
L 198.099297 171.874317 
L 198.749907 173.631341 
L 199.400517 174.217016 
L 200.051128 190.030237 
L 200.701738 173.045666 
L 201.352348 173.631341 
L 202.002959 192.372936 
L 202.653569 174.802691 
L 203.304179 210.528856 
L 203.95479 174.217016 
L 204.6054 176.559715 
L 205.906621 176.559715 
L 206.557231 174.363435 
L 207.207841 175.974041 
L 207.858451 176.559715 
L 208.509062 191.93368 
L 209.159672 173.045666 
L 209.810282 191.201586 
L 210.460893 191.201586 
L 211.111503 176.559715 
L 211.762113 175.095528 
L 212.412724 191.787261 
L 213.063334 173.045666 
L 214.364555 209.943181 
L 215.665775 173.631341 
L 216.316385 175.974041 
L 216.966996 188.273212 
L 217.617606 175.974041 
L 218.268216 190.615912 
L 218.918827 175.974041 
L 219.569437 192.958611 
L 220.220047 170.702967 
L 220.870658 175.388366 
L 221.521268 191.787261 
L 222.171878 172.459992 
L 222.822489 205.257782 
L 223.473099 174.802691 
L 224.123709 175.974041 
L 224.77432 190.030237 
L 225.42493 176.559715 
L 226.07554 176.559715 
L 226.72615 192.665773 
L 227.376761 190.030237 
L 228.027371 175.974041 
L 228.677981 196.47266 
L 229.328592 193.544286 
L 229.979202 196.47266 
L 230.629812 214.042905 
L 231.280423 211.700206 
L 231.931033 175.388366 
L 232.581643 175.388366 
L 233.232254 173.631341 
L 233.882864 174.802691 
L 234.533474 175.388366 
L 235.184085 175.388366 
L 235.834695 175.974041 
L 236.485305 174.217016 
L 237.135915 176.559715 
L 237.786526 175.095528 
L 238.437136 173.045666 
L 239.087746 175.974041 
L 239.738357 175.388366 
L 240.388967 175.974041 
L 241.039577 174.802691 
L 241.690188 175.388366 
L 242.340798 174.802691 
L 242.991408 174.802691 
L 243.642019 176.559715 
L 244.292629 175.827622 
L 244.943239 175.388366 
L 245.59385 176.559715 
L 246.24446 174.363435 
L 246.89507 176.559715 
L 247.54568 195.594148 
L 248.196291 176.559715 
L 248.846901 175.095528 
L 249.497511 175.388366 
L 250.148122 175.974041 
L 250.798732 175.388366 
L 251.449342 175.974041 
L 252.099953 174.802691 
L 252.750563 176.559715 
L 253.401173 175.827622 
L 254.051784 175.974041 
L 254.702394 176.559715 
L 255.353004 175.095528 
L 256.003615 175.388366 
L 256.654225 174.217016 
L 257.304835 175.388366 
L 257.955445 175.974041 
L 258.606056 175.974041 
L 259.256666 176.559715 
L 259.907276 175.827622 
L 260.557887 175.974041 
L 261.208497 176.559715 
L 261.859107 176.559715 
L 262.509718 172.899248 
L 263.160328 174.802691 
L 263.810938 173.045666 
L 264.461549 207.014807 
L 265.762769 176.559715 
L 266.413379 175.827622 
L 267.06399 190.030237 
L 267.7146 176.559715 
L 268.36521 176.559715 
L 269.015821 173.631341 
L 269.666431 174.363435 
L 270.317041 188.858887 
L 270.967652 192.958611 
L 271.618262 176.559715 
L 272.268872 175.095528 
L 272.919483 176.559715 
L 273.570093 170.702967 
L 274.220703 175.827622 
L 274.871314 174.217016 
L 275.521924 187.687537 
L 276.172534 191.787261 
L 276.823144 191.787261 
L 277.473755 176.559715 
L 278.774975 176.559715 
L 279.425586 175.827622 
L 280.076196 191.787261 
L 280.726806 175.974041 
L 281.377417 175.974041 
L 282.028027 175.388366 
L 283.329248 175.388366 
L 283.979858 189.444562 
L 284.630468 176.559715 
L 285.281079 197.058335 
L 285.931689 176.559715 
L 286.582299 195.594148 
L 287.232909 170.117292 
L 287.88352 168.360268 
L 288.53413 175.388366 
L 289.18474 192.372936 
L 289.835351 190.615912 
L 290.485961 174.217016 
L 291.136571 174.802691 
L 291.787182 189.444562 
L 292.437792 171.874317 
L 293.088402 175.388366 
L 293.739013 174.802691 
L 294.389623 224.585052 
L 295.040233 191.201586 
L 295.690844 174.217016 
L 296.341454 175.388366 
L 296.992064 190.030237 
L 297.642674 174.217016 
L 298.293285 176.559715 
L 298.943895 194.129961 
L 299.594505 191.201586 
L 300.245116 207.600482 
L 300.895726 204.672108 
L 301.546336 176.559715 
L 302.196947 173.631341 
L 302.847557 196.326241 
L 303.498167 188.858887 
L 304.148778 173.631341 
L 304.799388 175.974041 
L 305.449998 195.886985 
L 306.100608 192.372936 
L 306.751219 192.958611 
L 307.401829 191.787261 
L 308.052439 171.288642 
L 308.70305 191.201586 
L 309.35366 175.388366 
L 310.00427 197.64401 
L 310.654881 191.201586 
L 311.305491 193.544286 
L 311.956101 176.559715 
L 312.606712 194.862054 
L 313.257322 190.615912 
L 313.907932 176.559715 
L 314.558543 176.559715 
L 315.209153 175.095528 
L 315.859763 176.559715 
L 316.510373 196.326241 
L 317.160984 175.974041 
L 317.811594 173.045666 
L 318.462204 176.559715 
L 319.112815 174.363435 
L 319.763425 175.974041 
L 320.414035 176.559715 
L 321.064646 175.827622 
L 321.715256 176.559715 
L 322.365866 175.827622 
L 323.016477 175.974041 
L 323.667087 176.559715 
L 324.317697 175.827622 
L 324.968308 175.974041 
L 325.618918 190.030237 
L 326.269528 172.459992 
L 326.920138 207.600482 
L 327.570749 208.186157 
L 328.221359 176.559715 
L 328.871969 175.827622 
L 329.52258 191.787261 
L 330.17319 191.787261 
L 330.8238 176.559715 
L 331.474411 174.363435 
L 332.125021 175.974041 
L 332.775631 176.559715 
L 333.426242 176.559715 
L 334.076852 175.095528 
L 334.727462 176.559715 
L 335.378073 176.559715 
L 336.028683 174.363435 
L 336.679293 175.974041 
L 337.329903 174.802691 
L 337.980514 175.974041 
L 338.631124 206.429132 
L 339.281734 176.559715 
L 339.932345 176.559715 
L 340.582955 174.363435 
L 341.233565 175.388366 
L 342.534786 174.217016 
L 343.185396 175.388366 
L 343.836007 208.771831 
L 344.486617 171.874317 
L 345.137227 207.014807 
L 345.787837 175.388366 
L 346.438448 196.47266 
L 347.089058 172.459992 
L 347.739668 187.101863 
L 348.390279 175.974041 
L 349.040889 174.802691 
L 349.691499 173.045666 
L 350.34211 176.559715 
L 350.99272 176.559715 
L 351.64333 175.095528 
L 352.293941 174.802691 
L 352.944551 176.559715 
L 353.595161 174.363435 
L 354.245772 174.802691 
L 354.896382 188.273212 
L 355.546992 175.388366 
L 356.197602 173.631341 
L 356.848213 193.544286 
L 357.498823 173.045666 
L 358.149433 175.974041 
L 358.800044 174.802691 
L 359.450654 174.217016 
L 360.101264 176.559715 
L 360.751875 175.827622 
L 361.402485 171.874317 
L 362.053095 174.802691 
L 362.703706 192.372936 
L 363.354316 173.045666 
L 364.004926 174.802691 
L 364.655537 174.217016 
L 365.306147 190.615912 
L 365.956757 174.217016 
L 366.607367 175.974041 
L 367.257978 173.045666 
L 367.908588 174.217016 
L 369.209809 175.388366 
L 369.860419 175.388366 
L 370.511029 173.631341 
L 371.16164 176.559715 
L 371.81225 174.363435 
L 372.46286 175.388366 
L 373.113471 174.802691 
L 373.764081 173.045666 
L 375.065302 174.217016 
L 375.715912 191.201586 
L 376.366522 176.559715 
L 377.017132 176.559715 
L 377.667743 172.899248 
L 378.318353 176.559715 
L 378.968963 174.363435 
L 379.619574 176.559715 
L 380.270184 172.899248 
L 380.920794 189.444562 
L 381.571405 174.217016 
L 382.222015 174.802691 
L 382.872625 174.217016 
L 383.523236 175.974041 
L 384.173846 176.559715 
L 384.824456 175.095528 
L 385.475066 171.874317 
L 386.125677 171.874317 
L 386.776287 174.217016 
L 387.426897 190.030237 
L 388.077508 176.559715 
L 388.728118 172.899248 
L 389.378728 175.974041 
L 390.029339 188.273212 
L 390.679949 174.217016 
L 391.330559 176.559715 
L 391.98117 174.363435 
L 392.63178 191.201586 
L 393.28239 173.631341 
L 393.933001 174.802691 
L 395.234221 174.802691 
L 395.884831 175.388366 
L 396.535442 170.117292 
L 397.186052 173.631341 
L 397.836662 173.631341 
L 398.487273 176.559715 
L 398.487273 176.559715 
" style="fill:none;stroke:#0000ff;stroke-linecap:square;stroke-width:1.5;"/>
   </g>
   <g id="line2d_24">
    <path clip-path="url(#pdc769ac1ab)" d="M 73.832727 272.104906 
L 74.483338 176.234972 
L 75.133948 212.12582 
L 76.435169 272.461958 
L 77.085779 215.496548 
L 77.736389 274.270108 
L 78.386999 175.424829 
L 79.03761 236.859065 
L 79.68822 285.928069 
L 80.33883 214.323351 
L 80.989441 235.90772 
L 81.640051 176.559715 
L 82.290661 254.293809 
L 82.941272 287.14357 
L 83.591882 177.556278 
L 84.242492 261.396607 
L 84.893103 229.724388 
L 85.543713 162.785174 
L 86.194323 231.505505 
L 86.844934 179.216202 
L 87.495544 231.677357 
L 88.146154 233.48718 
L 88.796764 272.889817 
L 89.447375 177.34948 
L 90.097985 238.32337 
L 90.748595 237.606801 
L 91.399206 177.14539 
L 92.049816 175.182859 
L 92.700426 175.954496 
L 93.351037 235.600668 
L 94.001647 234.415862 
L 94.652257 177.565786 
L 95.302868 177.086225 
L 95.953478 237.098019 
L 96.604088 236.453752 
L 97.254698 177.731065 
L 97.905309 177.565786 
L 98.555919 176.559715 
L 99.206529 176.640563 
L 100.50775 175.592455 
L 101.15836 176.559715 
L 101.808971 176.791514 
L 102.459581 177.34948 
L 103.110191 179.776203 
L 103.760802 236.018861 
L 104.411412 177.14539 
L 105.062022 235.573229 
L 105.712633 179.248701 
L 106.363243 177.14539 
L 107.013853 177.086225 
L 107.664463 235.498122 
L 108.315074 237.512734 
L 108.965684 179.48809 
L 109.616294 177.305642 
L 110.266905 172.517985 
L 110.917515 269.192106 
L 111.568125 237.710704 
L 112.218736 176.559715 
L 112.869346 246.39139 
L 113.519956 176.632362 
L 114.170567 174.038596 
L 114.821177 234.159742 
L 115.471787 271.439039 
L 116.122398 235.889693 
L 116.773008 177.14539 
L 117.423618 177.731065 
L 118.074228 236.319971 
L 118.724839 270.13398 
L 119.375449 238.003869 
L 120.026059 271.640216 
L 120.67667 177.14539 
L 121.32728 176.559715 
L 121.97789 177.631575 
L 122.628501 236.210615 
L 123.279111 238.120179 
L 123.929721 177.731065 
L 124.580332 230.161096 
L 125.230942 178.448501 
L 125.881552 177.086225 
L 126.532163 235.643101 
L 127.182773 172.918183 
L 127.833383 177.731065 
L 128.483993 237.903625 
L 129.134604 237.694605 
L 129.785214 177.731065 
L 130.435824 176.96697 
L 131.086435 177.632058 
L 131.737045 175.914875 
L 132.387655 177.632058 
L 133.038266 176.460708 
L 133.688876 175.914875 
L 134.339486 271.439039 
L 134.990097 176.408411 
L 135.640707 272.076985 
L 136.291317 174.157851 
L 136.941927 269.609485 
L 137.592538 177.335474 
L 138.243148 175.974041 
L 138.893758 176.559715 
L 139.544369 175.702015 
L 140.194979 174.00222 
L 140.845589 178.31674 
L 142.14681 176.839215 
L 142.79742 178.31674 
L 143.448031 176.408411 
L 144.098641 176.82297 
L 144.749251 176.460708 
L 145.399862 176.559715 
L 146.701082 177.731065 
L 147.351692 176.432232 
L 148.002303 237.614239 
L 148.652913 236.829963 
L 149.303523 176.559715 
L 149.954134 177.095645 
L 150.604744 173.328732 
L 151.255354 176.559715 
L 151.905965 176.663254 
L 152.556575 175.974041 
L 153.207185 176.559715 
L 154.508406 176.559715 
L 155.159016 245.922749 
L 155.809627 176.559715 
L 156.460237 176.559715 
L 157.110847 176.791514 
L 157.761457 175.914875 
L 158.412068 176.559715 
L 159.062678 177.631575 
L 159.713288 238.988833 
L 160.363899 176.559715 
L 161.014509 177.095645 
L 161.665119 176.250559 
L 162.31573 176.460708 
L 162.96634 177.14539 
L 163.61695 176.559715 
L 164.267561 176.791514 
L 164.918171 177.335474 
L 165.568781 237.955381 
L 166.219392 177.632058 
L 166.870002 176.559715 
L 167.520612 176.703317 
L 168.171222 237.88535 
L 168.821833 178.902415 
L 169.472443 238.274689 
L 170.123053 174.289662 
L 170.773664 238.274689 
L 171.424274 176.460708 
L 172.074884 177.14539 
L 173.376105 176.559715 
L 174.026715 177.095645 
L 174.677326 174.802691 
L 175.327936 176.82297 
L 175.978546 176.559715 
L 176.629156 176.559715 
L 177.279767 177.631575 
L 177.930377 177.14539 
L 178.580987 177.731065 
L 179.231598 176.559715 
L 179.882208 246.103373 
L 180.532818 176.82297 
L 181.183429 176.82297 
L 181.834039 176.559715 
L 185.087091 176.559715 
L 185.737701 177.095645 
L 186.388311 271.439039 
L 187.038921 176.82297 
L 187.689532 176.559715 
L 188.340142 176.559715 
L 188.990752 179.239364 
L 189.641363 176.559715 
L 192.894414 176.559715 
L 193.545025 178.703434 
L 194.195635 177.34948 
L 194.846245 177.14539 
L 195.496856 179.290075 
L 196.147466 236.884224 
L 196.798076 177.731065 
L 197.448686 174.860684 
L 198.099297 175.846557 
L 198.749907 176.250559 
L 199.400517 177.632058 
L 200.051128 237.487971 
L 200.701738 177.731065 
L 201.352348 176.250559 
L 202.002959 237.761791 
L 202.653569 178.31674 
L 203.304179 270.759469 
L 203.95479 177.632058 
L 204.6054 176.559715 
L 205.906621 176.559715 
L 206.557231 176.791514 
L 207.207841 177.14539 
L 207.858451 176.559715 
L 208.509062 246.379984 
L 209.159672 178.723995 
L 209.810282 237.317669 
L 210.460893 237.317669 
L 211.111503 176.559715 
L 211.762113 177.631575 
L 212.412724 237.955381 
L 213.063334 177.731065 
L 213.713944 238.385237 
L 214.364555 269.313395 
L 215.015165 238.288515 
L 215.665775 178.167959 
L 216.316385 177.14539 
L 216.966996 236.675614 
L 217.617606 177.14539 
L 218.268216 237.117166 
L 218.918827 177.14539 
L 219.569437 238.385237 
L 220.220047 178.111233 
L 220.870658 177.731065 
L 221.521268 238.288515 
L 222.171878 179.290075 
L 222.822489 272.556893 
L 223.473099 177.14539 
L 224.123709 177.14539 
L 224.77432 236.722885 
L 225.42493 176.559715 
L 226.07554 176.559715 
L 226.72615 245.152337 
L 227.376761 237.883849 
L 228.027371 177.14539 
L 228.677981 239.287053 
L 229.328592 238.086388 
L 229.979202 239.246976 
L 230.629812 269.955684 
L 231.280423 269.915224 
L 231.931033 176.82297 
L 232.581643 177.731065 
L 233.232254 177.335474 
L 233.882864 177.14539 
L 234.533474 176.82297 
L 235.184085 176.82297 
L 235.834695 177.14539 
L 236.485305 177.086225 
L 237.135915 176.559715 
L 237.786526 177.631575 
L 238.437136 177.731065 
L 239.087746 177.14539 
L 239.738357 177.731065 
L 240.388967 177.14539 
L 241.039577 177.14539 
L 241.690188 177.731065 
L 242.340798 177.14539 
L 242.991408 177.14539 
L 243.642019 176.559715 
L 244.943239 177.731065 
L 245.59385 176.559715 
L 246.24446 178.167505 
L 246.89507 176.559715 
L 247.54568 246.882513 
L 248.196291 176.559715 
L 248.846901 177.631575 
L 249.497511 176.82297 
L 250.148122 177.14539 
L 250.798732 176.82297 
L 251.449342 177.14539 
L 252.099953 177.14539 
L 252.750563 176.559715 
L 253.401173 177.095645 
L 254.051784 177.14539 
L 254.702394 176.559715 
L 255.353004 177.631575 
L 256.003615 177.731065 
L 256.654225 177.086225 
L 257.304835 176.82297 
L 257.955445 177.14539 
L 258.606056 177.14539 
L 259.256666 176.559715 
L 259.907276 177.095645 
L 260.557887 177.14539 
L 261.208497 176.559715 
L 261.859107 176.559715 
L 262.509718 177.699906 
L 263.160328 177.14539 
L 263.810938 177.34948 
L 264.461549 270.89365 
L 265.112159 237.43234 
L 265.762769 176.559715 
L 266.413379 177.095645 
L 267.06399 237.161598 
L 267.7146 176.559715 
L 269.015821 176.559715 
L 269.666431 178.167505 
L 270.317041 236.884224 
L 270.967652 238.385237 
L 271.618262 176.559715 
L 272.268872 177.631575 
L 272.919483 176.559715 
L 273.570093 176.559715 
L 274.220703 177.095645 
L 274.871314 176.408411 
L 275.521924 235.677149 
L 276.172534 238.288515 
L 276.823144 237.955381 
L 277.473755 176.559715 
L 278.774975 176.559715 
L 279.425586 177.095645 
L 280.076196 237.694605 
L 280.726806 177.14539 
L 281.377417 177.14539 
L 282.028027 177.731065 
L 282.678637 176.82297 
L 283.329248 177.731065 
L 283.979858 236.648646 
L 284.630468 176.559715 
L 285.281079 247.012656 
L 285.931689 176.559715 
L 286.582299 246.882513 
L 287.232909 175.795621 
L 287.88352 177.125846 
L 288.53413 177.731065 
L 289.18474 238.32509 
L 289.835351 237.557667 
L 290.485961 177.086225 
L 291.136571 178.31674 
L 291.787182 236.793755 
L 292.437792 176.632362 
L 293.088402 176.82297 
L 293.739013 177.14539 
L 294.389623 295.488 
L 295.690844 178.902415 
L 296.341454 177.731065 
L 296.992064 237.524097 
L 297.642674 177.632058 
L 298.293285 176.559715 
L 298.943895 246.840696 
L 299.594505 238.274689 
L 300.245116 271.640216 
L 300.895726 270.220609 
L 301.546336 176.559715 
L 302.196947 176.559715 
L 302.847557 246.339537 
L 303.498167 237.522792 
L 304.148778 177.335474 
L 304.799388 177.14539 
L 305.449998 239.068342 
L 306.100608 237.344222 
L 306.751219 237.891743 
L 307.401829 237.694605 
L 308.052439 176.326807 
L 308.70305 237.614239 
L 309.35366 176.82297 
L 310.00427 239.812598 
L 310.654881 238.274689 
L 311.305491 238.469783 
L 311.956101 176.559715 
L 312.606712 246.851006 
L 313.257322 238.282792 
L 313.907932 176.559715 
L 315.859763 176.559715 
L 316.510373 246.936096 
L 317.160984 177.14539 
L 317.811594 176.460708 
L 318.462204 176.559715 
L 319.112815 176.791514 
L 319.763425 177.14539 
L 320.414035 176.559715 
L 321.064646 177.095645 
L 321.715256 176.559715 
L 322.365866 177.095645 
L 323.016477 177.14539 
L 323.667087 176.559715 
L 324.317697 177.095645 
L 324.968308 177.14539 
L 325.618918 237.015816 
L 326.269528 176.842781 
L 326.920138 271.640216 
L 327.570749 271.439039 
L 328.221359 176.559715 
L 328.871969 177.095645 
L 329.52258 237.694605 
L 330.17319 237.694605 
L 330.8238 176.559715 
L 331.474411 176.791514 
L 332.125021 177.14539 
L 332.775631 176.559715 
L 335.378073 176.559715 
L 336.028683 178.167505 
L 336.679293 177.14539 
L 337.329903 178.31674 
L 337.980514 177.14539 
L 338.631124 272.076985 
L 339.281734 176.559715 
L 339.932345 176.559715 
L 340.582955 178.167505 
L 341.233565 177.731065 
L 341.884176 177.14539 
L 342.534786 177.086225 
L 343.185396 176.82297 
L 343.836007 271.249914 
L 344.486617 177.612735 
L 345.137227 271.853006 
L 345.787837 176.82297 
L 346.438448 239.287053 
L 347.089058 179.290075 
L 347.739668 235.312543 
L 348.390279 177.14539 
L 349.040889 178.31674 
L 349.691499 176.460708 
L 350.99272 176.559715 
L 351.64333 176.559715 
L 352.293941 177.14539 
L 352.944551 176.559715 
L 353.595161 176.791514 
L 354.245772 178.31674 
L 354.896382 236.711035 
L 355.546992 176.82297 
L 356.197602 177.335474 
L 356.848213 238.240141 
L 357.498823 175.914875 
L 358.149433 177.14539 
L 359.450654 177.086225 
L 360.101264 176.559715 
L 360.751875 177.095645 
L 361.402485 176.257106 
L 362.053095 177.14539 
L 362.703706 238.32509 
L 363.354316 177.34948 
L 364.004926 177.14539 
L 364.655537 178.902415 
L 365.306147 237.88535 
L 365.956757 176.408411 
L 367.257978 177.731065 
L 367.908588 178.902415 
L 369.209809 177.731065 
L 369.860419 177.731065 
L 370.511029 177.335474 
L 371.81225 175.631458 
L 372.46286 177.731065 
L 373.113471 177.14539 
L 373.764081 177.731065 
L 374.414691 176.839215 
L 375.065302 178.902415 
L 375.715912 237.614239 
L 376.366522 176.559715 
L 377.017132 176.559715 
L 377.667743 177.699906 
L 378.318353 176.559715 
L 378.968963 176.791514 
L 379.619574 176.559715 
L 380.270184 175.327327 
L 380.920794 236.53952 
L 381.571405 177.632058 
L 382.222015 177.14539 
L 382.872625 176.408411 
L 383.523236 177.14539 
L 384.173846 176.559715 
L 384.824456 177.631575 
L 385.475066 175.846557 
L 386.125677 175.846557 
L 386.776287 177.632058 
L 387.426897 237.524097 
L 388.077508 176.559715 
L 388.728118 177.699906 
L 389.378728 177.14539 
L 390.029339 236.74643 
L 390.679949 177.086225 
L 391.330559 176.559715 
L 391.98117 178.167505 
L 392.63178 238.274689 
L 393.28239 178.167959 
L 393.933001 178.31674 
L 394.583611 178.31674 
L 395.234221 177.14539 
L 395.884831 177.731065 
L 396.535442 174.802691 
L 397.186052 177.335474 
L 397.836662 178.167959 
L 398.487273 176.559715 
L 398.487273 176.559715 
" style="fill:none;stroke:#008000;stroke-dasharray:9.6,2.4,1.5,2.4;stroke-dashoffset:0;stroke-width:1.5;"/>
   </g>
   <g id="line2d_25">
    <path clip-path="url(#pdc769ac1ab)" d="M 73.832727 100.92747 
L 74.483338 162.828263 
L 75.133948 135.136863 
L 75.784558 135.294862 
L 76.435169 133.953883 
L 77.085779 142.308281 
L 77.736389 119.260887 
L 78.386999 165.981106 
L 79.03761 141.444384 
L 79.68822 135.715318 
L 80.33883 138.210405 
L 80.989441 135.367631 
L 81.640051 176.559715 
L 82.290661 126.35234 
L 82.941272 126.300369 
L 83.591882 173.806129 
L 84.242492 139.552935 
L 84.893103 139.013038 
L 85.543713 127.862274 
L 86.194323 146.993169 
L 86.844934 151.45236 
L 88.796764 113.027405 
L 89.447375 168.741853 
L 90.097985 125.338208 
L 90.748595 127.226127 
L 91.399206 172.459992 
L 92.049816 160.366327 
L 92.700426 158.42334 
L 93.351037 140.945757 
L 94.001647 136.273814 
L 94.652257 167.354197 
L 95.302868 171.347807 
L 95.953478 140.619755 
L 96.604088 141.264022 
L 97.254698 173.045666 
L 97.905309 167.354197 
L 98.555919 176.559715 
L 99.206529 163.301184 
L 100.50775 166.984828 
L 101.15836 176.559715 
L 101.808971 171.935355 
L 102.459581 168.741853 
L 103.110191 161.629732 
L 103.760802 138.184864 
L 104.411412 174.802691 
L 105.062022 137.459146 
L 106.363243 174.802691 
L 107.013853 171.347807 
L 107.664463 139.876952 
L 108.315074 141.37639 
L 108.965684 167.774593 
L 109.616294 166.442992 
L 110.266905 166.54525 
L 110.917515 140.152109 
L 111.568125 130.636273 
L 112.218736 176.559715 
L 112.869346 141.868531 
L 113.519956 167.116272 
L 114.170567 162.68194 
L 114.821177 133.015885 
L 115.471787 144.933274 
L 116.122398 140.656731 
L 116.773008 172.459992 
L 117.423618 168.360268 
L 118.074228 140.226453 
L 118.724839 136.867536 
L 119.375449 138.542555 
L 120.026059 143.560748 
L 120.67667 174.802691 
L 121.32728 176.559715 
L 121.97789 172.559482 
L 122.628501 142.678509 
L 123.279111 147.797042 
L 123.929721 173.045666 
L 124.580332 124.129685 
L 125.230942 165.300133 
L 125.881552 171.347807 
L 126.532163 137.389274 
L 127.182773 164.973703 
L 127.833383 173.045666 
L 128.483993 140.985499 
L 129.134604 145.879917 
L 129.785214 173.045666 
L 130.435824 165.610314 
L 131.086435 170.801974 
L 131.737045 170.176457 
L 132.387655 170.801974 
L 133.038266 169.630625 
L 133.688876 170.176457 
L 134.339486 144.933274 
L 134.990097 172.025622 
L 135.640707 140.781279 
L 136.291317 168.419433 
L 136.941927 151.448227 
L 137.592538 169.927208 
L 138.243148 166.603243 
L 138.893758 176.559715 
L 140.194979 166.232365 
L 140.845589 171.288642 
L 142.14681 170.423468 
L 143.448031 172.025622 
L 144.098641 173.953761 
L 144.749251 169.630625 
L 145.399862 176.559715 
L 146.050472 174.559599 
L 146.701082 173.045666 
L 147.351692 168.487752 
L 148.002303 144.788934 
L 148.652913 142.05916 
L 149.303523 176.559715 
L 149.954134 174.559599 
L 150.604744 164.563153 
L 151.255354 176.559715 
L 151.905965 166.206867 
L 152.556575 166.603243 
L 153.207185 176.559715 
L 153.857796 170.702967 
L 154.508406 176.559715 
L 155.159016 139.408798 
L 155.809627 176.559715 
L 156.460237 176.559715 
L 157.110847 171.935355 
L 157.761457 170.176457 
L 158.412068 176.559715 
L 159.062678 172.559482 
L 159.713288 152.785137 
L 160.363899 176.559715 
L 161.014509 174.559599 
L 161.665119 171.012124 
L 162.31573 169.630625 
L 162.96634 174.802691 
L 163.61695 176.559715 
L 164.267561 171.935355 
L 164.918171 169.927208 
L 165.568781 145.619141 
L 166.219392 170.801974 
L 166.870002 176.559715 
L 167.520612 169.095178 
L 168.171222 143.346473 
L 168.821833 169.531617 
L 169.472443 144.128484 
L 170.123053 164.773573 
L 170.773664 144.128484 
L 171.424274 169.630625 
L 172.074884 174.802691 
L 172.725495 173.953761 
L 173.376105 176.559715 
L 174.026715 174.559599 
L 174.677326 170.117292 
L 175.327936 173.953761 
L 175.978546 176.559715 
L 176.629156 176.559715 
L 177.279767 172.559482 
L 177.930377 172.459992 
L 178.580987 168.360268 
L 179.231598 176.559715 
L 179.882208 143.620735 
L 180.532818 173.953761 
L 181.183429 173.953761 
L 181.834039 176.559715 
L 182.484649 176.559715 
L 183.13526 173.631341 
L 183.78587 176.559715 
L 184.43648 170.702967 
L 185.087091 176.559715 
L 185.737701 174.559599 
L 186.388311 144.933274 
L 187.038921 173.953761 
L 187.689532 176.559715 
L 188.340142 176.559715 
L 188.990752 166.559132 
L 189.641363 176.559715 
L 192.894414 176.559715 
L 193.545025 168.559248 
L 194.195635 168.741853 
L 194.846245 174.802691 
L 195.496856 165.629908 
L 196.147466 140.833551 
L 196.798076 173.045666 
L 197.448686 168.887949 
L 198.099297 167.902077 
L 198.749907 171.012124 
L 199.400517 170.801974 
L 200.051128 142.572502 
L 200.701738 168.360268 
L 201.352348 171.012124 
L 202.002959 146.984081 
L 202.653569 171.288642 
L 203.304179 150.298243 
L 203.95479 170.801974 
L 204.6054 176.559715 
L 205.906621 176.559715 
L 206.557231 171.935355 
L 207.207841 174.802691 
L 207.858451 176.559715 
L 208.509062 137.487376 
L 209.159672 167.367338 
L 209.810282 145.085504 
L 210.460893 145.085504 
L 211.111503 176.559715 
L 211.762113 172.559482 
L 212.412724 145.619141 
L 213.063334 168.360268 
L 213.713944 147.531985 
L 214.364555 150.572967 
L 215.015165 145.286007 
L 215.665775 169.094724 
L 216.316385 174.802691 
L 216.966996 139.87081 
L 217.617606 174.802691 
L 218.268216 144.114657 
L 218.918827 174.802691 
L 219.569437 147.531985 
L 220.220047 163.294701 
L 220.870658 173.045666 
L 221.521268 145.286007 
L 222.171878 165.629908 
L 222.822489 137.958672 
L 223.473099 172.459992 
L 224.123709 174.802691 
L 224.77432 143.337588 
L 225.42493 176.559715 
L 226.07554 176.559715 
L 226.72615 140.17921 
L 227.376761 142.176624 
L 228.027371 174.802691 
L 228.677981 153.658267 
L 229.328592 149.002184 
L 230.629812 158.130126 
L 231.280423 153.485188 
L 231.931033 173.953761 
L 232.581643 173.045666 
L 233.232254 169.927208 
L 233.882864 172.459992 
L 234.533474 173.953761 
L 235.184085 173.953761 
L 235.834695 174.802691 
L 236.485305 171.347807 
L 237.135915 176.559715 
L 238.437136 168.360268 
L 239.087746 174.802691 
L 239.738357 173.045666 
L 240.388967 174.802691 
L 241.039577 172.459992 
L 241.690188 173.045666 
L 242.340798 172.459992 
L 242.991408 172.459992 
L 243.642019 176.559715 
L 244.292629 174.559599 
L 244.943239 173.045666 
L 245.59385 176.559715 
L 246.24446 170.559365 
L 246.89507 176.559715 
L 247.54568 144.305783 
L 248.196291 176.559715 
L 248.846901 172.559482 
L 249.497511 173.953761 
L 250.148122 174.802691 
L 250.798732 173.953761 
L 251.449342 174.802691 
L 252.099953 172.459992 
L 252.750563 176.559715 
L 253.401173 174.559599 
L 254.051784 174.802691 
L 254.702394 176.559715 
L 255.353004 172.559482 
L 256.003615 173.045666 
L 256.654225 171.347807 
L 257.304835 173.953761 
L 257.955445 174.802691 
L 258.606056 174.802691 
L 259.256666 176.559715 
L 259.907276 174.559599 
L 260.557887 174.802691 
L 261.208497 176.559715 
L 261.859107 176.559715 
L 262.509718 168.098589 
L 263.160328 172.459992 
L 263.810938 168.741853 
L 264.461549 143.135964 
L 265.112159 146.142183 
L 265.762769 176.559715 
L 266.413379 174.559599 
L 267.06399 142.898875 
L 267.7146 176.559715 
L 268.36521 176.559715 
L 269.015821 170.702967 
L 269.666431 170.559365 
L 270.317041 140.833551 
L 270.967652 147.531985 
L 271.618262 176.559715 
L 272.268872 172.559482 
L 272.919483 176.559715 
L 273.570093 164.846219 
L 274.220703 174.559599 
L 274.871314 172.025622 
L 275.521924 139.697926 
L 276.172534 145.286007 
L 276.823144 145.619141 
L 277.473755 176.559715 
L 278.774975 176.559715 
L 279.425586 174.559599 
L 280.076196 145.879917 
L 280.726806 174.802691 
L 281.377417 174.802691 
L 282.028027 173.045666 
L 282.678637 173.953761 
L 283.329248 173.045666 
L 283.979858 142.240478 
L 284.630468 176.559715 
L 285.281079 147.104013 
L 285.931689 176.559715 
L 286.582299 144.305783 
L 287.232909 164.438964 
L 287.88352 159.594689 
L 288.53413 173.045666 
L 289.18474 146.420782 
L 289.835351 143.674156 
L 290.485961 171.347807 
L 291.136571 171.288642 
L 291.787182 142.095368 
L 292.437792 167.116272 
L 293.088402 173.953761 
L 293.739013 172.459992 
L 294.389623 153.682104 
L 295.040233 144.128484 
L 295.690844 169.531617 
L 296.341454 173.045666 
L 296.992064 142.536377 
L 297.642674 170.801974 
L 298.293285 176.559715 
L 298.943895 141.419225 
L 299.594505 144.128484 
L 300.245116 143.560748 
L 300.895726 139.123606 
L 301.546336 176.559715 
L 302.196947 170.702967 
L 302.847557 146.312945 
L 303.498167 140.194982 
L 304.148778 169.927208 
L 304.799388 174.802691 
L 305.449998 152.705628 
L 306.100608 147.401651 
L 306.751219 148.025479 
L 307.401829 145.879917 
L 308.052439 166.250477 
L 308.70305 144.788934 
L 309.35366 173.953761 
L 310.00427 155.475421 
L 310.654881 144.128484 
L 311.305491 148.618788 
L 311.956101 176.559715 
L 312.606712 142.873102 
L 313.257322 142.949032 
L 313.907932 176.559715 
L 314.558543 176.559715 
L 315.209153 173.631341 
L 315.859763 176.559715 
L 316.510373 145.716386 
L 317.160984 174.802691 
L 317.811594 169.630625 
L 318.462204 176.559715 
L 319.112815 171.935355 
L 319.763425 174.802691 
L 320.414035 176.559715 
L 321.064646 174.559599 
L 321.715256 176.559715 
L 322.365866 174.559599 
L 323.016477 174.802691 
L 323.667087 176.559715 
L 324.317697 174.559599 
L 324.968308 174.802691 
L 325.618918 143.044658 
L 326.269528 168.077202 
L 326.920138 143.560748 
L 327.570749 144.933274 
L 328.221359 176.559715 
L 328.871969 174.559599 
L 329.52258 145.879917 
L 330.17319 145.879917 
L 330.8238 176.559715 
L 331.474411 171.935355 
L 332.125021 174.802691 
L 332.775631 176.559715 
L 333.426242 176.559715 
L 334.076852 173.631341 
L 334.727462 176.559715 
L 335.378073 176.559715 
L 336.028683 170.559365 
L 336.679293 174.802691 
L 337.329903 171.288642 
L 337.980514 174.802691 
L 338.631124 140.781279 
L 339.281734 176.559715 
L 339.932345 176.559715 
L 340.582955 170.559365 
L 341.233565 173.045666 
L 341.884176 172.459992 
L 342.534786 171.347807 
L 343.185396 173.953761 
L 343.836007 146.293749 
L 344.486617 166.135899 
L 345.137227 142.176608 
L 345.787837 173.953761 
L 346.438448 153.658267 
L 347.089058 165.629908 
L 347.739668 138.891182 
L 348.390279 174.802691 
L 349.040889 171.288642 
L 349.691499 169.630625 
L 350.34211 176.559715 
L 350.99272 176.559715 
L 351.64333 173.631341 
L 352.293941 172.459992 
L 352.944551 176.559715 
L 353.595161 171.935355 
L 354.245772 171.288642 
L 354.896382 139.835389 
L 355.546992 173.953761 
L 356.197602 169.927208 
L 356.848213 148.848431 
L 357.498823 170.176457 
L 358.149433 174.802691 
L 358.800044 172.459992 
L 359.450654 171.347807 
L 360.101264 176.559715 
L 360.751875 174.559599 
L 361.402485 167.491528 
L 362.053095 172.459992 
L 362.703706 146.420782 
L 363.354316 168.741853 
L 364.004926 172.459992 
L 364.655537 169.531617 
L 365.306147 143.346473 
L 365.956757 172.025622 
L 366.607367 174.802691 
L 367.257978 168.360268 
L 367.908588 169.531617 
L 369.209809 173.045666 
L 369.860419 173.045666 
L 370.511029 169.927208 
L 371.16164 176.559715 
L 371.81225 173.095412 
L 372.46286 173.045666 
L 373.113471 172.459992 
L 373.764081 168.360268 
L 374.414691 170.423468 
L 375.065302 169.531617 
L 375.715912 144.788934 
L 376.366522 176.559715 
L 377.017132 176.559715 
L 377.667743 168.098589 
L 378.318353 176.559715 
L 378.968963 171.935355 
L 379.619574 176.559715 
L 380.270184 170.471168 
L 380.920794 142.349604 
L 381.571405 170.801974 
L 382.222015 172.459992 
L 382.872625 172.025622 
L 383.523236 174.802691 
L 384.173846 176.559715 
L 385.475066 167.902077 
L 386.125677 167.902077 
L 386.776287 170.801974 
L 387.426897 142.536377 
L 388.077508 176.559715 
L 388.728118 168.098589 
L 389.378728 174.802691 
L 390.029339 139.799994 
L 390.679949 171.347807 
L 391.330559 176.559715 
L 391.98117 170.559365 
L 392.63178 144.128484 
L 393.28239 169.094724 
L 393.933001 171.288642 
L 394.583611 171.288642 
L 395.234221 172.459992 
L 395.884831 173.045666 
L 396.535442 165.431894 
L 397.186052 169.927208 
L 397.836662 169.094724 
L 398.487273 176.559715 
L 398.487273 176.559715 
" style="fill:none;stroke:#008000;stroke-dasharray:9.6,2.4,1.5,2.4;stroke-dashoffset:0;stroke-width:1.5;"/>
   </g>
   <g id="line2d_26">
    <path clip-path="url(#pdc769ac1ab)" d="M 73.832727 59.424748 
L 74.483338 158.98947 
L 75.133948 141.419225 
L 75.784558 94.565238 
L 76.435169 88.70849 
L 77.085779 135.562477 
L 77.736389 53.568 
L 78.386999 161.917845 
L 79.03761 144.3476 
L 79.68822 94.565238 
L 80.33883 123.84898 
L 80.989441 132.634103 
L 81.640051 176.559715 
L 82.290661 100.421987 
L 82.941272 53.568 
L 83.591882 170.702967 
L 84.242492 117.992232 
L 84.893103 138.490851 
L 85.543713 123.84898 
L 86.194323 153.132722 
L 86.844934 138.490851 
L 87.495544 129.705729 
L 88.146154 129.705729 
L 88.796764 74.066619 
L 89.447375 164.846219 
L 90.097985 106.278735 
L 90.748595 112.135484 
L 91.399206 170.702967 
L 92.049816 158.98947 
L 92.700426 153.132722 
L 93.351037 153.132722 
L 94.001647 147.275974 
L 94.652257 164.846219 
L 95.302868 170.702967 
L 95.953478 141.419225 
L 96.604088 147.275974 
L 97.254698 170.702967 
L 97.905309 164.846219 
L 98.555919 176.559715 
L 99.206529 161.917845 
L 99.85714 161.917845 
L 100.50775 164.846219 
L 101.15836 176.559715 
L 101.808971 170.702967 
L 102.459581 167.774593 
L 103.110191 153.132722 
L 103.760802 141.419225 
L 104.411412 173.631341 
L 105.062022 141.419225 
L 105.712633 147.275974 
L 106.363243 173.631341 
L 107.013853 170.702967 
L 107.664463 153.132722 
L 108.315074 141.419225 
L 108.965684 161.917845 
L 109.616294 161.917845 
L 110.266905 164.846219 
L 110.917515 135.562477 
L 111.568125 117.992232 
L 112.218736 176.559715 
L 112.869346 144.3476 
L 113.519956 164.846219 
L 114.170567 158.98947 
L 115.471787 123.84898 
L 116.122398 150.204348 
L 116.773008 170.702967 
L 117.423618 164.846219 
L 118.074228 144.3476 
L 118.724839 117.992232 
L 119.375449 132.634103 
L 120.026059 120.920606 
L 120.67667 173.631341 
L 121.32728 176.559715 
L 121.97789 170.702967 
L 122.628501 153.132722 
L 123.279111 156.061096 
L 123.929721 170.702967 
L 124.580332 138.490851 
L 125.230942 158.98947 
L 125.881552 170.702967 
L 126.532163 141.419225 
L 127.182773 164.846219 
L 127.833383 170.702967 
L 128.483993 138.490851 
L 129.134604 153.132722 
L 129.785214 170.702967 
L 130.435824 161.917845 
L 131.086435 167.774593 
L 131.737045 170.702967 
L 132.387655 167.774593 
L 133.038266 167.774593 
L 133.688876 170.702967 
L 134.339486 123.84898 
L 134.990097 170.702967 
L 135.640707 115.063858 
L 136.291317 167.774593 
L 136.941927 147.275974 
L 137.592538 167.774593 
L 138.243148 164.846219 
L 138.893758 176.559715 
L 140.194979 164.846219 
L 140.845589 167.774593 
L 142.79742 167.774593 
L 144.098641 173.631341 
L 144.749251 167.774593 
L 145.399862 176.559715 
L 146.701082 170.702967 
L 147.351692 164.846219 
L 148.002303 150.204348 
L 148.652913 147.275974 
L 149.303523 176.559715 
L 149.954134 173.631341 
L 150.604744 164.846219 
L 151.255354 176.559715 
L 151.905965 164.846219 
L 152.556575 164.846219 
L 153.207185 176.559715 
L 153.857796 170.702967 
L 154.508406 176.559715 
L 155.159016 141.419225 
L 155.809627 176.559715 
L 156.460237 176.559715 
L 157.110847 170.702967 
L 157.761457 170.702967 
L 158.412068 176.559715 
L 159.062678 170.702967 
L 159.713288 170.702967 
L 160.363899 176.559715 
L 162.31573 167.774593 
L 162.96634 173.631341 
L 163.61695 176.559715 
L 164.267561 170.702967 
L 164.918171 167.774593 
L 165.568781 150.204348 
L 166.219392 167.774593 
L 166.870002 176.559715 
L 167.520612 167.774593 
L 168.171222 144.3476 
L 168.821833 164.846219 
L 169.472443 144.3476 
L 170.123053 164.846219 
L 170.773664 144.3476 
L 171.424274 167.774593 
L 172.074884 173.631341 
L 172.725495 173.631341 
L 173.376105 176.559715 
L 174.677326 170.702967 
L 175.978546 176.559715 
L 176.629156 176.559715 
L 177.279767 170.702967 
L 177.930377 170.702967 
L 178.580987 164.846219 
L 179.231598 176.559715 
L 179.882208 150.204348 
L 180.532818 173.631341 
L 181.183429 173.631341 
L 181.834039 176.559715 
L 182.484649 176.559715 
L 183.13526 173.631341 
L 183.78587 176.559715 
L 184.43648 170.702967 
L 185.087091 176.559715 
L 185.737701 173.631341 
L 186.388311 123.84898 
L 187.038921 173.631341 
L 187.689532 176.559715 
L 188.340142 176.559715 
L 188.990752 161.917845 
L 189.641363 176.559715 
L 192.894414 176.559715 
L 193.545025 164.846219 
L 194.195635 164.846219 
L 194.846245 173.631341 
L 196.147466 144.3476 
L 196.798076 170.702967 
L 197.448686 167.774593 
L 198.099297 167.774593 
L 198.749907 170.702967 
L 199.400517 167.774593 
L 200.051128 144.3476 
L 200.701738 164.846219 
L 201.352348 170.702967 
L 202.002959 156.061096 
L 202.653569 167.774593 
L 203.304179 135.562477 
L 203.95479 167.774593 
L 204.6054 176.559715 
L 205.906621 176.559715 
L 206.557231 170.702967 
L 207.858451 176.559715 
L 208.509062 135.562477 
L 209.159672 161.917845 
L 209.810282 153.132722 
L 210.460893 153.132722 
L 211.111503 176.559715 
L 211.762113 170.702967 
L 212.412724 150.204348 
L 213.063334 164.846219 
L 213.713944 153.132722 
L 214.364555 153.132722 
L 215.015165 147.275974 
L 215.665775 164.846219 
L 216.316385 173.631341 
L 216.966996 141.419225 
L 217.617606 173.631341 
L 218.268216 153.132722 
L 218.918827 173.631341 
L 219.569437 153.132722 
L 220.220047 158.98947 
L 220.870658 170.702967 
L 221.521268 147.275974 
L 222.171878 158.98947 
L 222.822489 109.207109 
L 223.473099 170.702967 
L 224.123709 173.631341 
L 224.77432 153.132722 
L 225.42493 176.559715 
L 226.07554 176.559715 
L 226.72615 147.275974 
L 227.376761 141.419225 
L 228.027371 173.631341 
L 228.677981 170.702967 
L 229.328592 161.917845 
L 229.979202 173.631341 
L 230.629812 156.061096 
L 231.280423 147.275974 
L 231.931033 173.631341 
L 233.232254 167.774593 
L 234.533474 173.631341 
L 235.834695 173.631341 
L 236.485305 170.702967 
L 237.135915 176.559715 
L 238.437136 164.846219 
L 239.087746 173.631341 
L 239.738357 170.702967 
L 240.388967 173.631341 
L 241.039577 170.702967 
L 242.991408 170.702967 
L 243.642019 176.559715 
L 244.943239 170.702967 
L 245.59385 176.559715 
L 246.24446 167.774593 
L 246.89507 176.559715 
L 247.54568 147.275974 
L 248.196291 176.559715 
L 248.846901 170.702967 
L 249.497511 173.631341 
L 251.449342 173.631341 
L 252.099953 170.702967 
L 252.750563 176.559715 
L 253.401173 173.631341 
L 254.051784 173.631341 
L 254.702394 176.559715 
L 255.353004 170.702967 
L 256.654225 170.702967 
L 257.304835 173.631341 
L 258.606056 173.631341 
L 259.256666 176.559715 
L 259.907276 173.631341 
L 260.557887 173.631341 
L 261.208497 176.559715 
L 261.859107 176.559715 
L 262.509718 164.846219 
L 263.160328 170.702967 
L 263.810938 167.774593 
L 264.461549 123.84898 
L 265.112159 156.061096 
L 265.762769 176.559715 
L 266.413379 173.631341 
L 267.06399 147.275974 
L 267.7146 176.559715 
L 268.36521 176.559715 
L 269.015821 170.702967 
L 269.666431 167.774593 
L 270.317041 144.3476 
L 270.967652 153.132722 
L 271.618262 176.559715 
L 272.268872 170.702967 
L 272.919483 176.559715 
L 273.570093 164.846219 
L 274.220703 173.631341 
L 274.871314 170.702967 
L 275.521924 147.275974 
L 276.172534 147.275974 
L 276.823144 150.204348 
L 277.473755 176.559715 
L 278.774975 176.559715 
L 279.425586 173.631341 
L 280.076196 153.132722 
L 280.726806 173.631341 
L 281.377417 173.631341 
L 282.028027 170.702967 
L 282.678637 173.631341 
L 283.329248 170.702967 
L 283.979858 153.132722 
L 284.630468 176.559715 
L 285.281079 153.132722 
L 285.931689 176.559715 
L 286.582299 147.275974 
L 287.232909 161.917845 
L 287.88352 153.132722 
L 288.53413 170.702967 
L 289.18474 150.204348 
L 289.835351 147.275974 
L 290.485961 170.702967 
L 291.136571 167.774593 
L 291.787182 147.275974 
L 292.437792 164.846219 
L 293.088402 173.631341 
L 293.739013 170.702967 
L 294.389623 123.84898 
L 295.690844 164.846219 
L 296.341454 170.702967 
L 296.992064 144.3476 
L 297.642674 167.774593 
L 298.293285 176.559715 
L 298.943895 141.419225 
L 299.594505 144.3476 
L 300.245116 120.920606 
L 300.895726 120.920606 
L 301.546336 176.559715 
L 302.196947 170.702967 
L 302.847557 156.061096 
L 303.498167 138.490851 
L 304.148778 167.774593 
L 304.799388 173.631341 
L 305.449998 167.774593 
L 306.100608 164.846219 
L 307.401829 153.132722 
L 308.052439 161.917845 
L 308.70305 150.204348 
L 309.35366 173.631341 
L 310.00427 176.559715 
L 310.654881 144.3476 
L 311.305491 156.061096 
L 311.956101 176.559715 
L 312.606712 144.3476 
L 313.257322 141.419225 
L 313.907932 176.559715 
L 314.558543 176.559715 
L 315.209153 173.631341 
L 315.859763 176.559715 
L 316.510373 150.204348 
L 317.160984 173.631341 
L 317.811594 167.774593 
L 318.462204 176.559715 
L 319.112815 170.702967 
L 320.414035 176.559715 
L 321.064646 173.631341 
L 321.715256 176.559715 
L 322.365866 173.631341 
L 323.016477 173.631341 
L 323.667087 176.559715 
L 324.317697 173.631341 
L 324.968308 173.631341 
L 325.618918 150.204348 
L 326.269528 164.846219 
L 326.920138 120.920606 
L 327.570749 123.84898 
L 328.221359 176.559715 
L 328.871969 173.631341 
L 329.52258 153.132722 
L 330.17319 153.132722 
L 330.8238 176.559715 
L 331.474411 170.702967 
L 332.775631 176.559715 
L 333.426242 176.559715 
L 334.076852 173.631341 
L 334.727462 176.559715 
L 335.378073 176.559715 
L 336.028683 167.774593 
L 336.679293 173.631341 
L 337.329903 167.774593 
L 337.980514 173.631341 
L 338.631124 115.063858 
L 339.281734 176.559715 
L 339.932345 176.559715 
L 340.582955 167.774593 
L 341.233565 170.702967 
L 342.534786 170.702967 
L 343.185396 173.631341 
L 343.836007 126.777354 
L 344.486617 164.846219 
L 345.137227 117.992232 
L 345.787837 173.631341 
L 346.438448 170.702967 
L 347.739668 147.275974 
L 348.390279 173.631341 
L 349.040889 167.774593 
L 349.691499 167.774593 
L 350.34211 176.559715 
L 350.99272 176.559715 
L 352.293941 170.702967 
L 352.944551 176.559715 
L 353.595161 170.702967 
L 354.245772 167.774593 
L 354.896382 141.419225 
L 355.546992 173.631341 
L 356.197602 167.774593 
L 356.848213 158.98947 
L 357.498823 170.702967 
L 358.149433 173.631341 
L 358.800044 170.702967 
L 359.450654 170.702967 
L 360.101264 176.559715 
L 360.751875 173.631341 
L 361.402485 164.846219 
L 362.053095 170.702967 
L 362.703706 150.204348 
L 363.354316 167.774593 
L 364.004926 170.702967 
L 364.655537 164.846219 
L 365.306147 144.3476 
L 365.956757 170.702967 
L 366.607367 173.631341 
L 367.257978 164.846219 
L 367.908588 164.846219 
L 369.209809 170.702967 
L 369.860419 170.702967 
L 370.511029 167.774593 
L 371.16164 176.559715 
L 372.46286 170.702967 
L 373.113471 170.702967 
L 373.764081 164.846219 
L 374.414691 167.774593 
L 375.065302 164.846219 
L 375.715912 150.204348 
L 376.366522 176.559715 
L 377.017132 176.559715 
L 377.667743 164.846219 
L 378.318353 176.559715 
L 378.968963 170.702967 
L 379.619574 176.559715 
L 380.270184 170.702967 
L 380.920794 150.204348 
L 381.571405 167.774593 
L 382.222015 170.702967 
L 382.872625 170.702967 
L 384.173846 176.559715 
L 384.824456 170.702967 
L 386.125677 164.846219 
L 386.776287 167.774593 
L 387.426897 144.3476 
L 388.077508 176.559715 
L 388.728118 164.846219 
L 389.378728 173.631341 
L 390.029339 141.419225 
L 390.679949 170.702967 
L 391.330559 176.559715 
L 391.98117 167.774593 
L 392.63178 144.3476 
L 393.28239 164.846219 
L 393.933001 167.774593 
L 394.583611 167.774593 
L 395.234221 170.702967 
L 395.884831 170.702967 
L 396.535442 161.917845 
L 397.186052 167.774593 
L 397.836662 164.846219 
L 398.487273 176.559715 
L 398.487273 176.559715 
" style="fill:none;stroke:#ff0000;stroke-linecap:square;stroke-width:1.5;"/>
   </g>
   <g id="patch_3">
    <path d="M 57.6 307.584 
L 57.6 41.472 
" style="fill:none;stroke:#000000;stroke-linecap:square;stroke-linejoin:miter;stroke-width:0.8;"/>
   </g>
   <g id="patch_4">
    <path d="M 414.72 307.584 
L 414.72 41.472 
" style="fill:none;stroke:#000000;stroke-linecap:square;stroke-linejoin:miter;stroke-width:0.8;"/>
   </g>
   <g id="patch_5">
    <path d="M 57.6 307.584 
L 414.72 307.584 
" style="fill:none;stroke:#000000;stroke-linecap:square;stroke-linejoin:miter;stroke-width:0.8;"/>
   </g>
   <g id="patch_6">
    <path d="M 57.6 41.472 
L 414.72 41.472 
" style="fill:none;stroke:#000000;stroke-linecap:square;stroke-linejoin:miter;stroke-width:0.8;"/>
   </g>
   <g id="text_14">
    <!-- Population's average and best fitness -->
    <g transform="translate(123.529687 35.472)scale(0.12 -0.12)">
     <defs>
      <path d="M 1259 4147 
L 1259 2394 
L 2053 2394 
Q 2494 2394 2734 2622 
Q 2975 2850 2975 3272 
Q 2975 3691 2734 3919 
Q 2494 4147 2053 4147 
L 1259 4147 
z
M 628 4666 
L 2053 4666 
Q 2838 4666 3239 4311 
Q 3641 3956 3641 3272 
Q 3641 2581 3239 2228 
Q 2838 1875 2053 1875 
L 1259 1875 
L 1259 0 
L 628 0 
L 628 4666 
z
" id="DejaVuSans-50" transform="scale(0.015625)"/>
      <path d="M 1159 525 
L 1159 -1331 
L 581 -1331 
L 581 3500 
L 1159 3500 
L 1159 2969 
Q 1341 3281 1617 3432 
Q 1894 3584 2278 3584 
Q 2916 3584 3314 3078 
Q 3713 2572 3713 1747 
Q 3713 922 3314 415 
Q 2916 -91 2278 -91 
Q 1894 -91 1617 61 
Q 1341 213 1159 525 
z
M 3116 1747 
Q 3116 2381 2855 2742 
Q 2594 3103 2138 3103 
Q 1681 3103 1420 2742 
Q 1159 2381 1159 1747 
Q 1159 1113 1420 752 
Q 1681 391 2138 391 
Q 2594 391 2855 752 
Q 3116 1113 3116 1747 
z
" id="DejaVuSans-70" transform="scale(0.015625)"/>
      <path d="M 544 1381 
L 544 3500 
L 1119 3500 
L 1119 1403 
Q 1119 906 1312 657 
Q 1506 409 1894 409 
Q 2359 409 2629 706 
Q 2900 1003 2900 1516 
L 2900 3500 
L 3475 3500 
L 3475 0 
L 2900 0 
L 2900 538 
Q 2691 219 2414 64 
Q 2138 -91 1772 -91 
Q 1169 -91 856 284 
Q 544 659 544 1381 
z
M 1991 3584 
L 1991 3584 
z
" id="DejaVuSans-75" transform="scale(0.015625)"/>
      <path d="M 603 4863 
L 1178 4863 
L 1178 0 
L 603 0 
L 603 4863 
z
" id="DejaVuSans-6c" transform="scale(0.015625)"/>
      <path d="M 1147 4666 
L 1147 2931 
L 616 2931 
L 616 4666 
L 1147 4666 
z
" id="DejaVuSans-27" transform="scale(0.015625)"/>
      <path id="DejaVuSans-20" transform="scale(0.015625)"/>
      <path d="M 191 3500 
L 800 3500 
L 1894 563 
L 2988 3500 
L 3597 3500 
L 2284 0 
L 1503 0 
L 191 3500 
z
" id="DejaVuSans-76" transform="scale(0.015625)"/>
      <path d="M 2906 1791 
Q 2906 2416 2648 2759 
Q 2391 3103 1925 3103 
Q 1463 3103 1205 2759 
Q 947 2416 947 1791 
Q 947 1169 1205 825 
Q 1463 481 1925 481 
Q 2391 481 2648 825 
Q 2906 1169 2906 1791 
z
M 3481 434 
Q 3481 -459 3084 -895 
Q 2688 -1331 1869 -1331 
Q 1566 -1331 1297 -1286 
Q 1028 -1241 775 -1147 
L 775 -588 
Q 1028 -725 1275 -790 
Q 1522 -856 1778 -856 
Q 2344 -856 2625 -561 
Q 2906 -266 2906 331 
L 2906 616 
Q 2728 306 2450 153 
Q 2172 0 1784 0 
Q 1141 0 747 490 
Q 353 981 353 1791 
Q 353 2603 747 3093 
Q 1141 3584 1784 3584 
Q 2172 3584 2450 3431 
Q 2728 3278 2906 2969 
L 2906 3500 
L 3481 3500 
L 3481 434 
z
" id="DejaVuSans-67" transform="scale(0.015625)"/>
      <path d="M 2906 2969 
L 2906 4863 
L 3481 4863 
L 3481 0 
L 2906 0 
L 2906 525 
Q 2725 213 2448 61 
Q 2172 -91 1784 -91 
Q 1150 -91 751 415 
Q 353 922 353 1747 
Q 353 2572 751 3078 
Q 1150 3584 1784 3584 
Q 2172 3584 2448 3432 
Q 2725 3281 2906 2969 
z
M 947 1747 
Q 947 1113 1208 752 
Q 1469 391 1925 391 
Q 2381 391 2643 752 
Q 2906 1113 2906 1747 
Q 2906 2381 2643 2742 
Q 2381 3103 1925 3103 
Q 1469 3103 1208 2742 
Q 947 2381 947 1747 
z
" id="DejaVuSans-64" transform="scale(0.015625)"/>
      <path d="M 3116 1747 
Q 3116 2381 2855 2742 
Q 2594 3103 2138 3103 
Q 1681 3103 1420 2742 
Q 1159 2381 1159 1747 
Q 1159 1113 1420 752 
Q 1681 391 2138 391 
Q 2594 391 2855 752 
Q 3116 1113 3116 1747 
z
M 1159 2969 
Q 1341 3281 1617 3432 
Q 1894 3584 2278 3584 
Q 2916 3584 3314 3078 
Q 3713 2572 3713 1747 
Q 3713 922 3314 415 
Q 2916 -91 2278 -91 
Q 1894 -91 1617 61 
Q 1341 213 1159 525 
L 1159 0 
L 581 0 
L 581 4863 
L 1159 4863 
L 1159 2969 
z
" id="DejaVuSans-62" transform="scale(0.015625)"/>
      <path d="M 2375 4863 
L 2375 4384 
L 1825 4384 
Q 1516 4384 1395 4259 
Q 1275 4134 1275 3809 
L 1275 3500 
L 2222 3500 
L 2222 3053 
L 1275 3053 
L 1275 0 
L 697 0 
L 697 3053 
L 147 3053 
L 147 3500 
L 697 3500 
L 697 3744 
Q 697 4328 969 4595 
Q 1241 4863 1831 4863 
L 2375 4863 
z
" id="DejaVuSans-66" transform="scale(0.015625)"/>
     </defs>
     <use xlink:href="#DejaVuSans-50"/>
     <use x="56.677734" xlink:href="#DejaVuSans-6f"/>
     <use x="117.859375" xlink:href="#DejaVuSans-70"/>
     <use x="181.335938" xlink:href="#DejaVuSans-75"/>
     <use x="244.714844" xlink:href="#DejaVuSans-6c"/>
     <use x="272.498047" xlink:href="#DejaVuSans-61"/>
     <use x="333.777344" xlink:href="#DejaVuSans-74"/>
     <use x="372.986328" xlink:href="#DejaVuSans-69"/>
     <use x="400.769531" xlink:href="#DejaVuSans-6f"/>
     <use x="461.951172" xlink:href="#DejaVuSans-6e"/>
     <use x="525.330078" xlink:href="#DejaVuSans-27"/>
     <use x="552.820312" xlink:href="#DejaVuSans-73"/>
     <use x="604.919922" xlink:href="#DejaVuSans-20"/>
     <use x="636.707031" xlink:href="#DejaVuSans-61"/>
     <use x="697.986328" xlink:href="#DejaVuSans-76"/>
     <use x="757.166016" xlink:href="#DejaVuSans-65"/>
     <use x="818.689453" xlink:href="#DejaVuSans-72"/>
     <use x="859.802734" xlink:href="#DejaVuSans-61"/>
     <use x="921.082031" xlink:href="#DejaVuSans-67"/>
     <use x="984.558594" xlink:href="#DejaVuSans-65"/>
     <use x="1046.082031" xlink:href="#DejaVuSans-20"/>
     <use x="1077.869141" xlink:href="#DejaVuSans-61"/>
     <use x="1139.148438" xlink:href="#DejaVuSans-6e"/>
     <use x="1202.527344" xlink:href="#DejaVuSans-64"/>
     <use x="1266.003906" xlink:href="#DejaVuSans-20"/>
     <use x="1297.791016" xlink:href="#DejaVuSans-62"/>
     <use x="1361.267578" xlink:href="#DejaVuSans-65"/>
     <use x="1422.791016" xlink:href="#DejaVuSans-73"/>
     <use x="1474.890625" xlink:href="#DejaVuSans-74"/>
     <use x="1514.099609" xlink:href="#DejaVuSans-20"/>
     <use x="1545.886719" xlink:href="#DejaVuSans-66"/>
     <use x="1581.091797" xlink:href="#DejaVuSans-69"/>
     <use x="1608.875" xlink:href="#DejaVuSans-74"/>
     <use x="1648.083984" xlink:href="#DejaVuSans-6e"/>
     <use x="1711.462891" xlink:href="#DejaVuSans-65"/>
     <use x="1772.986328" xlink:href="#DejaVuSans-73"/>
     <use x="1825.085938" xlink:href="#DejaVuSans-73"/>
    </g>
   </g>
   <g id="legend_1">
    <g id="patch_7">
     <path d="M 334.779375 108.1845 
L 407.72 108.1845 
Q 409.72 108.1845 409.72 106.1845 
L 409.72 48.472 
Q 409.72 46.472 407.72 46.472 
L 334.779375 46.472 
Q 332.779375 46.472 332.779375 48.472 
L 332.779375 106.1845 
Q 332.779375 108.1845 334.779375 108.1845 
z
" style="fill:#ffffff;opacity:0.8;stroke:#cccccc;stroke-linejoin:miter;"/>
    </g>
    <g id="line2d_27">
     <path d="M 336.779375 54.570438 
L 356.779375 54.570438 
" style="fill:none;stroke:#0000ff;stroke-linecap:square;stroke-width:1.5;"/>
    </g>
    <g id="line2d_28"/>
    <g id="text_15">
     <!-- average -->
     <g transform="translate(364.779375 58.070438)scale(0.1 -0.1)">
      <use xlink:href="#DejaVuSans-61"/>
      <use x="61.279297" xlink:href="#DejaVuSans-76"/>
      <use x="120.458984" xlink:href="#DejaVuSans-65"/>
      <use x="181.982422" xlink:href="#DejaVuSans-72"/>
      <use x="223.095703" xlink:href="#DejaVuSans-61"/>
      <use x="284.375" xlink:href="#DejaVuSans-67"/>
      <use x="347.851562" xlink:href="#DejaVuSans-65"/>
     </g>
    </g>
    <g id="line2d_29">
     <path d="M 336.779375 69.248563 
L 356.779375 69.248563 
" style="fill:none;stroke:#008000;stroke-dasharray:9.6,2.4,1.5,2.4;stroke-dashoffset:0;stroke-width:1.5;"/>
    </g>
    <g id="line2d_30"/>
    <g id="text_16">
     <!-- -1 sd -->
     <g transform="translate(364.779375 72.748563)scale(0.1 -0.1)">
      <defs>
       <path d="M 313 2009 
L 1997 2009 
L 1997 1497 
L 313 1497 
L 313 2009 
z
" id="DejaVuSans-2d" transform="scale(0.015625)"/>
      </defs>
      <use xlink:href="#DejaVuSans-2d"/>
      <use x="36.083984" xlink:href="#DejaVuSans-31"/>
      <use x="99.707031" xlink:href="#DejaVuSans-20"/>
      <use x="131.494141" xlink:href="#DejaVuSans-73"/>
      <use x="183.59375" xlink:href="#DejaVuSans-64"/>
     </g>
    </g>
    <g id="line2d_31">
     <path d="M 336.779375 83.926688 
L 356.779375 83.926688 
" style="fill:none;stroke:#008000;stroke-dasharray:9.6,2.4,1.5,2.4;stroke-dashoffset:0;stroke-width:1.5;"/>
    </g>
    <g id="line2d_32"/>
    <g id="text_17">
     <!-- +1 sd -->
     <g transform="translate(364.779375 87.426688)scale(0.1 -0.1)">
      <defs>
       <path d="M 2944 4013 
L 2944 2272 
L 4684 2272 
L 4684 1741 
L 2944 1741 
L 2944 0 
L 2419 0 
L 2419 1741 
L 678 1741 
L 678 2272 
L 2419 2272 
L 2419 4013 
L 2944 4013 
z
" id="DejaVuSans-2b" transform="scale(0.015625)"/>
      </defs>
      <use xlink:href="#DejaVuSans-2b"/>
      <use x="83.789062" xlink:href="#DejaVuSans-31"/>
      <use x="147.412109" xlink:href="#DejaVuSans-20"/>
      <use x="179.199219" xlink:href="#DejaVuSans-73"/>
      <use x="231.298828" xlink:href="#DejaVuSans-64"/>
     </g>
    </g>
    <g id="line2d_33">
     <path d="M 336.779375 98.604813 
L 356.779375 98.604813 
" style="fill:none;stroke:#ff0000;stroke-linecap:square;stroke-width:1.5;"/>
    </g>
    <g id="line2d_34"/>
    <g id="text_18">
     <!-- best -->
     <g transform="translate(364.779375 102.104813)scale(0.1 -0.1)">
      <use xlink:href="#DejaVuSans-62"/>
      <use x="63.476562" xlink:href="#DejaVuSans-65"/>
      <use x="125" xlink:href="#DejaVuSans-73"/>
      <use x="177.099609" xlink:href="#DejaVuSans-74"/>
     </g>
    </g>
   </g>
  </g>
 </g>
 <defs>
  <clipPath id="pdc769ac1ab">
   <rect height="266.112" width="357.12" x="57.6" y="41.472"/>
  </clipPath>
 </defs>
</svg>
