<?xml version="1.0" encoding="UTF-8" standalone="no"?>
<!DOCTYPE svg PUBLIC "-//W3C//DTD SVG 1.1//EN"
 "http://www.w3.org/Graphics/SVG/1.1/DTD/svg11.dtd">
<!-- Generated by graphviz version 2.47.0 (20210316.0004)
 -->
<!-- Pages: 1 -->
<svg width="2595pt" height="624pt"
 viewBox="0.00 0.00 2594.88 623.71" xmlns="http://www.w3.org/2000/svg" xmlns:xlink="http://www.w3.org/1999/xlink">
<g id="graph0" class="graph" transform="scale(1 1) rotate(0) translate(4 619.71)">
<polygon fill="white" stroke="transparent" points="-4,4 -4,-619.71 2590.88,-619.71 2590.88,4 -4,4"/>
<!-- &#45;1 -->
<g id="node1" class="node">
<title>&#45;1</title>
<polygon fill="lightgray" stroke="black" points="688.88,-401.13 664.88,-401.13 664.88,-383.13 688.88,-383.13 688.88,-401.13"/>
<text text-anchor="middle" x="676.88" y="-389.93" font-family="Times New Roman,serif" font-size="9.00">&#45;1</text>
</g>
<!-- 46 -->
<g id="node27" class="node">
<title>46</title>
<ellipse fill="white" stroke="black" cx="1198.88" cy="-316.53" rx="18.27" ry="18.27"/>
<text text-anchor="middle" x="1198.88" y="-314.33" font-family="Times New Roman,serif" font-size="9.00">46</text>
</g>
<!-- &#45;1&#45;&gt;46 -->
<g id="edge70" class="edge">
<title>&#45;1&#45;&gt;46</title>
<path fill="none" stroke="red" stroke-width="0.66" d="M689.02,-389.42C755.26,-380.08 1073.8,-335.17 1170.79,-321.49"/>
<polygon fill="red" stroke="red" stroke-width="0.66" points="1171.33,-324.95 1180.74,-320.09 1170.35,-318.02 1171.33,-324.95"/>
</g>
<!-- 48 -->
<g id="node28" class="node">
<title>48</title>
<ellipse fill="white" stroke="black" cx="1520.88" cy="-238.11" rx="18.27" ry="18.27"/>
<text text-anchor="middle" x="1520.88" y="-235.91" font-family="Times New Roman,serif" font-size="9.00">48</text>
</g>
<!-- &#45;1&#45;&gt;48 -->
<g id="edge95" class="edge">
<title>&#45;1&#45;&gt;48</title>
<path fill="none" stroke="red" stroke-width="0.43" d="M689.09,-387.4C735.79,-373.26 907.86,-322.39 1052.88,-295.32 1138.41,-279.36 1404.72,-251.13 1492.5,-242.03"/>
<polygon fill="red" stroke="red" stroke-width="0.43" points="1492.94,-245.5 1502.53,-240.99 1492.22,-238.54 1492.94,-245.5"/>
</g>
<!-- 51 -->
<g id="node31" class="node">
<title>51</title>
<ellipse fill="white" stroke="black" cx="437.88" cy="-84.08" rx="18.27" ry="18.27"/>
<text text-anchor="middle" x="437.88" y="-81.88" font-family="Times New Roman,serif" font-size="9.00">51</text>
</g>
<!-- &#45;1&#45;&gt;51 -->
<g id="edge93" class="edge">
<title>&#45;1&#45;&gt;51</title>
<path fill="none" stroke="red" stroke-width="0.19" d="M664.59,-389.81C601.77,-383.01 318.96,-351.7 306.88,-337.75 247.44,-269.11 290.09,-205 351.88,-138.47 368.89,-120.16 393.54,-105.72 412.09,-96.5"/>
<polygon fill="red" stroke="red" stroke-width="0.19" points="413.65,-99.63 421.17,-92.16 410.64,-93.31 413.65,-99.63"/>
</g>
<!-- 102 -->
<g id="node38" class="node">
<title>102</title>
<ellipse fill="white" stroke="black" cx="393.88" cy="-159.68" rx="21.43" ry="21.43"/>
<text text-anchor="middle" x="393.88" y="-157.48" font-family="Times New Roman,serif" font-size="9.00">102</text>
</g>
<!-- &#45;1&#45;&gt;102 -->
<g id="edge122" class="edge">
<title>&#45;1&#45;&gt;102</title>
<path fill="none" stroke="green" stroke-width="0.12" d="M664.6,-389.69C604.31,-382.55 342.08,-350.81 330.88,-337.75 295.92,-296.97 308.92,-265.91 330.88,-216.89 338.35,-200.21 353.49,-186.45 367.06,-176.71"/>
<polygon fill="green" stroke="green" stroke-width="0.12" points="369.32,-179.41 375.65,-170.91 365.4,-173.61 369.32,-179.41"/>
</g>
<!-- &#45;2 -->
<g id="node2" class="node">
<title>&#45;2</title>
<polygon fill="lightgray" stroke="black" points="1650.88,-401.13 1626.88,-401.13 1626.88,-383.13 1650.88,-383.13 1650.88,-401.13"/>
<text text-anchor="middle" x="1638.88" y="-389.93" font-family="Times New Roman,serif" font-size="9.00">&#45;2</text>
</g>
<!-- 42 -->
<g id="node24" class="node">
<title>42</title>
<ellipse fill="white" stroke="black" cx="1688.88" cy="-238.11" rx="18.27" ry="18.27"/>
<text text-anchor="middle" x="1688.88" y="-235.91" font-family="Times New Roman,serif" font-size="9.00">42</text>
</g>
<!-- &#45;2&#45;&gt;42 -->
<g id="edge11" class="edge">
<title>&#45;2&#45;&gt;42</title>
<path fill="none" stroke="green" stroke-width="1.95" d="M1651.1,-390.62C1698.53,-388.33 1869.45,-377.43 1901.88,-337.75 1913.81,-323.15 1913.84,-309.9 1901.88,-295.32 1849.85,-231.92 1797.05,-289.73 1720.88,-259.32 1717.92,-258.14 1714.94,-256.68 1712.05,-255.1"/>
<polygon fill="green" stroke="green" stroke-width="1.95" points="1713.61,-251.95 1703.25,-249.76 1709.99,-257.94 1713.61,-251.95"/>
</g>
<!-- 45 -->
<g id="node26" class="node">
<title>45</title>
<ellipse fill="white" stroke="black" cx="2109.88" cy="-159.68" rx="18.27" ry="18.27"/>
<text text-anchor="middle" x="2109.88" y="-157.48" font-family="Times New Roman,serif" font-size="9.00">45</text>
</g>
<!-- &#45;2&#45;&gt;45 -->
<g id="edge46" class="edge">
<title>&#45;2&#45;&gt;45</title>
<path fill="none" stroke="green" stroke-width="0.8" d="M1651.07,-390.4C1729.84,-385.59 2164.34,-358.2 2182.88,-337.75 2201.54,-317.17 2172.06,-230.03 2164.88,-216.89 2156.77,-202.05 2143.62,-188.4 2132.22,-178.27"/>
<polygon fill="green" stroke="green" stroke-width="0.8" points="2134.2,-175.37 2124.32,-171.55 2129.67,-180.7 2134.2,-175.37"/>
</g>
<!-- &#45;2&#45;&gt;46 -->
<g id="edge58" class="edge">
<title>&#45;2&#45;&gt;46</title>
<path fill="none" stroke="red" stroke-width="0.97" stroke-dasharray="1,5" d="M1626.52,-386.07C1616.33,-382.1 1601.39,-376.76 1587.88,-373.75 1446.47,-342.19 1405.7,-367.39 1263.88,-337.75 1251.09,-335.07 1237.22,-330.94 1225.58,-327.1"/>
<polygon fill="red" stroke="red" stroke-width="0.97" points="1226.62,-323.76 1216.03,-323.85 1224.37,-330.38 1226.62,-323.76"/>
</g>
<!-- 50 -->
<g id="node30" class="node">
<title>50</title>
<ellipse fill="white" stroke="black" cx="1430.88" cy="-316.53" rx="18.27" ry="18.27"/>
<text text-anchor="middle" x="1430.88" y="-314.33" font-family="Times New Roman,serif" font-size="9.00">50</text>
</g>
<!-- &#45;2&#45;&gt;50 -->
<g id="edge63" class="edge">
<title>&#45;2&#45;&gt;50</title>
<path fill="none" stroke="green" stroke-width="0.63" d="M1626.8,-386.86C1594.07,-375.28 1503.12,-343.1 1457.58,-326.98"/>
<polygon fill="green" stroke="green" stroke-width="0.63" points="1458.66,-323.65 1448.07,-323.62 1456.33,-330.25 1458.66,-323.65"/>
</g>
<!-- &#45;3 -->
<g id="node3" class="node">
<title>&#45;3</title>
<polygon fill="lightgray" stroke="black" points="434.88,-325.53 410.88,-325.53 410.88,-307.53 434.88,-307.53 434.88,-325.53"/>
<text text-anchor="middle" x="422.88" y="-314.33" font-family="Times New Roman,serif" font-size="9.00">&#45;3</text>
</g>
<!-- 0 -->
<g id="node20" class="node">
<title>0</title>
<ellipse fill="lightblue" stroke="black" cx="1276.88" cy="-84.08" rx="14.7" ry="14.7"/>
<text text-anchor="middle" x="1276.88" y="-81.88" font-family="Times New Roman,serif" font-size="9.00">0</text>
</g>
<!-- &#45;3&#45;&gt;0 -->
<g id="edge78" class="edge">
<title>&#45;3&#45;&gt;0</title>
<path fill="none" stroke="green" stroke-width="0.26" d="M432.7,-307.23C437.44,-303.39 443.3,-298.9 448.88,-295.32 477.99,-276.63 489.38,-278.92 517.88,-259.32 541.34,-243.19 540.79,-230.35 565.88,-216.89 620.61,-187.55 644.86,-207.68 700.88,-180.89 729.69,-167.12 729.07,-149.93 758.88,-138.47 850.62,-103.19 1160.2,-89.33 1251.4,-85.95"/>
<polygon fill="green" stroke="green" stroke-width="0.26" points="1251.77,-89.44 1261.64,-85.58 1251.52,-82.44 1251.77,-89.44"/>
</g>
<!-- 1 -->
<g id="node21" class="node">
<title>1</title>
<ellipse fill="lightblue" stroke="black" cx="1398.88" cy="-14.85" rx="14.7" ry="14.7"/>
<text text-anchor="middle" x="1398.88" y="-12.65" font-family="Times New Roman,serif" font-size="9.00">1</text>
</g>
<!-- &#45;3&#45;&gt;1 -->
<g id="edge52" class="edge">
<title>&#45;3&#45;&gt;1</title>
<path fill="none" stroke="red" stroke-width="0.31" d="M429.95,-307.37C444.94,-290.17 481.23,-249.15 513.88,-216.89 530.9,-200.09 538.01,-198.79 553.88,-180.89 595.4,-134.06 580.31,-96.34 634.88,-65.7 700.56,-28.83 1248.84,-18.17 1373.66,-16.21"/>
<polygon fill="red" stroke="red" stroke-width="0.31" points="1373.84,-19.71 1383.78,-16.06 1373.73,-12.71 1373.84,-19.71"/>
</g>
<!-- &#45;3&#45;&gt;42 -->
<g id="edge7" class="edge">
<title>&#45;3&#45;&gt;42</title>
<path fill="none" stroke="red" stroke-width="0.6" stroke-dasharray="1,5" d="M435.02,-312.31C453.28,-307.61 488.97,-299.06 519.88,-295.32 973.75,-240.49 1092.51,-299.82 1547.88,-259.32 1587.2,-255.82 1632.3,-248.83 1660.69,-244.06"/>
<polygon fill="red" stroke="red" stroke-width="0.6" points="1661.43,-247.48 1670.7,-242.35 1660.26,-240.58 1661.43,-247.48"/>
</g>
<!-- 49 -->
<g id="node29" class="node">
<title>49</title>
<ellipse fill="white" stroke="black" cx="1276.88" cy="-238.11" rx="18.27" ry="18.27"/>
<text text-anchor="middle" x="1276.88" y="-235.91" font-family="Times New Roman,serif" font-size="9.00">49</text>
</g>
<!-- &#45;3&#45;&gt;49 -->
<g id="edge24" class="edge">
<title>&#45;3&#45;&gt;49</title>
<path fill="none" stroke="red" stroke-width="0.97" d="M435.04,-312.46C453.33,-307.97 489.05,-299.66 519.88,-295.32 801.95,-255.63 1147.36,-242.89 1248.06,-239.88"/>
<polygon fill="red" stroke="red" stroke-width="0.97" points="1248.45,-243.38 1258.34,-239.59 1248.24,-236.38 1248.45,-243.38"/>
</g>
<!-- &#45;3&#45;&gt;51 -->
<g id="edge22" class="edge">
<title>&#45;3&#45;&gt;51</title>
<path fill="none" stroke="red" stroke-width="0.22" d="M415.79,-307.43C394.16,-281.69 332.44,-199.91 363.88,-138.47 373.83,-119.02 394.54,-105.03 411.53,-96.26"/>
<polygon fill="red" stroke="red" stroke-width="0.22" points="413.5,-99.2 420.99,-91.7 410.46,-92.89 413.5,-99.2"/>
</g>
<!-- &#45;4 -->
<g id="node4" class="node">
<title>&#45;4</title>
<polygon fill="lightgray" stroke="black" points="512.88,-401.13 488.88,-401.13 488.88,-383.13 512.88,-383.13 512.88,-401.13"/>
<text text-anchor="middle" x="500.88" y="-389.93" font-family="Times New Roman,serif" font-size="9.00">&#45;4</text>
</g>
<!-- &#45;4&#45;&gt;0 -->
<g id="edge31" class="edge">
<title>&#45;4&#45;&gt;0</title>
<path fill="none" stroke="green" stroke-width="1.05" d="M488.76,-389.5C464.86,-385.55 412.07,-373.05 389.88,-337.75 379.84,-321.78 385.76,-313.72 389.88,-295.32 398.31,-257.71 397.48,-241.81 426.88,-216.89 471.64,-178.96 504.54,-212.64 553.88,-180.89 574.68,-167.51 567.86,-149.72 589.88,-138.47 649.8,-107.85 1135.05,-89.82 1251.72,-85.9"/>
<polygon fill="green" stroke="green" stroke-width="1.05" points="1251.96,-89.39 1261.84,-85.56 1251.73,-82.39 1251.96,-89.39"/>
</g>
<!-- &#45;4&#45;&gt;1 -->
<g id="edge79" class="edge">
<title>&#45;4&#45;&gt;1</title>
<path fill="none" stroke="red" stroke-width="0.11" d="M488.83,-390.2C434.82,-385.87 214.9,-366.73 152.88,-337.75 92.79,-309.67 40.88,-305.44 40.88,-239.11 40.88,-239.11 40.88,-239.11 40.88,-158.68 40.88,-19.29 1187.13,-15.47 1373.43,-15.76"/>
<polygon fill="red" stroke="red" stroke-width="0.11" points="1373.62,-19.26 1383.63,-15.79 1373.64,-12.26 1373.62,-19.26"/>
</g>
<!-- 131 -->
<g id="node22" class="node">
<title>131</title>
<ellipse fill="white" stroke="black" cx="549.88" cy="-316.53" rx="21.43" ry="21.43"/>
<text text-anchor="middle" x="549.88" y="-314.33" font-family="Times New Roman,serif" font-size="9.00">131</text>
</g>
<!-- &#45;4&#45;&gt;131 -->
<g id="edge139" class="edge">
<title>&#45;4&#45;&gt;131</title>
<path fill="none" stroke="green" stroke-width="0.3" d="M506.31,-382.97C512.65,-373.46 523.44,-357.25 532.69,-343.35"/>
<polygon fill="green" stroke="green" stroke-width="0.3" points="535.87,-344.9 538.49,-334.64 530.04,-341.02 535.87,-344.9"/>
</g>
<!-- &#45;4&#45;&gt;42 -->
<g id="edge2" class="edge">
<title>&#45;4&#45;&gt;42</title>
<path fill="none" stroke="green" stroke-width="0.63" d="M513.2,-389.15C579.94,-378.49 904.88,-327.15 1171.88,-295.32 1338.58,-275.45 1381.19,-279.24 1547.88,-259.32 1587.07,-254.64 1632.2,-247.94 1660.63,-243.55"/>
<polygon fill="green" stroke="green" stroke-width="0.63" points="1661.32,-246.99 1670.66,-242 1660.25,-240.07 1661.32,-246.99"/>
</g>
<!-- 44 -->
<g id="node25" class="node">
<title>44</title>
<ellipse fill="white" stroke="black" cx="1604.88" cy="-159.68" rx="18.27" ry="18.27"/>
<text text-anchor="middle" x="1604.88" y="-157.48" font-family="Times New Roman,serif" font-size="9.00">44</text>
</g>
<!-- &#45;4&#45;&gt;44 -->
<g id="edge18" class="edge">
<title>&#45;4&#45;&gt;44</title>
<path fill="none" stroke="red" stroke-width="0.62" d="M496.39,-382.99C487.44,-365.53 469.63,-323.78 486.88,-295.32 504.81,-265.74 527.38,-278.92 555.88,-259.32 579.34,-243.19 577.55,-227.72 603.88,-216.89 695.95,-179.05 1422.78,-163.95 1576.42,-161.17"/>
<polygon fill="red" stroke="red" stroke-width="0.62" points="1576.54,-164.67 1586.47,-160.99 1576.41,-157.67 1576.54,-164.67"/>
</g>
<!-- &#45;4&#45;&gt;45 -->
<g id="edge16" class="edge">
<title>&#45;4&#45;&gt;45</title>
<path fill="none" stroke="green" stroke-width="0.46" stroke-dasharray="1,5" d="M500.22,-382.97C499.22,-365.12 499.27,-322.04 519.88,-295.32 542.22,-266.36 563.15,-279.16 593.88,-259.32 618.65,-243.33 617.34,-227.42 644.88,-216.89 747.38,-177.71 1522.23,-185.21 1631.88,-180.89 1802,-174.19 2006.14,-165.27 2080.76,-161.97"/>
<polygon fill="green" stroke="green" stroke-width="0.46" points="2081.37,-165.45 2091.21,-161.51 2081.06,-158.46 2081.37,-165.45"/>
</g>
<!-- &#45;4&#45;&gt;50 -->
<g id="edge20" class="edge">
<title>&#45;4&#45;&gt;50</title>
<path fill="none" stroke="green" stroke-width="0.26" d="M512.91,-389.52C538.94,-386.09 602.44,-378.03 655.88,-373.75 821.76,-360.47 1247.29,-394.08 1403.88,-337.75 1405.74,-337.08 1407.58,-336.23 1409.37,-335.27"/>
<polygon fill="green" stroke="green" stroke-width="0.26" points="1411.35,-338.16 1417.8,-329.76 1407.52,-332.3 1411.35,-338.16"/>
</g>
<!-- &#45;4&#45;&gt;51 -->
<g id="edge36" class="edge">
<title>&#45;4&#45;&gt;51</title>
<path fill="none" stroke="green" stroke-width="0.37" d="M488.61,-391.1C434.71,-390.7 219.83,-386.05 178.88,-337.75 128.73,-278.6 158.42,-220 254.88,-138.47 299.7,-100.58 370.24,-89.57 409.35,-86.38"/>
<polygon fill="green" stroke="green" stroke-width="0.37" points="409.78,-89.86 419.51,-85.67 409.29,-82.87 409.78,-89.86"/>
</g>
<!-- 78 -->
<g id="node36" class="node">
<title>78</title>
<ellipse fill="white" stroke="black" cx="671.88" cy="-238.11" rx="18.27" ry="18.27"/>
<text text-anchor="middle" x="671.88" y="-235.91" font-family="Times New Roman,serif" font-size="9.00">78</text>
</g>
<!-- &#45;4&#45;&gt;78 -->
<g id="edge118" class="edge">
<title>&#45;4&#45;&gt;78</title>
<path fill="none" stroke="red" stroke-width="0.17" stroke-dasharray="1,5" d="M512.99,-384.13C529.03,-374.6 557.86,-356.57 579.88,-337.75 595.14,-324.7 631.22,-284.89 653.4,-260.01"/>
<polygon fill="red" stroke="red" stroke-width="0.17" points="656.03,-262.31 660.06,-252.51 650.8,-257.66 656.03,-262.31"/>
</g>
<!-- &#45;5 -->
<g id="node5" class="node">
<title>&#45;5</title>
<polygon fill="lightgray" stroke="black" points="2560.88,-615.71 2536.88,-615.71 2536.88,-597.71 2560.88,-597.71 2560.88,-615.71"/>
<text text-anchor="middle" x="2548.88" y="-604.51" font-family="Times New Roman,serif" font-size="9.00">&#45;5</text>
</g>
<!-- &#45;5&#45;&gt;0 -->
<g id="edge101" class="edge">
<title>&#45;5&#45;&gt;0</title>
<path fill="none" stroke="green" stroke-width="0.81" d="M2552.8,-597.42C2562.51,-576.1 2586.88,-517.47 2586.88,-465.9 2586.88,-465.9 2586.88,-465.9 2586.88,-315.53 2586.88,-254.67 2544.69,-247.16 2491.88,-216.89 2278.85,-94.78 1457.83,-85.73 1302.37,-85.12"/>
<polygon fill="green" stroke="green" stroke-width="0.81" points="1301.98,-81.62 1291.97,-85.09 1301.95,-88.62 1301.98,-81.62"/>
</g>
<!-- &#45;5&#45;&gt;45 -->
<g id="edge25" class="edge">
<title>&#45;5&#45;&gt;45</title>
<path fill="none" stroke="green" stroke-width="0.51" stroke-dasharray="1,5" d="M2548.88,-597.52C2548.88,-575.96 2548.88,-515.9 2548.88,-465.9 2548.88,-465.9 2548.88,-465.9 2548.88,-391.13 2548.88,-302.72 2525.1,-267.89 2452.88,-216.89 2402.24,-181.14 2211.96,-166.57 2138.79,-162.21"/>
<polygon fill="green" stroke="green" stroke-width="0.51" points="2138.67,-158.7 2128.49,-161.62 2138.27,-165.68 2138.67,-158.7"/>
</g>
<!-- 122 -->
<g id="node41" class="node">
<title>122</title>
<ellipse fill="white" stroke="black" cx="2295.88" cy="-540.5" rx="21.43" ry="21.43"/>
<text text-anchor="middle" x="2295.88" y="-538.3" font-family="Times New Roman,serif" font-size="9.00">122</text>
</g>
<!-- &#45;5&#45;&gt;122 -->
<g id="edge135" class="edge">
<title>&#45;5&#45;&gt;122</title>
<path fill="none" stroke="red" stroke-width="0.12" d="M2536.68,-602.62C2498.75,-592.99 2382.13,-563.39 2326.3,-549.22"/>
<polygon fill="red" stroke="red" stroke-width="0.12" points="2326.85,-545.75 2316.29,-546.68 2325.13,-552.53 2326.85,-545.75"/>
</g>
<!-- &#45;6 -->
<g id="node6" class="node">
<title>&#45;6</title>
<polygon fill="lightgray" stroke="black" points="1515.88,-401.13 1491.88,-401.13 1491.88,-383.13 1515.88,-383.13 1515.88,-401.13"/>
<text text-anchor="middle" x="1503.88" y="-389.93" font-family="Times New Roman,serif" font-size="9.00">&#45;6</text>
</g>
<!-- &#45;6&#45;&gt;0 -->
<g id="edge47" class="edge">
<title>&#45;6&#45;&gt;0</title>
<path fill="none" stroke="green" stroke-width="0.15" d="M1501.31,-383.13C1490.18,-349.46 1443.07,-217.45 1364.88,-138.47 1345.93,-119.33 1318.79,-104.22 1299.67,-95.03"/>
<polygon fill="green" stroke="green" stroke-width="0.15" points="1301.04,-91.81 1290.49,-90.78 1298.09,-98.16 1301.04,-91.81"/>
</g>
<!-- &#45;6&#45;&gt;1 -->
<g id="edge15" class="edge">
<title>&#45;6&#45;&gt;1</title>
<path fill="none" stroke="red" stroke-width="0.19" stroke-dasharray="1,5" d="M1491.85,-388.24C1477.22,-384.73 1451.76,-378.69 1429.88,-373.75 1356.24,-357.11 1316.27,-392.1 1263.88,-337.75 1224.94,-297.34 1250.75,-68.62 1252.88,-65.7 1280.82,-27.44 1339.84,-18.25 1373.66,-16.23"/>
<polygon fill="red" stroke="red" stroke-width="0.19" points="1373.84,-19.72 1383.68,-15.79 1373.54,-12.73 1373.84,-19.72"/>
</g>
<!-- &#45;6&#45;&gt;42 -->
<g id="edge53" class="edge">
<title>&#45;6&#45;&gt;42</title>
<path fill="none" stroke="red" stroke-width="0.49" stroke-dasharray="1,5" d="M1516.2,-384.26C1523.23,-380.62 1532.33,-376.36 1540.88,-373.75 1590.56,-358.55 1738.09,-377.21 1771.88,-337.75 1784.14,-323.42 1780.72,-311.98 1771.88,-295.32 1770.21,-292.17 1736.6,-269.97 1712.67,-254.44"/>
<polygon fill="red" stroke="red" stroke-width="0.49" points="1714.35,-251.36 1704.06,-248.86 1710.55,-257.23 1714.35,-251.36"/>
</g>
<!-- &#45;6&#45;&gt;44 -->
<g id="edge85" class="edge">
<title>&#45;6&#45;&gt;44</title>
<path fill="none" stroke="red" stroke-width="0.51" stroke-dasharray="1,5" d="M1507.48,-382.93C1521.28,-351.43 1571.24,-237.45 1593.75,-186.08"/>
<polygon fill="red" stroke="red" stroke-width="0.51" points="1597.06,-187.25 1597.86,-176.69 1590.64,-184.44 1597.06,-187.25"/>
</g>
<!-- &#45;6&#45;&gt;46 -->
<g id="edge5" class="edge">
<title>&#45;6&#45;&gt;46</title>
<path fill="none" stroke="red" stroke-width="0.41" d="M1493.84,-382.89C1489.24,-379.53 1483.56,-375.93 1477.88,-373.75 1374.33,-333.94 1334.94,-376.21 1230.88,-337.75 1227.9,-336.64 1224.89,-335.23 1221.99,-333.67"/>
<polygon fill="red" stroke="red" stroke-width="0.41" points="1223.55,-330.53 1213.18,-328.37 1219.94,-336.52 1223.55,-330.53"/>
</g>
<!-- &#45;6&#45;&gt;48 -->
<g id="edge28" class="edge">
<title>&#45;6&#45;&gt;48</title>
<path fill="none" stroke="green" stroke-width="0.8" d="M1504.79,-382.96C1507.21,-361.38 1513.83,-302.14 1517.79,-266.77"/>
<polygon fill="green" stroke="green" stroke-width="0.8" points="1521.29,-266.96 1518.92,-256.63 1514.33,-266.18 1521.29,-266.96"/>
</g>
<!-- &#45;6&#45;&gt;49 -->
<g id="edge21" class="edge">
<title>&#45;6&#45;&gt;49</title>
<path fill="none" stroke="red" stroke-width="1.1" stroke-dasharray="1,5" d="M1493.43,-383.1C1488.85,-379.85 1483.29,-376.29 1477.88,-373.75 1427.1,-349.89 1403.53,-368.93 1356.88,-337.75 1341.4,-327.4 1311.52,-287.77 1292.98,-262"/>
<polygon fill="red" stroke="red" stroke-width="1.1" points="1295.83,-259.96 1287.17,-253.85 1290.13,-264.02 1295.83,-259.96"/>
</g>
<!-- 64 -->
<g id="node34" class="node">
<title>64</title>
<ellipse fill="white" stroke="black" cx="1874.88" cy="-316.53" rx="18.27" ry="18.27"/>
<text text-anchor="middle" x="1874.88" y="-314.33" font-family="Times New Roman,serif" font-size="9.00">64</text>
</g>
<!-- &#45;6&#45;&gt;64 -->
<g id="edge109" class="edge">
<title>&#45;6&#45;&gt;64</title>
<path fill="none" stroke="green" stroke-width="0.93" d="M1516.18,-384.2C1523.21,-380.53 1532.3,-376.28 1540.88,-373.75 1654.44,-340.18 1689.02,-362.24 1804.88,-337.75 1819.24,-334.71 1834.95,-330.28 1847.85,-326.34"/>
<polygon fill="green" stroke="green" stroke-width="0.93" points="1849.01,-329.64 1857.51,-323.32 1846.92,-322.96 1849.01,-329.64"/>
</g>
<!-- 81 -->
<g id="node37" class="node">
<title>81</title>
<ellipse fill="white" stroke="black" cx="1290.88" cy="-316.53" rx="18.27" ry="18.27"/>
<text text-anchor="middle" x="1290.88" y="-314.33" font-family="Times New Roman,serif" font-size="9.00">81</text>
</g>
<!-- &#45;6&#45;&gt;81 -->
<g id="edge120" class="edge">
<title>&#45;6&#45;&gt;81</title>
<path fill="none" stroke="green" stroke-width="0.11" d="M1493.75,-383.11C1489.14,-379.79 1483.46,-376.16 1477.88,-373.75 1412.99,-345.63 1388.14,-365.01 1322.88,-337.75 1319.94,-336.52 1316.97,-335.03 1314.09,-333.43"/>
<polygon fill="green" stroke="green" stroke-width="0.11" points="1315.66,-330.29 1305.29,-328.08 1312.02,-336.27 1315.66,-330.29"/>
</g>
<!-- &#45;7 -->
<g id="node7" class="node">
<title>&#45;7</title>
<polygon fill="lightgray" stroke="black" points="1399.88,-549.5 1375.88,-549.5 1375.88,-531.5 1399.88,-531.5 1399.88,-549.5"/>
<text text-anchor="middle" x="1387.88" y="-538.3" font-family="Times New Roman,serif" font-size="9.00">&#45;7</text>
</g>
<!-- &#45;7&#45;&gt;0 -->
<g id="edge1" class="edge">
<title>&#45;7&#45;&gt;0</title>
<path fill="none" stroke="green" stroke-width="0.11" d="M1375.72,-539.3C1275.41,-537.42 584.44,-520.55 414.88,-410.52 380.19,-388 370.78,-376.7 356.88,-337.75 327.09,-254.28 299.87,-199.76 363.88,-138.47 396.85,-106.89 1107.67,-88.96 1251.6,-85.65"/>
<polygon fill="green" stroke="green" stroke-width="0.11" points="1252.1,-89.14 1262.02,-85.41 1251.94,-82.14 1252.1,-89.14"/>
</g>
<!-- &#45;7&#45;&gt;42 -->
<g id="edge14" class="edge">
<title>&#45;7&#45;&gt;42</title>
<path fill="none" stroke="red" stroke-width="0.37" d="M1399.93,-539.64C1467.38,-539.65 1799.42,-529.79 1919.88,-337.75 1929.9,-321.77 1932.02,-309.75 1919.88,-295.32 1859.46,-223.55 1796.51,-299.81 1711.88,-259.32 1711.04,-258.92 1710.21,-258.48 1709.39,-258.01"/>
<polygon fill="red" stroke="red" stroke-width="0.37" points="1711.26,-255.04 1701.11,-252.03 1707.17,-260.72 1711.26,-255.04"/>
</g>
<!-- &#45;7&#45;&gt;45 -->
<g id="edge100" class="edge">
<title>&#45;7&#45;&gt;45</title>
<path fill="none" stroke="red" stroke-width="0.22" stroke-dasharray="1,5" d="M1400,-539.55C1495.75,-539.86 2131.19,-539.7 2312.88,-483.29 2372.81,-464.68 2395.65,-460.28 2433.88,-410.52 2486.43,-342.13 2488.47,-270.47 2420.88,-216.89 2377.21,-182.28 2207.03,-167.2 2138.61,-162.45"/>
<polygon fill="red" stroke="red" stroke-width="0.22" points="2138.74,-158.96 2128.53,-161.78 2138.28,-165.94 2138.74,-158.96"/>
</g>
<!-- &#45;7&#45;&gt;46 -->
<g id="edge50" class="edge">
<title>&#45;7&#45;&gt;46</title>
<path fill="none" stroke="green" stroke-width="0.76" d="M1380.93,-531.34C1354.23,-499.98 1257.72,-386.63 1217.1,-338.93"/>
<polygon fill="green" stroke="green" stroke-width="0.76" points="1219.56,-336.42 1210.41,-331.08 1214.23,-340.96 1219.56,-336.42"/>
</g>
<!-- &#45;7&#45;&gt;48 -->
<g id="edge9" class="edge">
<title>&#45;7&#45;&gt;48</title>
<path fill="none" stroke="green" stroke-width="1.22" d="M1400.06,-538.18C1444.56,-532.63 1598.98,-506.8 1659.88,-410.52 1700.29,-346.64 1595.86,-279.42 1545.84,-251.94"/>
<polygon fill="green" stroke="green" stroke-width="1.22" points="1547.36,-248.79 1536.9,-247.14 1544.05,-254.95 1547.36,-248.79"/>
</g>
<!-- &#45;7&#45;&gt;49 -->
<g id="edge92" class="edge">
<title>&#45;7&#45;&gt;49</title>
<path fill="none" stroke="red" stroke-width="0.67" d="M1375.52,-537.89C1309.44,-529.03 998.95,-483.85 943.88,-410.52 905.29,-359.11 1002.56,-300.26 1010.88,-295.32 1087.98,-249.52 1197.15,-240.74 1248.32,-239.26"/>
<polygon fill="red" stroke="red" stroke-width="0.67" points="1248.41,-242.76 1258.33,-239.04 1248.25,-235.76 1248.41,-242.76"/>
</g>
<!-- &#45;7&#45;&gt;50 -->
<g id="edge54" class="edge">
<title>&#45;7&#45;&gt;50</title>
<path fill="none" stroke="green" stroke-width="0.49" stroke-dasharray="1,5" d="M1389.46,-531.34C1395.3,-501.18 1415.84,-395.19 1425.62,-344.69"/>
<polygon fill="green" stroke="green" stroke-width="0.49" points="1429.07,-345.28 1427.54,-334.8 1422.2,-343.95 1429.07,-345.28"/>
</g>
<!-- &#45;7&#45;&gt;51 -->
<g id="edge51" class="edge">
<title>&#45;7&#45;&gt;51</title>
<path fill="none" stroke="green" stroke-width="0.43" d="M1375.87,-539.16C1251.99,-535.56 209.24,-502.6 111.88,-410.52 23.05,-326.49 51.56,-206.92 152.88,-138.47 194.68,-110.23 345.69,-93.49 409.31,-87.55"/>
<polygon fill="green" stroke="green" stroke-width="0.43" points="409.79,-91.02 419.44,-86.62 409.16,-84.05 409.79,-91.02"/>
</g>
<!-- 61 -->
<g id="node32" class="node">
<title>61</title>
<ellipse fill="white" stroke="black" cx="2090.88" cy="-464.9" rx="18.27" ry="18.27"/>
<text text-anchor="middle" x="2090.88" y="-462.7" font-family="Times New Roman,serif" font-size="9.00">61</text>
</g>
<!-- &#45;7&#45;&gt;61 -->
<g id="edge103" class="edge">
<title>&#45;7&#45;&gt;61</title>
<path fill="none" stroke="red" stroke-width="0.17" d="M1400.26,-538.54C1462.07,-533.72 1743.47,-511.19 1972.88,-483.29 2003.54,-479.56 2038.53,-474.27 2062.4,-470.51"/>
<polygon fill="red" stroke="red" stroke-width="0.17" points="2063.2,-473.93 2072.52,-468.9 2062.1,-467.01 2063.2,-473.93"/>
</g>
<!-- &#45;8 -->
<g id="node8" class="node">
<title>&#45;8</title>
<polygon fill="lightgray" stroke="black" points="1164.88,-401.13 1140.88,-401.13 1140.88,-383.13 1164.88,-383.13 1164.88,-401.13"/>
<text text-anchor="middle" x="1152.88" y="-389.93" font-family="Times New Roman,serif" font-size="9.00">&#45;8</text>
</g>
<!-- &#45;8&#45;&gt;0 -->
<g id="edge57" class="edge">
<title>&#45;8&#45;&gt;0</title>
<path fill="none" stroke="green" stroke-width="0.53" d="M1147.38,-382.89C1140.99,-372.76 1130.82,-354.82 1126.88,-337.75 1122.64,-319.37 1121.13,-313.28 1126.88,-295.32 1153.33,-212.7 1225.49,-134.87 1259.15,-101.79"/>
<polygon fill="green" stroke="green" stroke-width="0.53" points="1261.71,-104.18 1266.46,-94.72 1256.84,-99.15 1261.71,-104.18"/>
</g>
<!-- &#45;8&#45;&gt;46 -->
<g id="edge49" class="edge">
<title>&#45;8&#45;&gt;46</title>
<path fill="none" stroke="red" stroke-width="0.31" d="M1157.98,-382.97C1164.2,-373.03 1174.98,-355.77 1183.91,-341.48"/>
<polygon fill="red" stroke="red" stroke-width="0.31" points="1187.12,-342.95 1189.45,-332.62 1181.18,-339.24 1187.12,-342.95"/>
</g>
<!-- &#45;8&#45;&gt;48 -->
<g id="edge73" class="edge">
<title>&#45;8&#45;&gt;48</title>
<path fill="none" stroke="red" stroke-width="0.59" d="M1151.74,-383.04C1149.63,-364.55 1147.35,-318.98 1171.88,-295.32 1194.98,-273.04 1413.31,-249.64 1492.43,-241.83"/>
<polygon fill="red" stroke="red" stroke-width="0.59" points="1493.02,-245.29 1502.63,-240.83 1492.34,-238.32 1493.02,-245.29"/>
</g>
<!-- &#45;8&#45;&gt;49 -->
<g id="edge37" class="edge">
<title>&#45;8&#45;&gt;49</title>
<path fill="none" stroke="green" stroke-width="1.06" d="M1148.33,-383.13C1139.03,-365.58 1120.21,-323.08 1138.88,-295.32 1163.26,-259.06 1215.55,-246.18 1248.3,-241.61"/>
<polygon fill="green" stroke="green" stroke-width="1.06" points="1249.08,-245.04 1258.59,-240.36 1248.24,-238.09 1249.08,-245.04"/>
</g>
<!-- &#45;8&#45;&gt;50 -->
<g id="edge76" class="edge">
<title>&#45;8&#45;&gt;50</title>
<path fill="none" stroke="green" stroke-width="0.51" d="M1164.95,-390.4C1202.18,-387.78 1317.88,-376.78 1403.88,-337.75 1405.68,-336.93 1407.47,-335.98 1409.23,-334.94"/>
<polygon fill="green" stroke="green" stroke-width="0.51" points="1411.29,-337.77 1417.6,-329.26 1407.36,-331.98 1411.29,-337.77"/>
</g>
<!-- &#45;9 -->
<g id="node9" class="node">
<title>&#45;9</title>
<polygon fill="lightgray" stroke="black" points="728.88,-473.9 704.88,-473.9 704.88,-455.9 728.88,-455.9 728.88,-473.9"/>
<text text-anchor="middle" x="716.88" y="-462.7" font-family="Times New Roman,serif" font-size="9.00">&#45;9</text>
</g>
<!-- &#45;9&#45;&gt;0 -->
<g id="edge61" class="edge">
<title>&#45;9&#45;&gt;0</title>
<path fill="none" stroke="red" stroke-width="1.41" d="M704.74,-462.93C668.84,-459.7 560.67,-447.34 479.88,-410.52 390.61,-369.82 326.24,-302.66 373.88,-216.89 377.88,-209.69 492.04,-141 499.88,-138.47 644.62,-91.68 1135.12,-85.9 1251.81,-85.18"/>
<polygon fill="red" stroke="red" stroke-width="1.41" points="1251.94,-88.68 1261.92,-85.13 1251.9,-81.68 1251.94,-88.68"/>
</g>
<!-- &#45;9&#45;&gt;1 -->
<g id="edge82" class="edge">
<title>&#45;9&#45;&gt;1</title>
<path fill="none" stroke="green" stroke-width="0.64" d="M704.82,-463.6C623.81,-461.5 160.8,-447.87 111.88,-410.52 11.2,-333.64 -31.63,-250.82 26.88,-138.47 52.94,-88.43 77.42,-83.71 130.88,-65.7 252.63,-24.69 1205.24,-17.03 1373.52,-15.99"/>
<polygon fill="green" stroke="green" stroke-width="0.64" points="1373.68,-19.49 1383.66,-15.93 1373.64,-12.49 1373.68,-19.49"/>
</g>
<!-- 137 -->
<g id="node23" class="node">
<title>137</title>
<ellipse fill="white" stroke="black" cx="685.88" cy="-316.53" rx="21.43" ry="21.43"/>
<text text-anchor="middle" x="685.88" y="-314.33" font-family="Times New Roman,serif" font-size="9.00">137</text>
</g>
<!-- &#45;9&#45;&gt;137 -->
<g id="edge142" class="edge">
<title>&#45;9&#45;&gt;137</title>
<path fill="none" stroke="red" stroke-width="0.46" d="M715.11,-455.45C711.75,-439.48 704.25,-403.79 697.88,-373.75 696.07,-365.21 694.1,-355.95 692.28,-347.45"/>
<polygon fill="red" stroke="red" stroke-width="0.46" points="695.68,-346.61 690.17,-337.56 688.84,-348.07 695.68,-346.61"/>
</g>
<!-- &#45;9&#45;&gt;44 -->
<g id="edge42" class="edge">
<title>&#45;9&#45;&gt;44</title>
<path fill="none" stroke="red" stroke-width="0.44" stroke-dasharray="1,5" d="M726.06,-455.85C767.17,-420.29 939.91,-276.47 1109.88,-216.89 1197.24,-186.28 1484.57,-167.56 1576.4,-162.25"/>
<polygon fill="red" stroke="red" stroke-width="0.44" points="1576.81,-165.73 1586.6,-161.67 1576.42,-158.74 1576.81,-165.73"/>
</g>
<!-- &#45;9&#45;&gt;45 -->
<g id="edge91" class="edge">
<title>&#45;9&#45;&gt;45</title>
<path fill="none" stroke="red" stroke-width="0.46" d="M728.92,-463.93C853.2,-464.15 1900.05,-464.44 2025.88,-410.52 2047.48,-401.26 2043.06,-384.64 2063.88,-373.75 2136.94,-335.52 2193.54,-401.46 2245.88,-337.75 2256.02,-325.4 2259.49,-239.73 2243.88,-216.89 2220.09,-182.09 2170.26,-168.77 2138.53,-163.72"/>
<polygon fill="red" stroke="red" stroke-width="0.46" points="2138.91,-160.24 2128.52,-162.3 2137.93,-167.17 2138.91,-160.24"/>
</g>
<!-- &#45;9&#45;&gt;46 -->
<g id="edge97" class="edge">
<title>&#45;9&#45;&gt;46</title>
<path fill="none" stroke="green" stroke-width="0.89" d="M728.99,-463.29C797.93,-459.71 1139.12,-440.53 1173.88,-410.52 1192.5,-394.44 1197.97,-366.13 1199.26,-344.96"/>
<polygon fill="green" stroke="green" stroke-width="0.89" points="1202.76,-345.04 1199.6,-334.93 1195.77,-344.8 1202.76,-345.04"/>
</g>
<!-- &#45;9&#45;&gt;51 -->
<g id="edge94" class="edge">
<title>&#45;9&#45;&gt;51</title>
<path fill="none" stroke="green" stroke-width="0.55" d="M704.72,-463.73C625.11,-462.51 180.29,-453.75 140.88,-410.52 57.13,-318.65 103.68,-209.25 205.88,-138.47 268.95,-94.79 362.53,-86.38 409.22,-85.07"/>
<polygon fill="green" stroke="green" stroke-width="0.55" points="409.57,-88.56 419.5,-84.87 409.44,-81.56 409.57,-88.56"/>
</g>
<!-- 68 -->
<g id="node35" class="node">
<title>68</title>
<ellipse fill="white" stroke="black" cx="2090.88" cy="-392.13" rx="18.27" ry="18.27"/>
<text text-anchor="middle" x="2090.88" y="-389.93" font-family="Times New Roman,serif" font-size="9.00">68</text>
</g>
<!-- &#45;9&#45;&gt;68 -->
<g id="edge114" class="edge">
<title>&#45;9&#45;&gt;68</title>
<path fill="none" stroke="green" stroke-width="1.05" stroke-dasharray="1,5" d="M729.16,-463.75C855.89,-462.17 1923.58,-447.78 2058.88,-410.52 2061.53,-409.79 2064.21,-408.8 2066.82,-407.67"/>
<polygon fill="green" stroke="green" stroke-width="1.05" points="2068.5,-410.75 2075.86,-403.13 2065.36,-404.49 2068.5,-410.75"/>
</g>
<!-- &#45;9&#45;&gt;78 -->
<g id="edge116" class="edge">
<title>&#45;9&#45;&gt;78</title>
<path fill="none" stroke="red" stroke-width="0.67" stroke-dasharray="1,5" d="M704.72,-457.55C689.98,-449.08 665.88,-432.56 655.88,-410.52 634.19,-362.71 649.8,-299.8 661.73,-265.03"/>
<polygon fill="red" stroke="red" stroke-width="0.67" points="665.04,-266.19 665.12,-255.6 658.45,-263.83 665.04,-266.19"/>
</g>
<!-- &#45;10 -->
<g id="node10" class="node">
<title>&#45;10</title>
<polygon fill="lightgray" stroke="black" points="982.38,-401.13 953.38,-401.13 953.38,-383.13 982.38,-383.13 982.38,-401.13"/>
<text text-anchor="middle" x="967.88" y="-389.93" font-family="Times New Roman,serif" font-size="9.00">&#45;10</text>
</g>
<!-- &#45;10&#45;&gt;0 -->
<g id="edge65" class="edge">
<title>&#45;10&#45;&gt;0</title>
<path fill="none" stroke="green" stroke-width="0.62" stroke-dasharray="1,5" d="M953.29,-390.31C866.48,-385.33 421.06,-358.82 401.88,-337.75 389.19,-323.8 393.04,-311.97 401.88,-295.32 431.07,-240.36 463.26,-246.71 517.88,-216.89 556.72,-195.69 658,-149.36 700.88,-138.47 908.66,-85.71 1170.41,-83.82 1251.66,-84.65"/>
<polygon fill="green" stroke="green" stroke-width="0.62" points="1251.86,-88.15 1261.91,-84.78 1251.95,-81.15 1251.86,-88.15"/>
</g>
<!-- &#45;10&#45;&gt;1 -->
<g id="edge62" class="edge">
<title>&#45;10&#45;&gt;1</title>
<path fill="none" stroke="green" stroke-width="0.22" d="M953.23,-390.14C860.84,-383.82 362.41,-349.23 351.88,-337.75 292.02,-272.47 322.29,-221.95 351.88,-138.47 365.79,-99.22 373.76,-84.55 410.88,-65.7 499.02,-20.93 1227.86,-16.37 1373.58,-15.9"/>
<polygon fill="green" stroke="green" stroke-width="0.22" points="1373.77,-19.4 1383.76,-15.87 1373.75,-12.4 1373.77,-19.4"/>
</g>
<!-- &#45;10&#45;&gt;48 -->
<g id="edge80" class="edge">
<title>&#45;10&#45;&gt;48</title>
<path fill="none" stroke="red" stroke-width="0.21" d="M977.9,-382.93C981.83,-379.88 986.46,-376.49 990.88,-373.75 1024.02,-353.19 1110.7,-307.09 1147.88,-295.32 1272.42,-255.92 1429.33,-243.79 1492.56,-240.36"/>
<polygon fill="red" stroke="red" stroke-width="0.21" points="1492.76,-243.85 1502.57,-239.84 1492.4,-236.86 1492.76,-243.85"/>
</g>
<!-- &#45;10&#45;&gt;49 -->
<g id="edge12" class="edge">
<title>&#45;10&#45;&gt;49</title>
<path fill="none" stroke="red" stroke-width="0.93" d="M973.83,-383.05C987.87,-364.57 1025.05,-319.01 1066.88,-295.32 1126.25,-261.7 1206.48,-247.53 1248.51,-242.11"/>
<polygon fill="red" stroke="red" stroke-width="0.93" points="1249.08,-245.57 1258.58,-240.88 1248.23,-238.62 1249.08,-245.57"/>
</g>
<!-- &#45;10&#45;&gt;50 -->
<g id="edge41" class="edge">
<title>&#45;10&#45;&gt;50</title>
<path fill="none" stroke="red" stroke-width="0.28" stroke-dasharray="1,5" d="M976.13,-383.09C980.23,-379.6 985.46,-375.83 990.88,-373.75 1162.86,-307.62 1231.75,-403.48 1403.88,-337.75 1405.73,-337.04 1407.56,-336.17 1409.34,-335.19"/>
<polygon fill="red" stroke="red" stroke-width="0.28" points="1411.34,-338.07 1417.76,-329.64 1407.48,-332.22 1411.34,-338.07"/>
</g>
<!-- 63 -->
<g id="node33" class="node">
<title>63</title>
<ellipse fill="white" stroke="black" cx="526.88" cy="-159.68" rx="18.27" ry="18.27"/>
<text text-anchor="middle" x="526.88" y="-157.48" font-family="Times New Roman,serif" font-size="9.00">63</text>
</g>
<!-- &#45;10&#45;&gt;63 -->
<g id="edge106" class="edge">
<title>&#45;10&#45;&gt;63</title>
<path fill="none" stroke="green" stroke-width="0.31" d="M953.34,-390.11C862.75,-383.69 379.1,-348.92 368.88,-337.75 312.75,-276.4 443.33,-201.73 501.11,-172.87"/>
<polygon fill="green" stroke="green" stroke-width="0.31" points="502.92,-175.88 510.35,-168.34 499.83,-169.6 502.92,-175.88"/>
</g>
<!-- &#45;10&#45;&gt;81 -->
<g id="edge128" class="edge">
<title>&#45;10&#45;&gt;81</title>
<path fill="none" stroke="green" stroke-width="0.14" d="M976.62,-382.89C980.67,-379.53 985.72,-375.93 990.88,-373.75 1088.22,-332.64 1122.92,-361.5 1225.88,-337.75 1238.62,-334.81 1252.48,-330.64 1264.12,-326.84"/>
<polygon fill="green" stroke="green" stroke-width="0.14" points="1265.31,-330.14 1273.69,-323.65 1263.1,-323.5 1265.31,-330.14"/>
</g>
<!-- &#45;11 -->
<g id="node11" class="node">
<title>&#45;11</title>
<polygon fill="lightgray" stroke="black" points="2016.38,-325.53 1987.38,-325.53 1987.38,-307.53 2016.38,-307.53 2016.38,-325.53"/>
<text text-anchor="middle" x="2001.88" y="-314.33" font-family="Times New Roman,serif" font-size="9.00">&#45;11</text>
</g>
<!-- &#45;11&#45;&gt;1 -->
<g id="edge68" class="edge">
<title>&#45;11&#45;&gt;1</title>
<path fill="none" stroke="red" stroke-width="0.28" stroke-dasharray="1,5" d="M1995.22,-307.42C1979.94,-289.24 1940.58,-244.66 1899.88,-216.89 1735.31,-104.65 1498.66,-40.2 1423.06,-21.56"/>
<polygon fill="red" stroke="red" stroke-width="0.28" points="1423.65,-18.1 1413.1,-19.14 1421.99,-24.9 1423.65,-18.1"/>
</g>
<!-- &#45;11&#45;&gt;42 -->
<g id="edge13" class="edge">
<title>&#45;11&#45;&gt;42</title>
<path fill="none" stroke="red" stroke-width="0.54" d="M1992.61,-307.38C1987.21,-303.1 1980.08,-298.16 1972.88,-295.32 1867.62,-253.85 1827.06,-298.4 1720.88,-259.32 1717.89,-258.22 1714.89,-256.81 1711.99,-255.26"/>
<polygon fill="red" stroke="red" stroke-width="0.54" points="1713.55,-252.11 1703.18,-249.95 1709.94,-258.11 1713.55,-252.11"/>
</g>
<!-- &#45;11&#45;&gt;44 -->
<g id="edge40" class="edge">
<title>&#45;11&#45;&gt;44</title>
<path fill="none" stroke="green" stroke-width="1.03" d="M1992.58,-307.45C1987.18,-303.19 1980.04,-298.24 1972.88,-295.32 1883.59,-258.86 1844.75,-303.23 1758.88,-259.32 1734.98,-247.1 1737.67,-232.58 1715.88,-216.89 1689.03,-197.58 1654.59,-181.26 1631.24,-171.26"/>
<polygon fill="green" stroke="green" stroke-width="1.03" points="1632.55,-168.01 1621.97,-167.37 1629.84,-174.47 1632.55,-168.01"/>
</g>
<!-- &#45;11&#45;&gt;48 -->
<g id="edge55" class="edge">
<title>&#45;11&#45;&gt;48</title>
<path fill="none" stroke="red" stroke-width="0.53" d="M1987.35,-312.35C1967.93,-308.14 1932.41,-300.66 1901.88,-295.32 1867.18,-289.26 1631.37,-255.08 1549.12,-243.19"/>
<polygon fill="red" stroke="red" stroke-width="0.53" points="1549.61,-239.72 1539.22,-241.75 1548.61,-246.65 1549.61,-239.72"/>
</g>
<!-- &#45;11&#45;&gt;51 -->
<g id="edge66" class="edge">
<title>&#45;11&#45;&gt;51</title>
<path fill="none" stroke="red" stroke-width="1.2" d="M1991.51,-307.4C1967.89,-289.18 1907.77,-244.5 1851.88,-216.89 1758.81,-170.93 1733.75,-158.44 1631.88,-138.47 1398.48,-92.72 625.61,-86.1 466.63,-85.21"/>
<polygon fill="red" stroke="red" stroke-width="1.2" points="466.27,-81.71 456.26,-85.16 466.24,-88.71 466.27,-81.71"/>
</g>
<!-- &#45;12 -->
<g id="node12" class="node">
<title>&#45;12</title>
<polygon fill="lightgray" stroke="black" points="2140.38,-247.11 2111.38,-247.11 2111.38,-229.11 2140.38,-229.11 2140.38,-247.11"/>
<text text-anchor="middle" x="2125.88" y="-235.91" font-family="Times New Roman,serif" font-size="9.00">&#45;12</text>
</g>
<!-- &#45;12&#45;&gt;45 -->
<g id="edge81" class="edge">
<title>&#45;12&#45;&gt;45</title>
<path fill="none" stroke="red" stroke-width="0.74" d="M2124.17,-228.93C2122.13,-219.2 2118.63,-202.45 2115.6,-187.98"/>
<polygon fill="red" stroke="red" stroke-width="0.74" points="2118.98,-187.05 2113.5,-177.98 2112.13,-188.49 2118.98,-187.05"/>
</g>
<!-- &#45;13 -->
<g id="node13" class="node">
<title>&#45;13</title>
<polygon fill="lightgray" stroke="black" points="2016.38,-401.13 1987.38,-401.13 1987.38,-383.13 2016.38,-383.13 2016.38,-401.13"/>
<text text-anchor="middle" x="2001.88" y="-389.93" font-family="Times New Roman,serif" font-size="9.00">&#45;13</text>
</g>
<!-- &#45;13&#45;&gt;1 -->
<g id="edge84" class="edge">
<title>&#45;13&#45;&gt;1</title>
<path fill="none" stroke="red" stroke-width="0.31" d="M2016.58,-386.66C2029.09,-382.94 2047.57,-377.64 2063.88,-373.75 2144.08,-354.6 2193.54,-401.46 2245.88,-337.75 2304.13,-266.84 2253.81,-206.18 2191.88,-138.47 2156.93,-100.26 2149.11,-84.56 2100.88,-65.7 1973.81,-16.02 1534.19,-15.08 1424.05,-15.65"/>
<polygon fill="red" stroke="red" stroke-width="0.31" points="1423.88,-12.15 1413.9,-15.71 1423.92,-19.15 1423.88,-12.15"/>
</g>
<!-- &#45;13&#45;&gt;44 -->
<g id="edge44" class="edge">
<title>&#45;13&#45;&gt;44</title>
<path fill="none" stroke="red" stroke-width="0.79" d="M2008.03,-383.12C2021,-365.19 2048.21,-321.35 2025.88,-295.32 1957.37,-215.46 1885.33,-307.68 1791.88,-259.32 1768.59,-247.27 1772.74,-231.37 1750.88,-216.89 1713.41,-192.07 1663.37,-175.85 1632.67,-167.48"/>
<polygon fill="red" stroke="red" stroke-width="0.79" points="1633.24,-164.01 1622.68,-164.85 1631.45,-170.78 1633.24,-164.01"/>
</g>
<!-- &#45;13&#45;&gt;45 -->
<g id="edge74" class="edge">
<title>&#45;13&#45;&gt;45</title>
<path fill="none" stroke="red" stroke-width="0.28" d="M2013.25,-383.04C2018.42,-379.71 2024.74,-376.09 2030.88,-373.75 2111.21,-343.18 2166.06,-403.94 2220.88,-337.75 2255.14,-296.38 2249,-262.66 2220.88,-216.89 2202.91,-187.65 2164.48,-173.05 2137.92,-166.19"/>
<polygon fill="red" stroke="red" stroke-width="0.28" points="2138.58,-162.75 2128.04,-163.84 2136.96,-169.56 2138.58,-162.75"/>
</g>
<!-- &#45;13&#45;&gt;49 -->
<g id="edge105" class="edge">
<title>&#45;13&#45;&gt;49</title>
<path fill="none" stroke="green" stroke-width="1.13" d="M1987.14,-388.43C1945.74,-380.82 1824.89,-358.39 1724.88,-337.75 1565.38,-304.82 1374.82,-261.56 1304.61,-245.48"/>
<polygon fill="green" stroke="green" stroke-width="1.13" points="1305.3,-242.05 1294.77,-243.22 1303.74,-248.87 1305.3,-242.05"/>
</g>
<!-- &#45;13&#45;&gt;50 -->
<g id="edge89" class="edge">
<title>&#45;13&#45;&gt;50</title>
<path fill="none" stroke="red" stroke-width="0.25" d="M1987.19,-389.36C1932.79,-382.76 1737.6,-358.97 1576.88,-337.75 1535.99,-332.35 1488.7,-325.73 1459.29,-321.58"/>
<polygon fill="red" stroke="red" stroke-width="0.25" points="1459.7,-318.1 1449.31,-320.16 1458.72,-325.03 1459.7,-318.1"/>
</g>
<!-- &#45;14 -->
<g id="node14" class="node">
<title>&#45;14</title>
<polygon fill="lightgray" stroke="black" points="2303.38,-473.9 2274.38,-473.9 2274.38,-455.9 2303.38,-455.9 2303.38,-473.9"/>
<text text-anchor="middle" x="2288.88" y="-462.7" font-family="Times New Roman,serif" font-size="9.00">&#45;14</text>
</g>
<!-- &#45;14&#45;&gt;1 -->
<g id="edge29" class="edge">
<title>&#45;14&#45;&gt;1</title>
<path fill="none" stroke="red" stroke-width="0.45" stroke-dasharray="1,5" d="M2296.83,-455.57C2300.27,-452.36 2304.52,-448.89 2308.88,-446.52 2359.67,-418.9 2392.99,-451.39 2433.88,-410.52 2470.69,-373.73 2478.33,-341.78 2454.88,-295.32 2377.47,-141.93 2305.2,-124.84 2143.88,-65.7 2007.4,-15.66 1538.23,-15.04 1424.07,-15.65"/>
<polygon fill="red" stroke="red" stroke-width="0.45" points="1423.85,-12.15 1413.87,-15.71 1423.89,-19.15 1423.85,-12.15"/>
</g>
<!-- &#45;14&#45;&gt;45 -->
<g id="edge8" class="edge">
<title>&#45;14&#45;&gt;45</title>
<path fill="none" stroke="green" stroke-width="0.19" stroke-dasharray="1,5" d="M2303.39,-462.53C2330.11,-459.12 2386.59,-447.67 2410.88,-410.52 2458.26,-338.07 2453,-276.13 2389.88,-216.89 2353.65,-182.9 2202.55,-167.68 2138.63,-162.67"/>
<polygon fill="green" stroke="green" stroke-width="0.19" points="2138.69,-159.17 2128.46,-161.9 2138.16,-166.15 2138.69,-159.17"/>
</g>
<!-- &#45;14&#45;&gt;46 -->
<g id="edge30" class="edge">
<title>&#45;14&#45;&gt;46</title>
<path fill="none" stroke="green" stroke-width="0.93" d="M2274.26,-462.19C2244.74,-458.79 2175.89,-451.11 2117.88,-446.52 1836.09,-424.22 1761.53,-458.03 1482.88,-410.52 1454.15,-405.62 1257.47,-349.69 1230.88,-337.75 1227.98,-336.44 1225.03,-334.91 1222.15,-333.28"/>
<polygon fill="green" stroke="green" stroke-width="0.93" points="1223.73,-330.14 1213.37,-327.9 1220.07,-336.11 1223.73,-330.14"/>
</g>
<!-- &#45;14&#45;&gt;68 -->
<g id="edge112" class="edge">
<title>&#45;14&#45;&gt;68</title>
<path fill="none" stroke="red" stroke-width="0.43" d="M2274.32,-458.7C2241.24,-446.87 2159.99,-417.83 2117.6,-402.68"/>
<polygon fill="red" stroke="red" stroke-width="0.43" points="2118.55,-399.31 2107.96,-399.24 2116.2,-405.9 2118.55,-399.31"/>
</g>
<!-- &#45;15 -->
<g id="node15" class="node">
<title>&#45;15</title>
<polygon fill="lightgray" stroke="black" points="1029.38,-401.13 1000.38,-401.13 1000.38,-383.13 1029.38,-383.13 1029.38,-401.13"/>
<text text-anchor="middle" x="1014.88" y="-389.93" font-family="Times New Roman,serif" font-size="9.00">&#45;15</text>
</g>
<!-- &#45;15&#45;&gt;45 -->
<g id="edge10" class="edge">
<title>&#45;15&#45;&gt;45</title>
<path fill="none" stroke="red" stroke-width="0.21" stroke-dasharray="1,5" d="M1017.24,-383.04C1022.9,-364.96 1038.91,-320.82 1066.88,-295.32 1132.27,-235.71 1163.83,-237.5 1249.88,-216.89 1332.14,-197.19 1940.08,-168.44 2080.84,-161.99"/>
<polygon fill="red" stroke="red" stroke-width="0.21" points="2081.4,-165.47 2091.23,-161.52 2081.08,-158.48 2081.4,-165.47"/>
</g>
<!-- &#45;15&#45;&gt;46 -->
<g id="edge75" class="edge">
<title>&#45;15&#45;&gt;46</title>
<path fill="none" stroke="green" stroke-width="0.63" d="M1029.63,-385.23C1060.69,-372.81 1133.23,-343.79 1172.5,-328.08"/>
<polygon fill="green" stroke="green" stroke-width="0.63" points="1173.97,-331.27 1181.95,-324.3 1171.37,-324.77 1173.97,-331.27"/>
</g>
<!-- &#45;15&#45;&gt;49 -->
<g id="edge23" class="edge">
<title>&#45;15&#45;&gt;49</title>
<path fill="none" stroke="green" stroke-width="0.87" stroke-dasharray="1,5" d="M1022.29,-383.12C1039.24,-365.18 1082.81,-321.33 1126.88,-295.32 1166.69,-271.83 1218.04,-255.15 1249.16,-246.33"/>
<polygon fill="green" stroke="green" stroke-width="0.87" points="1250.18,-249.68 1258.89,-243.65 1248.32,-242.93 1250.18,-249.68"/>
</g>
<!-- &#45;15&#45;&gt;50 -->
<g id="edge43" class="edge">
<title>&#45;15&#45;&gt;50</title>
<path fill="none" stroke="red" stroke-width="0.15" d="M1029.65,-388.86C1051.83,-385.47 1095.07,-378.92 1131.88,-373.75 1252.64,-356.79 1290.96,-383.78 1403.88,-337.75 1405.71,-337 1407.53,-336.1 1409.3,-335.1"/>
<polygon fill="red" stroke="red" stroke-width="0.15" points="1411.32,-337.96 1417.7,-329.5 1407.44,-332.13 1411.32,-337.96"/>
</g>
<!-- &#45;15&#45;&gt;51 -->
<g id="edge33" class="edge">
<title>&#45;15&#45;&gt;51</title>
<path fill="none" stroke="red" stroke-width="0.86" d="M1004.34,-383.03C1000.23,-379.99 995.41,-376.59 990.88,-373.75 866.06,-295.51 837.96,-265.46 698.88,-216.89 614.03,-187.26 574.68,-230.73 499.88,-180.89 474.72,-164.13 457.52,-133.3 447.73,-111.13"/>
<polygon fill="red" stroke="red" stroke-width="0.86" points="450.85,-109.51 443.76,-101.64 444.39,-112.22 450.85,-109.51"/>
</g>
<!-- &#45;16 -->
<g id="node16" class="node">
<title>&#45;16</title>
<polygon fill="lightgray" stroke="black" points="1762.38,-325.53 1733.38,-325.53 1733.38,-307.53 1762.38,-307.53 1762.38,-325.53"/>
<text text-anchor="middle" x="1747.88" y="-314.33" font-family="Times New Roman,serif" font-size="9.00">&#45;16</text>
</g>
<!-- &#45;16&#45;&gt;42 -->
<g id="edge98" class="edge">
<title>&#45;16&#45;&gt;42</title>
<path fill="none" stroke="red" stroke-width="1.25" d="M1741.57,-307.36C1733.14,-296.44 1717.89,-276.69 1705.96,-261.23"/>
<polygon fill="red" stroke="red" stroke-width="1.25" points="1708.62,-258.95 1699.74,-253.17 1703.08,-263.22 1708.62,-258.95"/>
</g>
<!-- &#45;16&#45;&gt;44 -->
<g id="edge69" class="edge">
<title>&#45;16&#45;&gt;44</title>
<path fill="none" stroke="green" stroke-width="0.72" stroke-dasharray="1,5" d="M1737.51,-307.44C1732.14,-303.48 1725.36,-298.82 1718.88,-295.32 1680.96,-274.87 1657.11,-291.87 1628.88,-259.32 1611.89,-239.73 1606.5,-210.07 1604.99,-188.39"/>
<polygon fill="green" stroke="green" stroke-width="0.72" points="1608.48,-188 1604.52,-178.18 1601.49,-188.33 1608.48,-188"/>
</g>
<!-- &#45;16&#45;&gt;45 -->
<g id="edge126" class="edge">
<title>&#45;16&#45;&gt;45</title>
<path fill="none" stroke="green" stroke-width="0.21" d="M1736.39,-307.35C1731.1,-303.62 1724.71,-299.19 1718.88,-295.32 1693.92,-278.75 1676.34,-285.56 1661.88,-259.32 1652.78,-242.81 1649.41,-231.03 1661.88,-216.89 1689.76,-185.3 1986.77,-167.13 2081.22,-162.11"/>
<polygon fill="green" stroke="green" stroke-width="0.21" points="2081.65,-165.6 2091.45,-161.58 2081.29,-158.61 2081.65,-165.6"/>
</g>
<!-- &#45;16&#45;&gt;48 -->
<g id="edge17" class="edge">
<title>&#45;16&#45;&gt;48</title>
<path fill="none" stroke="red" stroke-width="0.68" d="M1737.93,-307.35C1732.55,-303.26 1725.65,-298.52 1718.88,-295.32 1665.45,-270.07 1647.71,-275.52 1590.88,-259.32 1576.77,-255.3 1561.08,-250.77 1548.13,-247.02"/>
<polygon fill="red" stroke="red" stroke-width="0.68" points="1549,-243.63 1538.42,-244.21 1547.05,-250.35 1549,-243.63"/>
</g>
<!-- &#45;16&#45;&gt;49 -->
<g id="edge71" class="edge">
<title>&#45;16&#45;&gt;49</title>
<path fill="none" stroke="red" stroke-width="0.93" d="M1733.27,-313.16C1666.95,-302.4 1393.65,-258.05 1304.87,-243.65"/>
<polygon fill="red" stroke="red" stroke-width="0.93" points="1305.42,-240.19 1294.99,-242.05 1304.3,-247.1 1305.42,-240.19"/>
</g>
<!-- &#45;17 -->
<g id="node17" class="node">
<title>&#45;17</title>
<polygon fill="lightgray" stroke="black" points="1394.38,-325.53 1365.38,-325.53 1365.38,-307.53 1394.38,-307.53 1394.38,-325.53"/>
<text text-anchor="middle" x="1379.88" y="-314.33" font-family="Times New Roman,serif" font-size="9.00">&#45;17</text>
</g>
<!-- &#45;17&#45;&gt;42 -->
<g id="edge56" class="edge">
<title>&#45;17&#45;&gt;42</title>
<path fill="none" stroke="red" stroke-width="0.18" stroke-dasharray="1,5" d="M1387.59,-307.28C1391.97,-303.08 1397.79,-298.24 1403.88,-295.32 1449.44,-273.46 1598.33,-251.38 1660.84,-242.82"/>
<polygon fill="red" stroke="red" stroke-width="0.18" points="1661.35,-246.28 1670.79,-241.47 1660.41,-239.34 1661.35,-246.28"/>
</g>
<!-- &#45;17&#45;&gt;44 -->
<g id="edge19" class="edge">
<title>&#45;17&#45;&gt;44</title>
<path fill="none" stroke="green" stroke-width="0.56" d="M1387.89,-307.36C1405.74,-289.42 1450.63,-245.92 1493.88,-216.89 1521.35,-198.46 1555.67,-181.97 1578.82,-171.69"/>
<polygon fill="green" stroke="green" stroke-width="0.56" points="1580.24,-174.89 1588,-167.68 1577.44,-168.47 1580.24,-174.89"/>
</g>
<!-- &#45;17&#45;&gt;48 -->
<g id="edge6" class="edge">
<title>&#45;17&#45;&gt;48</title>
<path fill="none" stroke="green" stroke-width="0.87" d="M1388.36,-307.49C1392.77,-303.53 1398.39,-298.87 1403.88,-295.32 1433.32,-276.29 1470.19,-259.63 1494.58,-249.49"/>
<polygon fill="green" stroke="green" stroke-width="0.87" points="1495.97,-252.7 1503.9,-245.68 1493.32,-246.22 1495.97,-252.7"/>
</g>
<!-- &#45;17&#45;&gt;49 -->
<g id="edge27" class="edge">
<title>&#45;17&#45;&gt;49</title>
<path fill="none" stroke="red" stroke-width="0.14" d="M1368.86,-307.36C1352.44,-295.17 1321.19,-271.98 1299.71,-256.04"/>
<polygon fill="red" stroke="red" stroke-width="0.14" points="1301.56,-253.06 1291.45,-249.92 1297.39,-258.69 1301.56,-253.06"/>
</g>
<!-- &#45;17&#45;&gt;51 -->
<g id="edge60" class="edge">
<title>&#45;17&#45;&gt;51</title>
<path fill="none" stroke="green" stroke-width="0.95" d="M1376.32,-307.47C1367.32,-288.15 1341.69,-239.18 1303.88,-216.89 1156.54,-130.04 599.58,-94.05 466.55,-86.6"/>
<polygon fill="green" stroke="green" stroke-width="0.95" points="466.53,-83.09 456.35,-86.04 466.14,-90.08 466.53,-83.09"/>
</g>
<!-- &#45;17&#45;&gt;78 -->
<g id="edge137" class="edge">
<title>&#45;17&#45;&gt;78</title>
<path fill="none" stroke="green" stroke-width="0.65" d="M1365.35,-309.75C1352.95,-305.07 1334.52,-298.71 1317.88,-295.32 1082.82,-247.43 791.5,-240.32 700.44,-239.28"/>
<polygon fill="green" stroke="green" stroke-width="0.65" points="700.37,-235.78 690.34,-239.18 700.31,-242.78 700.37,-235.78"/>
</g>
<!-- &#45;18 -->
<g id="node18" class="node">
<title>&#45;18</title>
<polygon fill="lightgray" stroke="black" points="1578.38,-401.13 1549.38,-401.13 1549.38,-383.13 1578.38,-383.13 1578.38,-401.13"/>
<text text-anchor="middle" x="1563.88" y="-389.93" font-family="Times New Roman,serif" font-size="9.00">&#45;18</text>
</g>
<!-- &#45;18&#45;&gt;0 -->
<g id="edge90" class="edge">
<title>&#45;18&#45;&gt;0</title>
<path fill="none" stroke="green" stroke-width="0.56" d="M1578.75,-385.26C1589.46,-381.3 1604.34,-376.34 1617.88,-373.75 1676.07,-362.59 2109.43,-381.03 2149.88,-337.75 2162.76,-323.97 2160.91,-310.62 2149.88,-295.32 2120.3,-254.27 2089.6,-276.14 2041.88,-259.32 1896.54,-208.09 1866.63,-174.86 1716.88,-138.47 1562.12,-100.86 1369.99,-89.17 1302.08,-86.07"/>
<polygon fill="green" stroke="green" stroke-width="0.56" points="1302.06,-82.57 1291.92,-85.63 1301.76,-89.56 1302.06,-82.57"/>
</g>
<!-- &#45;18&#45;&gt;42 -->
<g id="edge45" class="edge">
<title>&#45;18&#45;&gt;42</title>
<path fill="none" stroke="green" stroke-width="0.55" d="M1578.41,-385.93C1589.2,-382.19 1604.33,-377.22 1617.88,-373.75 1699.87,-352.74 1750.99,-403.01 1804.88,-337.75 1816.89,-323.21 1815.26,-311.06 1804.88,-295.32 1782.52,-261.41 1756.83,-278.23 1720.88,-259.32 1718.12,-257.87 1715.28,-256.26 1712.49,-254.6"/>
<polygon fill="green" stroke="green" stroke-width="0.55" points="1714.23,-251.57 1703.89,-249.28 1710.55,-257.52 1714.23,-251.57"/>
</g>
<!-- &#45;18&#45;&gt;46 -->
<g id="edge86" class="edge">
<title>&#45;18&#45;&gt;46</title>
<path fill="none" stroke="red" stroke-width="0.86" d="M1549.07,-383.34C1541.93,-379.9 1533.15,-376.11 1524.88,-373.75 1412.28,-341.59 1378.18,-363.22 1263.88,-337.75 1251.12,-334.9 1237.26,-330.74 1225.62,-326.94"/>
<polygon fill="red" stroke="red" stroke-width="0.86" points="1226.65,-323.59 1216.05,-323.72 1224.42,-330.23 1226.65,-323.59"/>
</g>
<!-- &#45;18&#45;&gt;48 -->
<g id="edge83" class="edge">
<title>&#45;18&#45;&gt;48</title>
<path fill="none" stroke="green" stroke-width="0.8" d="M1566.04,-383.13C1570.19,-366.29 1577.9,-326.2 1566.88,-295.32 1561.86,-281.26 1551.65,-268.19 1542.12,-258.19"/>
<polygon fill="green" stroke="green" stroke-width="0.8" points="1544.31,-255.43 1534.74,-250.88 1539.38,-260.4 1544.31,-255.43"/>
</g>
<!-- &#45;18&#45;&gt;49 -->
<g id="edge26" class="edge">
<title>&#45;18&#45;&gt;49</title>
<path fill="none" stroke="green" stroke-width="1.66" stroke-dasharray="1,5" d="M1557.07,-382.91C1541.44,-364.55 1500.98,-319.89 1457.88,-295.32 1407.93,-266.85 1341.83,-251.05 1304.91,-243.9"/>
<polygon fill="green" stroke="green" stroke-width="1.66" points="1305.34,-240.42 1294.87,-242.03 1304.06,-247.3 1305.34,-240.42"/>
</g>
<!-- &#45;18&#45;&gt;50 -->
<g id="edge132" class="edge">
<title>&#45;18&#45;&gt;50</title>
<path fill="none" stroke="red" stroke-width="0.53" d="M1549.39,-383.12C1526.87,-370.65 1483.18,-346.48 1455.6,-331.21"/>
<polygon fill="red" stroke="red" stroke-width="0.53" points="1457.03,-328 1446.58,-326.22 1453.64,-334.13 1457.03,-328"/>
</g>
<!-- &#45;19 -->
<g id="node19" class="node">
<title>&#45;19</title>
<polygon fill="lightgray" stroke="black" points="2140.38,-325.53 2111.38,-325.53 2111.38,-307.53 2140.38,-307.53 2140.38,-325.53"/>
<text text-anchor="middle" x="2125.88" y="-314.33" font-family="Times New Roman,serif" font-size="9.00">&#45;19</text>
</g>
<!-- &#45;19&#45;&gt;0 -->
<g id="edge99" class="edge">
<title>&#45;19&#45;&gt;0</title>
<path fill="none" stroke="green" stroke-width="0.94" stroke-dasharray="1,5" d="M2134.09,-307.29C2143.63,-297.06 2158.85,-278.59 2164.88,-259.32 2181.35,-206.7 2180.94,-171.61 2136.88,-138.47 2068.57,-87.08 1436.64,-84.9 1302.03,-85.02"/>
<polygon fill="green" stroke="green" stroke-width="0.94" points="1301.87,-81.52 1291.87,-85.04 1301.88,-88.52 1301.87,-81.52"/>
</g>
<!-- &#45;19&#45;&gt;1 -->
<g id="edge72" class="edge">
<title>&#45;19&#45;&gt;1</title>
<path fill="none" stroke="red" stroke-width="1" stroke-dasharray="1,5" d="M2138.76,-307.47C2152.65,-297.92 2173.98,-280.61 2182.88,-259.32 2203.79,-209.34 2198.54,-182.43 2166.88,-138.47 2129.09,-85.99 2102.65,-84.85 2040.88,-65.7 1922.53,-29.01 1527.77,-18.48 1424.03,-16.32"/>
<polygon fill="red" stroke="red" stroke-width="1" points="1423.95,-12.82 1413.88,-16.11 1423.81,-19.81 1423.95,-12.82"/>
</g>
<!-- &#45;19&#45;&gt;42 -->
<g id="edge4" class="edge">
<title>&#45;19&#45;&gt;42</title>
<path fill="none" stroke="red" stroke-width="1.06" d="M2111.35,-312.37C2091.92,-308.2 2056.4,-300.75 2025.88,-295.32 1922.28,-276.89 1895.53,-277.46 1791.88,-259.32 1766.35,-254.85 1737.4,-249.11 1716.71,-244.89"/>
<polygon fill="red" stroke="red" stroke-width="1.06" points="1717.2,-241.42 1706.7,-242.84 1715.79,-248.28 1717.2,-241.42"/>
</g>
<!-- &#45;19&#45;&gt;44 -->
<g id="edge32" class="edge">
<title>&#45;19&#45;&gt;44</title>
<path fill="none" stroke="red" stroke-width="0.32" d="M2116.26,-307.39C2110.87,-303.21 2103.85,-298.37 2096.88,-295.32 2028.51,-265.41 2003,-284.86 1932.88,-259.32 1894.7,-245.41 1890.01,-230.95 1851.88,-216.89 1775.12,-188.6 1679.51,-171.75 1632.96,-164.64"/>
<polygon fill="red" stroke="red" stroke-width="0.32" points="1633.42,-161.17 1623.01,-163.16 1632.38,-168.1 1633.42,-161.17"/>
</g>
<!-- &#45;19&#45;&gt;45 -->
<g id="edge35" class="edge">
<title>&#45;19&#45;&gt;45</title>
<path fill="none" stroke="green" stroke-width="1.32" stroke-dasharray="1,5" d="M2130.8,-307.5C2140.54,-290.55 2160.45,-249.97 2149.88,-216.89 2145.67,-203.7 2137.1,-190.96 2128.97,-180.95"/>
<polygon fill="green" stroke="green" stroke-width="1.32" points="2131.52,-178.55 2122.35,-173.24 2126.21,-183.11 2131.52,-178.55"/>
</g>
<!-- &#45;19&#45;&gt;48 -->
<g id="edge39" class="edge">
<title>&#45;19&#45;&gt;48</title>
<path fill="none" stroke="red" stroke-width="0.18" d="M2111.05,-312.05C2091.6,-307.59 2056.36,-299.9 2025.88,-295.32 1865.12,-271.19 1823.27,-278.86 1661.88,-259.32 1622.7,-254.58 1577.56,-247.89 1549.13,-243.53"/>
<polygon fill="red" stroke="red" stroke-width="0.18" points="1549.52,-240.05 1539.1,-241.98 1548.45,-246.96 1549.52,-240.05"/>
</g>
<!-- &#45;19&#45;&gt;49 -->
<g id="edge48" class="edge">
<title>&#45;19&#45;&gt;49</title>
<path fill="none" stroke="green" stroke-width="0.47" d="M2111.08,-311.9C2091.65,-307.29 2056.43,-299.42 2025.88,-295.32 1791,-263.78 1730.1,-278.31 1493.88,-259.32 1426.2,-253.88 1346.77,-246.13 1305.32,-241.99"/>
<polygon fill="green" stroke="green" stroke-width="0.47" points="1305.46,-238.48 1295.16,-240.97 1304.76,-245.45 1305.46,-238.48"/>
</g>
<!-- 117 -->
<g id="node39" class="node">
<title>117</title>
<ellipse fill="white" stroke="black" cx="2071.88" cy="-238.11" rx="21.43" ry="21.43"/>
<text text-anchor="middle" x="2071.88" y="-235.91" font-family="Times New Roman,serif" font-size="9.00">117</text>
</g>
<!-- &#45;19&#45;&gt;117 -->
<g id="edge130" class="edge">
<title>&#45;19&#45;&gt;117</title>
<path fill="none" stroke="red" stroke-width="0.32" d="M2120.1,-307.36C2112.87,-297.12 2100.15,-279.11 2089.59,-264.17"/>
<polygon fill="red" stroke="red" stroke-width="0.32" points="2092.31,-261.95 2083.68,-255.8 2086.59,-265.99 2092.31,-261.95"/>
</g>
<!-- 131&#45;&gt;78 -->
<g id="edge140" class="edge">
<title>131&#45;&gt;78</title>
<path fill="none" stroke="red" stroke-width="0.34" d="M567.62,-304.42C588.74,-291.19 624.11,-269.03 647.72,-254.24"/>
<polygon fill="red" stroke="red" stroke-width="0.34" points="649.82,-257.06 656.44,-248.78 646.11,-251.12 649.82,-257.06"/>
</g>
<!-- 137&#45;&gt;78 -->
<g id="edge143" class="edge">
<title>137&#45;&gt;78</title>
<path fill="none" stroke="red" stroke-width="1.51" d="M682.2,-295.45C680.57,-286.55 678.63,-275.95 676.87,-266.35"/>
<polygon fill="red" stroke="red" stroke-width="1.51" points="680.3,-265.66 675.06,-256.46 673.42,-266.93 680.3,-265.66"/>
</g>
<!-- 42&#45;&gt;1 -->
<g id="edge88" class="edge">
<title>42&#45;&gt;1</title>
<path fill="none" stroke="green" stroke-width="0.99" d="M1682.72,-220.57C1674.11,-199.32 1656.69,-162.32 1631.88,-138.47 1568.13,-77.19 1467.7,-38.51 1422.41,-23.26"/>
<polygon fill="green" stroke="green" stroke-width="0.99" points="1423.47,-19.93 1412.87,-20.13 1421.28,-26.57 1423.47,-19.93"/>
</g>
<!-- 42&#45;&gt;44 -->
<g id="edge141" class="edge">
<title>42&#45;&gt;44</title>
<path fill="none" stroke="green" stroke-width="0.3" d="M1675.76,-225.17C1662.4,-213.01 1641.48,-193.98 1625.83,-179.74"/>
<polygon fill="green" stroke="green" stroke-width="0.3" points="1627.94,-176.93 1618.19,-172.79 1623.23,-182.11 1627.94,-176.93"/>
</g>
<!-- 42&#45;&gt;45 -->
<g id="edge115" class="edge">
<title>42&#45;&gt;45</title>
<path fill="none" stroke="red" stroke-width="0.24" d="M1706.72,-233.5C1727.25,-229.38 1761.96,-222.47 1791.88,-216.89 1898.84,-196.95 2026.37,-174.94 2081.83,-165.46"/>
<polygon fill="red" stroke="red" stroke-width="0.24" points="2082.66,-168.87 2091.93,-163.73 2081.48,-161.97 2082.66,-168.87"/>
</g>
<!-- 44&#45;&gt;0 -->
<g id="edge3" class="edge">
<title>44&#45;&gt;0</title>
<path fill="none" stroke="red" stroke-width="0.36" d="M1586.78,-154.62C1531.43,-142.2 1364.37,-104.72 1301.32,-90.57"/>
<polygon fill="red" stroke="red" stroke-width="0.36" points="1301.99,-87.13 1291.47,-88.36 1300.46,-93.96 1301.99,-87.13"/>
</g>
<!-- 45&#45;&gt;0 -->
<g id="edge67" class="edge">
<title>45&#45;&gt;0</title>
<path fill="none" stroke="red" stroke-width="0.27" stroke-dasharray="1,5" d="M2093.54,-150.38C2084.22,-146.04 2072.17,-141.11 2060.88,-138.47 1911.43,-103.54 1419.1,-88.77 1302.02,-85.71"/>
<polygon fill="red" stroke="red" stroke-width="0.27" points="1301.98,-82.2 1291.89,-85.45 1301.8,-89.2 1301.98,-82.2"/>
</g>
<!-- 45&#45;&gt;1 -->
<g id="edge59" class="edge">
<title>45&#45;&gt;1</title>
<path fill="none" stroke="red" stroke-width="0.6" d="M2098.63,-144.93C2080.29,-123.63 2041.66,-83.29 1998.88,-65.7 1892.19,-21.83 1523.44,-16.55 1423.84,-15.93"/>
<polygon fill="red" stroke="red" stroke-width="0.6" points="1423.82,-12.43 1413.8,-15.88 1423.78,-19.43 1423.82,-12.43"/>
</g>
<!-- 45&#45;&gt;51 -->
<g id="edge144" class="edge">
<title>45&#45;&gt;51</title>
<path fill="none" stroke="red" stroke-width="0.58" d="M2091.53,-156.7C2053.2,-152.64 1961.79,-143.34 1884.88,-138.47 1313.98,-102.32 614.71,-88.25 466.36,-85.58"/>
<polygon fill="red" stroke="red" stroke-width="0.58" points="466.33,-82.07 456.27,-85.4 466.2,-89.07 466.33,-82.07"/>
</g>
<!-- 46&#45;&gt;0 -->
<g id="edge87" class="edge">
<title>46&#45;&gt;0</title>
<path fill="none" stroke="green" stroke-width="0.46" d="M1204.49,-298.96C1218.2,-258.46 1253.42,-154.4 1269.12,-108"/>
<polygon fill="green" stroke="green" stroke-width="0.46" points="1272.53,-108.86 1272.42,-98.27 1265.9,-106.62 1272.53,-108.86"/>
</g>
<!-- 46&#45;&gt;45 -->
<g id="edge102" class="edge">
<title>46&#45;&gt;45</title>
<path fill="none" stroke="red" stroke-width="0.9" d="M1215.46,-308.47C1259.73,-289.93 1384.74,-239.8 1493.88,-216.89 1716.85,-170.11 1993.31,-162.26 2081.48,-160.95"/>
<polygon fill="red" stroke="red" stroke-width="0.9" points="2081.56,-164.45 2091.51,-160.81 2081.47,-157.45 2081.56,-164.45"/>
</g>
<!-- 48&#45;&gt;1 -->
<g id="edge96" class="edge">
<title>48&#45;&gt;1</title>
<path fill="none" stroke="green" stroke-width="0.26" d="M1517.11,-220.06C1512.26,-199.86 1502.75,-165.55 1488.88,-138.47 1468.29,-98.28 1435.05,-57.07 1415.25,-34.13"/>
<polygon fill="green" stroke="green" stroke-width="0.26" points="1417.83,-31.77 1408.61,-26.55 1412.56,-36.38 1417.83,-31.77"/>
</g>
<!-- 49&#45;&gt;0 -->
<g id="edge64" class="edge">
<title>49&#45;&gt;0</title>
<path fill="none" stroke="red" stroke-width="0.19" stroke-dasharray="1,5" d="M1276.88,-219.67C1276.88,-192.58 1276.88,-140.3 1276.88,-109.48"/>
<polygon fill="red" stroke="red" stroke-width="0.19" points="1280.38,-109.18 1276.88,-99.19 1273.38,-109.19 1280.38,-109.18"/>
</g>
<!-- 49&#45;&gt;1 -->
<g id="edge34" class="edge">
<title>49&#45;&gt;1</title>
<path fill="none" stroke="green" stroke-width="0.27" d="M1285.46,-221.55C1306.88,-182.69 1362.76,-81.35 1387.18,-37.07"/>
<polygon fill="green" stroke="green" stroke-width="0.27" points="1390.26,-38.74 1392.02,-28.29 1384.13,-35.36 1390.26,-38.74"/>
</g>
<!-- 49&#45;&gt;63 -->
<g id="edge125" class="edge">
<title>49&#45;&gt;63</title>
<path fill="none" stroke="red" stroke-width="0.52" d="M1258.71,-235.26C1158.93,-225.09 677.59,-176.04 555.22,-163.57"/>
<polygon fill="red" stroke="red" stroke-width="0.52" points="555.45,-160.07 545.14,-162.54 554.74,-167.04 555.45,-160.07"/>
</g>
<!-- 50&#45;&gt;0 -->
<g id="edge77" class="edge">
<title>50&#45;&gt;0</title>
<path fill="none" stroke="green" stroke-width="1.07" d="M1424.55,-299.26C1411.4,-266.64 1378.8,-191.84 1336.88,-138.47 1325.26,-123.68 1309.23,-109.66 1296.66,-99.7"/>
<polygon fill="green" stroke="green" stroke-width="1.07" points="1298.67,-96.82 1288.61,-93.49 1294.4,-102.37 1298.67,-96.82"/>
</g>
<!-- 50&#45;&gt;42 -->
<g id="edge111" class="edge">
<title>50&#45;&gt;42</title>
<path fill="none" stroke="green" stroke-width="0.55" stroke-dasharray="1,5" d="M1448.61,-310.28C1492.91,-297.16 1608.62,-262.88 1661.64,-247.18"/>
<polygon fill="green" stroke="green" stroke-width="0.55" points="1662.77,-250.49 1671.36,-244.3 1660.78,-243.78 1662.77,-250.49"/>
</g>
<!-- 51&#45;&gt;1 -->
<g id="edge38" class="edge">
<title>51&#45;&gt;1</title>
<path fill="none" stroke="green" stroke-width="1.05" stroke-dasharray="1,5" d="M455.3,-78.15C470.4,-74.09 492.9,-68.55 512.88,-65.7 850.96,-17.37 1267.87,-15.36 1373.6,-15.69"/>
<polygon fill="green" stroke="green" stroke-width="1.05" points="1373.88,-19.19 1383.9,-15.73 1373.91,-12.19 1373.88,-19.19"/>
</g>
<!-- 61&#45;&gt;44 -->
<g id="edge108" class="edge">
<title>61&#45;&gt;44</title>
<path fill="none" stroke="green" stroke-width="0.49" stroke-dasharray="1,5" d="M2102.96,-450.88C2129.28,-420.89 2186.6,-345.69 2149.88,-295.32 2147.78,-292.44 1909.33,-217.77 1905.88,-216.89 1806.8,-191.83 1686.78,-172.71 1633.15,-164.74"/>
<polygon fill="green" stroke="green" stroke-width="0.49" points="1633.44,-161.24 1623.04,-163.25 1632.42,-168.17 1633.44,-161.24"/>
</g>
<!-- 61&#45;&gt;46 -->
<g id="edge104" class="edge">
<title>61&#45;&gt;46</title>
<path fill="none" stroke="green" stroke-width="1.01" d="M2072.24,-463.52C1973.43,-461.32 1510.22,-449.1 1372.88,-410.52 1314.41,-394.09 1253.45,-355.81 1221.51,-333.83"/>
<polygon fill="green" stroke="green" stroke-width="1.01" points="1223.5,-330.95 1213.3,-328.09 1219.49,-336.69 1223.5,-330.95"/>
</g>
<!-- 61&#45;&gt;68 -->
<g id="edge138" class="edge">
<title>61&#45;&gt;68</title>
<path fill="none" stroke="red" stroke-width="0.38" d="M2090.88,-446.41C2090.88,-438.73 2090.88,-429.52 2090.88,-420.93"/>
<polygon fill="red" stroke="red" stroke-width="0.38" points="2094.38,-420.92 2090.88,-410.92 2087.38,-420.92 2094.38,-420.92"/>
</g>
<!-- 61&#45;&gt;81 -->
<g id="edge129" class="edge">
<title>61&#45;&gt;81</title>
<path fill="none" stroke="green" stroke-width="0.4" stroke-dasharray="1,5" d="M2072.57,-463.08C1983.94,-458.99 1598.98,-439.8 1482.88,-410.52 1403.59,-390.52 1383,-381.45 1313.88,-337.75 1313.24,-337.34 1312.6,-336.92 1311.96,-336.48"/>
<polygon fill="green" stroke="green" stroke-width="0.4" points="1313.98,-333.62 1303.94,-330.26 1309.69,-339.15 1313.98,-333.62"/>
</g>
<!-- 121 -->
<g id="node40" class="node">
<title>121</title>
<ellipse fill="white" stroke="black" cx="1821.88" cy="-238.11" rx="21.43" ry="21.43"/>
<text text-anchor="middle" x="1821.88" y="-235.91" font-family="Times New Roman,serif" font-size="9.00">121</text>
</g>
<!-- 61&#45;&gt;121 -->
<g id="edge133" class="edge">
<title>61&#45;&gt;121</title>
<path fill="none" stroke="green" stroke-width="0.67" d="M2100.96,-449.13C2111.89,-431.2 2126.68,-400.09 2117.88,-373.75 2110.97,-353.06 2077.5,-306.67 2058.88,-295.32 1977.65,-245.81 1934.94,-297.67 1847.88,-259.32 1847.19,-259.02 1846.51,-258.69 1845.83,-258.35"/>
<polygon fill="green" stroke="green" stroke-width="0.67" points="1847.65,-255.36 1837.31,-253.06 1843.96,-261.31 1847.65,-255.36"/>
</g>
<!-- 63&#45;&gt;1 -->
<g id="edge107" class="edge">
<title>63&#45;&gt;1</title>
<path fill="none" stroke="red" stroke-width="0.13" d="M533.77,-142.42C543.98,-120.61 565.39,-82.65 596.88,-65.7 666.71,-28.11 1245.23,-17.97 1373.68,-16.17"/>
<polygon fill="red" stroke="red" stroke-width="0.13" points="1374.1,-19.66 1384.06,-16.03 1374.01,-12.66 1374.1,-19.66"/>
</g>
<!-- 63&#45;&gt;51 -->
<g id="edge119" class="edge">
<title>63&#45;&gt;51</title>
<path fill="none" stroke="red" stroke-width="0.16" d="M512.97,-147.18C498.74,-135.41 476.4,-116.94 459.78,-103.2"/>
<polygon fill="red" stroke="red" stroke-width="0.16" points="461.63,-100.18 451.69,-96.5 457.17,-105.57 461.63,-100.18"/>
</g>
<!-- 64&#45;&gt;42 -->
<g id="edge110" class="edge">
<title>64&#45;&gt;42</title>
<path fill="none" stroke="red" stroke-width="0.13" d="M1860.38,-305.18C1855.06,-301.71 1848.87,-298.03 1842.88,-295.32 1791.38,-272 1772.38,-282.64 1720.88,-259.32 1717.98,-258.01 1715.03,-256.47 1712.16,-254.83"/>
<polygon fill="red" stroke="red" stroke-width="0.13" points="1713.73,-251.7 1703.38,-249.46 1710.08,-257.67 1713.73,-251.7"/>
</g>
<!-- 68&#45;&gt;45 -->
<g id="edge113" class="edge">
<title>68&#45;&gt;45</title>
<path fill="none" stroke="red" stroke-width="0.23" d="M2109.2,-390.2C2164.7,-386.22 2329.87,-365.51 2372.88,-259.32 2379.96,-241.84 2384.74,-231.56 2372.88,-216.89 2343.66,-180.76 2200.88,-166.83 2138.8,-162.43"/>
<polygon fill="red" stroke="red" stroke-width="0.23" points="2138.74,-158.91 2128.53,-161.73 2138.27,-165.9 2138.74,-158.91"/>
</g>
<!-- 68&#45;&gt;64 -->
<g id="edge145" class="edge">
<title>68&#45;&gt;64</title>
<path fill="none" stroke="red" stroke-width="0.37" d="M2073.57,-385.23C2035.96,-372.42 1946.55,-341.95 1901.62,-326.64"/>
<polygon fill="red" stroke="red" stroke-width="0.37" points="1902.57,-323.27 1891.97,-323.36 1900.31,-329.9 1902.57,-323.27"/>
</g>
<!-- 78&#45;&gt;44 -->
<g id="edge117" class="edge">
<title>78&#45;&gt;44</title>
<path fill="none" stroke="red" stroke-width="0.31" d="M689.94,-234.57C719.97,-230.41 782.1,-222.09 834.88,-216.89 1123.82,-188.45 1475.06,-167.9 1576.32,-162.24"/>
<polygon fill="red" stroke="red" stroke-width="0.31" points="1576.59,-165.73 1586.38,-161.69 1576.2,-158.75 1576.59,-165.73"/>
</g>
<!-- 81&#45;&gt;48 -->
<g id="edge127" class="edge">
<title>81&#45;&gt;48</title>
<path fill="none" stroke="red" stroke-width="0.43" d="M1308.17,-309.79C1347.98,-296.56 1446.35,-263.87 1494.06,-248.02"/>
<polygon fill="red" stroke="red" stroke-width="0.43" points="1495.32,-251.29 1503.71,-244.81 1493.11,-244.65 1495.32,-251.29"/>
</g>
<!-- 81&#45;&gt;49 -->
<g id="edge121" class="edge">
<title>81&#45;&gt;49</title>
<path fill="none" stroke="red" stroke-width="0.37" d="M1287.7,-298.19C1285.99,-288.81 1283.82,-277.01 1281.88,-266.43"/>
<polygon fill="red" stroke="red" stroke-width="0.37" points="1285.29,-265.59 1280.05,-256.38 1278.4,-266.85 1285.29,-265.59"/>
</g>
<!-- 102&#45;&gt;0 -->
<g id="edge123" class="edge">
<title>102&#45;&gt;0</title>
<path fill="none" stroke="green" stroke-width="0.68" d="M410.96,-146.72C416.44,-143.47 422.7,-140.33 428.88,-138.47 588.59,-90.24 1128.08,-85.56 1251.56,-85.12"/>
<polygon fill="green" stroke="green" stroke-width="0.68" points="1251.89,-88.62 1261.88,-85.09 1251.87,-81.62 1251.89,-88.62"/>
</g>
<!-- 102&#45;&gt;51 -->
<g id="edge124" class="edge">
<title>102&#45;&gt;51</title>
<path fill="none" stroke="red" stroke-width="0.99" d="M404.53,-140.87C410.28,-131.26 417.44,-119.27 423.66,-108.88"/>
<polygon fill="red" stroke="red" stroke-width="0.99" points="426.69,-110.63 428.81,-100.25 420.68,-107.04 426.69,-110.63"/>
</g>
<!-- 117&#45;&gt;0 -->
<g id="edge146" class="edge">
<title>117&#45;&gt;0</title>
<path fill="none" stroke="green" stroke-width="0.28" d="M2059.32,-220.61C2040.69,-197.56 2003.35,-156.53 1960.88,-138.47 1838.74,-86.51 1410.88,-84.56 1302.16,-84.92"/>
<polygon fill="green" stroke="green" stroke-width="0.28" points="1301.82,-81.42 1291.84,-84.97 1301.86,-88.42 1301.82,-81.42"/>
</g>
<!-- 117&#45;&gt;45 -->
<g id="edge131" class="edge">
<title>117&#45;&gt;45</title>
<path fill="none" stroke="green" stroke-width="1.22" d="M2081.08,-218.61C2086.04,-208.63 2092.23,-196.18 2097.6,-185.39"/>
<polygon fill="green" stroke="green" stroke-width="1.22" points="2100.73,-186.94 2102.05,-176.43 2094.46,-183.83 2100.73,-186.94"/>
</g>
<!-- 121&#45;&gt;44 -->
<g id="edge134" class="edge">
<title>121&#45;&gt;44</title>
<path fill="none" stroke="red" stroke-width="0.67" d="M1804.12,-225.82C1798.71,-222.67 1792.67,-219.42 1786.88,-216.89 1734.06,-193.83 1668.8,-176.12 1632.52,-167.16"/>
<polygon fill="red" stroke="red" stroke-width="0.67" points="1633.21,-163.72 1622.67,-164.76 1631.56,-170.52 1633.21,-163.72"/>
</g>
<!-- 122&#45;&gt;61 -->
<g id="edge136" class="edge">
<title>122&#45;&gt;61</title>
<path fill="none" stroke="green" stroke-width="0.58" d="M2276.22,-532.44C2239.19,-519.15 2159.07,-490.38 2117.34,-475.4"/>
<polygon fill="green" stroke="green" stroke-width="0.58" points="2118.45,-472.08 2107.85,-471.99 2116.08,-478.67 2118.45,-472.08"/>
</g>
</g>
</svg>
