<?xml version="1.0" encoding="UTF-8" standalone="no"?>
<!DOCTYPE svg PUBLIC "-//W3C//DTD SVG 1.1//EN"
 "http://www.w3.org/Graphics/SVG/1.1/DTD/svg11.dtd">
<!-- Generated by graphviz version 2.47.0 (20210316.0004)
 -->
<!-- Pages: 1 -->
<svg width="394pt" height="157pt"
 viewBox="0.00 0.00 394.32 157.40" xmlns="http://www.w3.org/2000/svg" xmlns:xlink="http://www.w3.org/1999/xlink">
<g id="graph0" class="graph" transform="scale(1 1) rotate(0) translate(4 153.4)">
<polygon fill="white" stroke="transparent" points="-4,4 -4,-153.4 390.32,-153.4 390.32,4 -4,4"/>
<!-- &#45;1 -->
<g id="node1" class="node">
<title>&#45;1</title>
<polygon fill="lightgray" stroke="black" points="111,-149.4 87,-149.4 87,-131.4 111,-131.4 111,-149.4"/>
<text text-anchor="middle" x="99" y="-138.2" font-family="Times New Roman,serif" font-size="9.00">&#45;1</text>
</g>
<!-- 3 -->
<g id="node10" class="node">
<title>3</title>
<ellipse fill="white" stroke="black" cx="309" cy="-80.55" rx="14.7" ry="14.7"/>
<text text-anchor="middle" x="309" y="-78.35" font-family="Times New Roman,serif" font-size="9.00">3</text>
</g>
<!-- &#45;1&#45;&gt;3 -->
<g id="edge2" class="edge">
<title>&#45;1&#45;&gt;3</title>
<path fill="none" stroke="red" stroke-width="0.28" d="M111.04,-134.8C114.25,-133.63 117.74,-132.42 121,-131.4 179.1,-113.17 248.64,-95.88 284.67,-87.26"/>
<polygon fill="red" stroke="red" stroke-width="0.28" points="285.81,-90.59 294.73,-84.87 284.19,-83.78 285.81,-90.59"/>
</g>
<!-- 4 -->
<g id="node11" class="node">
<title>4</title>
<ellipse fill="white" stroke="black" cx="99" cy="-80.55" rx="14.7" ry="14.7"/>
<text text-anchor="middle" x="99" y="-78.35" font-family="Times New Roman,serif" font-size="9.00">4</text>
</g>
<!-- &#45;1&#45;&gt;4 -->
<g id="edge9" class="edge">
<title>&#45;1&#45;&gt;4</title>
<path fill="none" stroke="green" stroke-width="0.23" d="M99,-131.35C99,-124.75 99,-115.03 99,-105.93"/>
<polygon fill="green" stroke="green" stroke-width="0.23" points="102.5,-105.75 99,-95.75 95.5,-105.75 102.5,-105.75"/>
</g>
<!-- 6 -->
<g id="node13" class="node">
<title>6</title>
<ellipse fill="white" stroke="black" cx="51" cy="-80.55" rx="14.7" ry="14.7"/>
<text text-anchor="middle" x="51" y="-78.35" font-family="Times New Roman,serif" font-size="9.00">6</text>
</g>
<!-- &#45;1&#45;&gt;6 -->
<g id="edge12" class="edge">
<title>&#45;1&#45;&gt;6</title>
<path fill="none" stroke="red" stroke-width="0.46" d="M92.33,-131.35C85.74,-123.42 75.43,-110.99 66.75,-100.53"/>
<polygon fill="red" stroke="red" stroke-width="0.46" points="69.33,-98.15 60.25,-92.69 63.94,-102.62 69.33,-98.15"/>
</g>
<!-- &#45;2 -->
<g id="node2" class="node">
<title>&#45;2</title>
<polygon fill="lightgray" stroke="black" points="345,-149.4 321,-149.4 321,-131.4 345,-131.4 345,-149.4"/>
<text text-anchor="middle" x="333" y="-138.2" font-family="Times New Roman,serif" font-size="9.00">&#45;2</text>
</g>
<!-- 0 -->
<g id="node7" class="node">
<title>0</title>
<ellipse fill="lightblue" stroke="black" cx="158" cy="-14.85" rx="14.7" ry="14.7"/>
<text text-anchor="middle" x="158" y="-12.65" font-family="Times New Roman,serif" font-size="9.00">0</text>
</g>
<!-- &#45;2&#45;&gt;0 -->
<g id="edge26" class="edge">
<title>&#45;2&#45;&gt;0</title>
<path fill="none" stroke="red" stroke-width="0.19" d="M345.21,-131.26C364.78,-117.24 399.2,-87.9 381,-65.7 329.28,-2.61 279.96,-50.24 201,-29.7 194.68,-28.05 187.92,-26.01 181.68,-24.01"/>
<polygon fill="red" stroke="red" stroke-width="0.19" points="182.42,-20.57 171.83,-20.75 180.22,-27.21 182.42,-20.57"/>
</g>
<!-- 2 -->
<g id="node9" class="node">
<title>2</title>
<ellipse fill="white" stroke="black" cx="185" cy="-80.55" rx="14.7" ry="14.7"/>
<text text-anchor="middle" x="185" y="-78.35" font-family="Times New Roman,serif" font-size="9.00">2</text>
</g>
<!-- &#45;2&#45;&gt;2 -->
<g id="edge18" class="edge">
<title>&#45;2&#45;&gt;2</title>
<path fill="none" stroke="red" stroke-width="0.14" d="M320.89,-134.66C296.22,-125.02 239.8,-102.97 207.96,-90.52"/>
<polygon fill="red" stroke="red" stroke-width="0.14" points="209.14,-87.23 198.56,-86.85 206.59,-93.75 209.14,-87.23"/>
</g>
<!-- &#45;2&#45;&gt;3 -->
<g id="edge24" class="edge">
<title>&#45;2&#45;&gt;3</title>
<path fill="none" stroke="green" stroke-width="0.12" d="M329.66,-131.35C326.72,-124.26 322.28,-113.57 318.28,-103.91"/>
<polygon fill="green" stroke="green" stroke-width="0.12" points="321.4,-102.31 314.34,-94.41 314.94,-104.99 321.4,-102.31"/>
</g>
<!-- 5 -->
<g id="node12" class="node">
<title>5</title>
<ellipse fill="white" stroke="black" cx="357" cy="-80.55" rx="14.7" ry="14.7"/>
<text text-anchor="middle" x="357" y="-78.35" font-family="Times New Roman,serif" font-size="9.00">5</text>
</g>
<!-- &#45;2&#45;&gt;5 -->
<g id="edge3" class="edge">
<title>&#45;2&#45;&gt;5</title>
<path fill="none" stroke="red" stroke-width="0.42" d="M336.34,-131.35C339.28,-124.26 343.72,-113.57 347.72,-103.91"/>
<polygon fill="red" stroke="red" stroke-width="0.42" points="351.06,-104.99 351.66,-94.41 344.6,-102.31 351.06,-104.99"/>
</g>
<!-- &#45;3 -->
<g id="node3" class="node">
<title>&#45;3</title>
<polygon fill="lightgray" stroke="black" points="154,-149.4 130,-149.4 130,-131.4 154,-131.4 154,-149.4"/>
<text text-anchor="middle" x="142" y="-138.2" font-family="Times New Roman,serif" font-size="9.00">&#45;3</text>
</g>
<!-- 1 -->
<g id="node8" class="node">
<title>1</title>
<ellipse fill="lightblue" stroke="black" cx="225" cy="-14.85" rx="14.7" ry="14.7"/>
<text text-anchor="middle" x="225" y="-12.65" font-family="Times New Roman,serif" font-size="9.00">1</text>
</g>
<!-- &#45;3&#45;&gt;1 -->
<g id="edge7" class="edge">
<title>&#45;3&#45;&gt;1</title>
<path fill="none" stroke="green" stroke-width="0.17" d="M142.42,-130.96C143.51,-116.48 147.37,-86.47 161,-65.7 171.65,-49.47 189.38,-36.27 203.48,-27.54"/>
<polygon fill="green" stroke="green" stroke-width="0.17" points="205.27,-30.55 212.11,-22.46 201.72,-24.51 205.27,-30.55"/>
</g>
<!-- &#45;3&#45;&gt;2 -->
<g id="edge14" class="edge">
<title>&#45;3&#45;&gt;2</title>
<path fill="none" stroke="green" stroke-width="0.31" d="M147.98,-131.35C153.75,-123.59 162.71,-111.54 170.37,-101.23"/>
<polygon fill="green" stroke="green" stroke-width="0.31" points="173.25,-103.23 176.4,-93.12 167.63,-99.05 173.25,-103.23"/>
</g>
<!-- &#45;3&#45;&gt;6 -->
<g id="edge22" class="edge">
<title>&#45;3&#45;&gt;6</title>
<path fill="none" stroke="green" stroke-width="0.21" d="M129.73,-131.6C114.85,-122.14 89.57,-106.07 71.67,-94.69"/>
<polygon fill="green" stroke="green" stroke-width="0.21" points="73.4,-91.64 63.08,-89.23 69.64,-97.54 73.4,-91.64"/>
</g>
<!-- &#45;4 -->
<g id="node4" class="node">
<title>&#45;4</title>
<polygon fill="lightgray" stroke="black" points="66,-149.4 42,-149.4 42,-131.4 66,-131.4 66,-149.4"/>
<text text-anchor="middle" x="54" y="-138.2" font-family="Times New Roman,serif" font-size="9.00">&#45;4</text>
</g>
<!-- &#45;4&#45;&gt;0 -->
<g id="edge10" class="edge">
<title>&#45;4&#45;&gt;0</title>
<path fill="none" stroke="green" stroke-width="0.47" d="M46.22,-131.02C33.84,-116.65 12.46,-86.79 27,-65.7 50.85,-31.11 102.11,-20.5 132.96,-17.26"/>
<polygon fill="green" stroke="green" stroke-width="0.47" points="133.29,-20.75 142.95,-16.4 132.68,-13.77 133.29,-20.75"/>
</g>
<!-- &#45;4&#45;&gt;2 -->
<g id="edge23" class="edge">
<title>&#45;4&#45;&gt;2</title>
<path fill="none" stroke="red" stroke-width="0.1" d="M66.09,-134.06C87.98,-124.39 134.49,-103.85 162.41,-91.52"/>
<polygon fill="red" stroke="red" stroke-width="0.1" points="164.04,-94.63 171.78,-87.39 161.22,-88.22 164.04,-94.63"/>
</g>
<!-- &#45;4&#45;&gt;4 -->
<g id="edge16" class="edge">
<title>&#45;4&#45;&gt;4</title>
<path fill="none" stroke="red" stroke-width="0.52" d="M60.26,-131.35C66.37,-123.49 75.91,-111.23 83.99,-100.84"/>
<polygon fill="red" stroke="red" stroke-width="0.52" points="86.95,-102.74 90.33,-92.69 81.43,-98.44 86.95,-102.74"/>
</g>
<!-- &#45;4&#45;&gt;6 -->
<g id="edge25" class="edge">
<title>&#45;4&#45;&gt;6</title>
<path fill="none" stroke="red" stroke-width="0.21" d="M53.58,-131.35C53.24,-124.75 52.74,-115.03 52.26,-105.93"/>
<polygon fill="red" stroke="red" stroke-width="0.21" points="55.75,-105.56 51.74,-95.75 48.76,-105.92 55.75,-105.56"/>
</g>
<!-- &#45;5 -->
<g id="node5" class="node">
<title>&#45;5</title>
<polygon fill="lightgray" stroke="black" points="24,-149.4 0,-149.4 0,-131.4 24,-131.4 24,-149.4"/>
<text text-anchor="middle" x="12" y="-138.2" font-family="Times New Roman,serif" font-size="9.00">&#45;5</text>
</g>
<!-- &#45;5&#45;&gt;1 -->
<g id="edge11" class="edge">
<title>&#45;5&#45;&gt;1</title>
<path fill="none" stroke="red" stroke-width="0.14" d="M11.07,-131.25C9.82,-116.14 9.52,-83.67 27,-65.7 76.32,-15.01 113.84,-48.56 182,-29.7 188.3,-27.96 195.05,-25.88 201.29,-23.88"/>
<polygon fill="red" stroke="red" stroke-width="0.14" points="202.74,-27.08 211.15,-20.64 200.55,-20.43 202.74,-27.08"/>
</g>
<!-- &#45;5&#45;&gt;6 -->
<g id="edge8" class="edge">
<title>&#45;5&#45;&gt;6</title>
<path fill="none" stroke="green" stroke-width="0.24" d="M17.42,-131.35C22.54,-123.77 30.42,-112.07 37.26,-101.92"/>
<polygon fill="green" stroke="green" stroke-width="0.24" points="40.23,-103.79 42.91,-93.54 34.42,-99.88 40.23,-103.79"/>
</g>
<!-- &#45;6 -->
<g id="node6" class="node">
<title>&#45;6</title>
<polygon fill="lightgray" stroke="black" points="259,-149.4 235,-149.4 235,-131.4 259,-131.4 259,-149.4"/>
<text text-anchor="middle" x="247" y="-138.2" font-family="Times New Roman,serif" font-size="9.00">&#45;6</text>
</g>
<!-- &#45;6&#45;&gt;0 -->
<g id="edge17" class="edge">
<title>&#45;6&#45;&gt;0</title>
<path fill="none" stroke="red" stroke-width="0.2" d="M243.79,-131.17C238.04,-117.01 225.08,-87.46 209,-65.7 199.71,-53.13 187.18,-40.83 176.86,-31.6"/>
<polygon fill="red" stroke="red" stroke-width="0.2" points="179.01,-28.83 169.17,-24.9 174.41,-34.11 179.01,-28.83"/>
</g>
<!-- &#45;6&#45;&gt;1 -->
<g id="edge1" class="edge">
<title>&#45;6&#45;&gt;1</title>
<path fill="none" stroke="green" stroke-width="0.4" d="M247.14,-131.13C247.21,-117.39 246.7,-89.08 242,-65.7 240.16,-56.52 237.07,-46.71 234.03,-38.24"/>
<polygon fill="green" stroke="green" stroke-width="0.4" points="237.23,-36.83 230.43,-28.71 230.69,-39.3 237.23,-36.83"/>
</g>
<!-- &#45;6&#45;&gt;2 -->
<g id="edge6" class="edge">
<title>&#45;6&#45;&gt;2</title>
<path fill="none" stroke="red" stroke-width="0.14" d="M238.38,-131.35C229.3,-122.88 214.72,-109.28 203.1,-98.43"/>
<polygon fill="red" stroke="red" stroke-width="0.14" points="205.32,-95.72 195.62,-91.46 200.55,-100.84 205.32,-95.72"/>
</g>
<!-- &#45;6&#45;&gt;3 -->
<g id="edge15" class="edge">
<title>&#45;6&#45;&gt;3</title>
<path fill="none" stroke="red" stroke-width="0.52" d="M255.62,-131.35C264.7,-122.88 279.28,-109.28 290.9,-98.43"/>
<polygon fill="red" stroke="red" stroke-width="0.52" points="293.45,-100.84 298.38,-91.46 288.68,-95.72 293.45,-100.84"/>
</g>
<!-- &#45;6&#45;&gt;4 -->
<g id="edge21" class="edge">
<title>&#45;6&#45;&gt;4</title>
<path fill="none" stroke="green" stroke-width="0.19" d="M234.89,-134.66C210.22,-125.02 153.8,-102.97 121.96,-90.52"/>
<polygon fill="green" stroke="green" stroke-width="0.19" points="123.14,-87.23 112.56,-86.85 120.59,-93.75 123.14,-87.23"/>
</g>
<!-- &#45;6&#45;&gt;5 -->
<g id="edge20" class="edge">
<title>&#45;6&#45;&gt;5</title>
<path fill="none" stroke="green" stroke-width="0.12" d="M259.06,-133.46C275.79,-125.18 306.92,-109.58 333,-95.4 333.81,-94.95 334.64,-94.5 335.47,-94.04"/>
<polygon fill="green" stroke="green" stroke-width="0.12" points="337.39,-96.98 344.36,-89 333.94,-90.89 337.39,-96.98"/>
</g>
<!-- 2&#45;&gt;1 -->
<g id="edge19" class="edge">
<title>2&#45;&gt;1</title>
<path fill="none" stroke="green" stroke-width="0.25" d="M192.52,-67.57C198,-58.85 205.55,-46.82 212,-36.56"/>
<polygon fill="green" stroke="green" stroke-width="0.25" points="215.16,-38.11 217.51,-27.78 209.23,-34.38 215.16,-38.11"/>
</g>
<!-- 3&#45;&gt;1 -->
<g id="edge5" class="edge">
<title>3&#45;&gt;1</title>
<path fill="none" stroke="red" stroke-width="0.3" d="M297.32,-70.69C283.78,-60.42 261.24,-43.33 244.91,-30.95"/>
<polygon fill="red" stroke="red" stroke-width="0.3" points="246.66,-27.88 236.58,-24.63 242.43,-33.46 246.66,-27.88"/>
</g>
<!-- 4&#45;&gt;0 -->
<g id="edge13" class="edge">
<title>4&#45;&gt;0</title>
<path fill="none" stroke="red" stroke-width="0.3" d="M108.74,-69.03C117.49,-59.59 130.52,-45.52 140.98,-34.23"/>
<polygon fill="red" stroke="red" stroke-width="0.3" points="143.82,-36.31 148.05,-26.6 138.68,-31.55 143.82,-36.31"/>
</g>
<!-- 5&#45;&gt;1 -->
<g id="edge4" class="edge">
<title>5&#45;&gt;1</title>
<path fill="none" stroke="red" stroke-width="0.31" d="M344.41,-72C340.77,-69.89 336.76,-67.65 333,-65.7 304.06,-50.71 269.75,-35.25 247.7,-25.61"/>
<polygon fill="red" stroke="red" stroke-width="0.31" points="249.06,-22.38 238.49,-21.6 246.27,-28.8 249.06,-22.38"/>
</g>
</g>
</svg>
