<?xml version="1.0" encoding="UTF-8" standalone="no"?>
<!DOCTYPE svg PUBLIC "-//W3C//DTD SVG 1.1//EN"
 "http://www.w3.org/Graphics/SVG/1.1/DTD/svg11.dtd">
<!-- Generated by graphviz version 2.47.0 (20210316.0004)
 -->
<!-- Pages: 1 -->
<svg width="378pt" height="157pt"
 viewBox="0.00 0.00 377.55 157.40" xmlns="http://www.w3.org/2000/svg" xmlns:xlink="http://www.w3.org/1999/xlink">
<g id="graph0" class="graph" transform="scale(1 1) rotate(0) translate(4 153.4)">
<polygon fill="white" stroke="transparent" points="-4,4 -4,-153.4 373.55,-153.4 373.55,4 -4,4"/>
<!-- &#45;1 -->
<g id="node1" class="node">
<title>&#45;1</title>
<polygon fill="lightgray" stroke="black" points="181,-149.4 157,-149.4 157,-131.4 181,-131.4 181,-149.4"/>
<text text-anchor="middle" x="169" y="-138.2" font-family="Times New Roman,serif" font-size="9.00">&#45;1</text>
</g>
<!-- 3 -->
<g id="node9" class="node">
<title>3</title>
<ellipse fill="white" stroke="black" cx="217" cy="-80.55" rx="14.7" ry="14.7"/>
<text text-anchor="middle" x="217" y="-78.35" font-family="Times New Roman,serif" font-size="9.00">3</text>
</g>
<!-- &#45;1&#45;&gt;3 -->
<g id="edge2" class="edge">
<title>&#45;1&#45;&gt;3</title>
<path fill="none" stroke="red" stroke-width="0.28" d="M175.67,-131.35C182.26,-123.42 192.57,-110.99 201.25,-100.53"/>
<polygon fill="red" stroke="red" stroke-width="0.28" points="204.06,-102.62 207.75,-92.69 198.67,-98.15 204.06,-102.62"/>
</g>
<!-- 4 -->
<g id="node10" class="node">
<title>4</title>
<ellipse fill="white" stroke="black" cx="169" cy="-80.55" rx="14.7" ry="14.7"/>
<text text-anchor="middle" x="169" y="-78.35" font-family="Times New Roman,serif" font-size="9.00">4</text>
</g>
<!-- &#45;1&#45;&gt;4 -->
<g id="edge8" class="edge">
<title>&#45;1&#45;&gt;4</title>
<path fill="none" stroke="green" stroke-width="0.48" d="M169,-131.35C169,-124.75 169,-115.03 169,-105.93"/>
<polygon fill="green" stroke="green" stroke-width="0.48" points="172.5,-105.75 169,-95.75 165.5,-105.75 172.5,-105.75"/>
</g>
<!-- 6 -->
<g id="node12" class="node">
<title>6</title>
<ellipse fill="white" stroke="black" cx="83" cy="-80.55" rx="14.7" ry="14.7"/>
<text text-anchor="middle" x="83" y="-78.35" font-family="Times New Roman,serif" font-size="9.00">6</text>
</g>
<!-- &#45;1&#45;&gt;6 -->
<g id="edge11" class="edge">
<title>&#45;1&#45;&gt;6</title>
<path fill="none" stroke="red" stroke-width="0.36" d="M157.04,-131.35C143.18,-122.03 120.1,-106.5 103.39,-95.26"/>
<polygon fill="red" stroke="red" stroke-width="0.36" points="105.11,-92.2 94.86,-89.52 101.2,-98.01 105.11,-92.2"/>
</g>
<!-- &#45;2 -->
<g id="node2" class="node">
<title>&#45;2</title>
<polygon fill="lightgray" stroke="black" points="353,-149.4 329,-149.4 329,-131.4 353,-131.4 353,-149.4"/>
<text text-anchor="middle" x="341" y="-138.2" font-family="Times New Roman,serif" font-size="9.00">&#45;2</text>
</g>
<!-- 0 -->
<g id="node7" class="node">
<title>0</title>
<ellipse fill="lightblue" stroke="black" cx="269" cy="-14.85" rx="14.7" ry="14.7"/>
<text text-anchor="middle" x="269" y="-12.65" font-family="Times New Roman,serif" font-size="9.00">0</text>
</g>
<!-- &#45;2&#45;&gt;0 -->
<g id="edge21" class="edge">
<title>&#45;2&#45;&gt;0</title>
<path fill="none" stroke="red" stroke-width="0.23" d="M347.96,-131.14C359.03,-116.93 378.13,-87.32 365,-65.7 349.53,-40.23 316.35,-27.18 293.36,-20.94"/>
<polygon fill="red" stroke="red" stroke-width="0.23" points="294.16,-17.53 283.61,-18.53 292.48,-24.33 294.16,-17.53"/>
</g>
<!-- &#45;2&#45;&gt;3 -->
<g id="edge19" class="edge">
<title>&#45;2&#45;&gt;3</title>
<path fill="none" stroke="green" stroke-width="0.12" d="M328.66,-133.64C307.91,-123.96 265.74,-104.29 239.58,-92.08"/>
<polygon fill="green" stroke="green" stroke-width="0.12" points="240.96,-88.86 230.41,-87.81 238,-95.21 240.96,-88.86"/>
</g>
<!-- 5 -->
<g id="node11" class="node">
<title>5</title>
<ellipse fill="white" stroke="black" cx="341" cy="-80.55" rx="14.7" ry="14.7"/>
<text text-anchor="middle" x="341" y="-78.35" font-family="Times New Roman,serif" font-size="9.00">5</text>
</g>
<!-- &#45;2&#45;&gt;5 -->
<g id="edge3" class="edge">
<title>&#45;2&#45;&gt;5</title>
<path fill="none" stroke="red" stroke-width="0.46" d="M341,-131.35C341,-124.75 341,-115.03 341,-105.93"/>
<polygon fill="red" stroke="red" stroke-width="0.46" points="344.5,-105.75 341,-95.75 337.5,-105.75 344.5,-105.75"/>
</g>
<!-- &#45;3 -->
<g id="node3" class="node">
<title>&#45;3</title>
<polygon fill="lightgray" stroke="black" points="85,-149.4 61,-149.4 61,-131.4 85,-131.4 85,-149.4"/>
<text text-anchor="middle" x="73" y="-138.2" font-family="Times New Roman,serif" font-size="9.00">&#45;3</text>
</g>
<!-- 1 -->
<g id="node8" class="node">
<title>1</title>
<ellipse fill="lightblue" stroke="black" cx="193" cy="-14.85" rx="14.7" ry="14.7"/>
<text text-anchor="middle" x="193" y="-12.65" font-family="Times New Roman,serif" font-size="9.00">1</text>
</g>
<!-- &#45;3&#45;&gt;1 -->
<g id="edge6" class="edge">
<title>&#45;3&#45;&gt;1</title>
<path fill="none" stroke="red" stroke-width="0.22" d="M67.87,-131.28C59.43,-116.77 44.88,-86.02 59,-65.7 83.58,-30.33 136.41,-20 167.9,-17.02"/>
<polygon fill="red" stroke="red" stroke-width="0.22" points="168.36,-20.5 178.06,-16.25 167.83,-13.52 168.36,-20.5"/>
</g>
<!-- &#45;3&#45;&gt;6 -->
<g id="edge18" class="edge">
<title>&#45;3&#45;&gt;6</title>
<path fill="none" stroke="green" stroke-width="0.21" d="M74.39,-131.35C75.56,-124.59 77.29,-114.55 78.9,-105.26"/>
<polygon fill="green" stroke="green" stroke-width="0.21" points="82.37,-105.75 80.62,-95.3 75.47,-104.56 82.37,-105.75"/>
</g>
<!-- &#45;4 -->
<g id="node4" class="node">
<title>&#45;4</title>
<polygon fill="lightgray" stroke="black" points="138,-149.4 114,-149.4 114,-131.4 138,-131.4 138,-149.4"/>
<text text-anchor="middle" x="126" y="-138.2" font-family="Times New Roman,serif" font-size="9.00">&#45;4</text>
</g>
<!-- &#45;4&#45;&gt;0 -->
<g id="edge9" class="edge">
<title>&#45;4&#45;&gt;0</title>
<path fill="none" stroke="green" stroke-width="0.53" d="M125.83,-130.99C125.99,-116.02 128.44,-84.57 145,-65.7 158.55,-50.27 212.63,-32.35 244.73,-22.75"/>
<polygon fill="green" stroke="green" stroke-width="0.53" points="246.07,-26.01 254.68,-19.84 244.1,-19.29 246.07,-26.01"/>
</g>
<!-- &#45;4&#45;&gt;4 -->
<g id="edge14" class="edge">
<title>&#45;4&#45;&gt;4</title>
<path fill="none" stroke="green" stroke-width="0.14" d="M131.98,-131.35C137.75,-123.59 146.71,-111.54 154.37,-101.23"/>
<polygon fill="green" stroke="green" stroke-width="0.14" points="157.25,-103.23 160.4,-93.12 151.63,-99.05 157.25,-103.23"/>
</g>
<!-- &#45;4&#45;&gt;6 -->
<g id="edge20" class="edge">
<title>&#45;4&#45;&gt;6</title>
<path fill="none" stroke="red" stroke-width="0.32" d="M120.02,-131.35C114.25,-123.59 105.29,-111.54 97.63,-101.23"/>
<polygon fill="red" stroke="red" stroke-width="0.32" points="100.37,-99.05 91.6,-93.12 94.75,-103.23 100.37,-99.05"/>
</g>
<!-- &#45;5 -->
<g id="node5" class="node">
<title>&#45;5</title>
<polygon fill="lightgray" stroke="black" points="24,-149.4 0,-149.4 0,-131.4 24,-131.4 24,-149.4"/>
<text text-anchor="middle" x="12" y="-138.2" font-family="Times New Roman,serif" font-size="9.00">&#45;5</text>
</g>
<!-- &#45;5&#45;&gt;1 -->
<g id="edge10" class="edge">
<title>&#45;5&#45;&gt;1</title>
<path fill="none" stroke="green" stroke-width="0.29" d="M13.9,-131.28C17.85,-116.21 28.32,-83.81 49,-65.7 83.36,-35.6 136.87,-23.43 168.07,-18.69"/>
<polygon fill="green" stroke="green" stroke-width="0.29" points="168.68,-22.14 178.11,-17.31 167.72,-15.2 168.68,-22.14"/>
</g>
<!-- &#45;5&#45;&gt;6 -->
<g id="edge7" class="edge">
<title>&#45;5&#45;&gt;6</title>
<path fill="none" stroke="green" stroke-width="0.24" d="M21.87,-131.35C32.73,-122.51 50.43,-108.09 63.99,-97.03"/>
<polygon fill="green" stroke="green" stroke-width="0.24" points="66.27,-99.7 71.81,-90.67 61.85,-94.27 66.27,-99.7"/>
</g>
<!-- &#45;6 -->
<g id="node6" class="node">
<title>&#45;6</title>
<polygon fill="lightgray" stroke="black" points="272,-149.4 248,-149.4 248,-131.4 272,-131.4 272,-149.4"/>
<text text-anchor="middle" x="260" y="-138.2" font-family="Times New Roman,serif" font-size="9.00">&#45;6</text>
</g>
<!-- &#45;6&#45;&gt;0 -->
<g id="edge15" class="edge">
<title>&#45;6&#45;&gt;0</title>
<path fill="none" stroke="red" stroke-width="0.16" d="M263.47,-131.15C266.93,-122.44 272.01,-108.23 274,-95.4 276.88,-76.84 275.3,-55.61 273.18,-39.75"/>
<polygon fill="red" stroke="red" stroke-width="0.16" points="276.62,-39.1 271.68,-29.73 269.7,-40.14 276.62,-39.1"/>
</g>
<!-- &#45;6&#45;&gt;1 -->
<g id="edge1" class="edge">
<title>&#45;6&#45;&gt;1</title>
<path fill="none" stroke="green" stroke-width="0.46" d="M259.25,-131.15C257.68,-116.97 253.11,-87.39 241,-65.7 233.77,-52.75 222.35,-40.7 212.47,-31.69"/>
<polygon fill="green" stroke="green" stroke-width="0.46" points="214.49,-28.81 204.65,-24.89 209.89,-34.09 214.49,-28.81"/>
</g>
<!-- &#45;6&#45;&gt;3 -->
<g id="edge13" class="edge">
<title>&#45;6&#45;&gt;3</title>
<path fill="none" stroke="red" stroke-width="0.27" d="M254.02,-131.35C248.25,-123.59 239.29,-111.54 231.63,-101.23"/>
<polygon fill="red" stroke="red" stroke-width="0.27" points="234.37,-99.05 225.6,-93.12 228.75,-103.23 234.37,-99.05"/>
</g>
<!-- &#45;6&#45;&gt;4 -->
<g id="edge17" class="edge">
<title>&#45;6&#45;&gt;4</title>
<path fill="none" stroke="red" stroke-width="0.17" d="M247.73,-131.6C232.85,-122.14 207.57,-106.07 189.67,-94.69"/>
<polygon fill="red" stroke="red" stroke-width="0.17" points="191.4,-91.64 181.08,-89.23 187.64,-97.54 191.4,-91.64"/>
</g>
<!-- &#45;6&#45;&gt;5 -->
<g id="edge16" class="edge">
<title>&#45;6&#45;&gt;5</title>
<path fill="none" stroke="green" stroke-width="0.12" d="M271.26,-131.35C284.05,-122.22 305.18,-107.13 320.83,-95.95"/>
<polygon fill="green" stroke="green" stroke-width="0.12" points="323.2,-98.56 329.31,-89.9 319.14,-92.86 323.2,-98.56"/>
</g>
<!-- 3&#45;&gt;1 -->
<g id="edge5" class="edge">
<title>3&#45;&gt;1</title>
<path fill="none" stroke="red" stroke-width="0.43" d="M212.03,-66.35C209,-58.32 205.06,-47.85 201.54,-38.53"/>
<polygon fill="red" stroke="red" stroke-width="0.43" points="204.77,-37.15 197.97,-29.03 198.22,-39.62 204.77,-37.15"/>
</g>
<!-- 4&#45;&gt;0 -->
<g id="edge12" class="edge">
<title>4&#45;&gt;0</title>
<path fill="none" stroke="red" stroke-width="0.23" d="M181.26,-71.74C197.91,-61.14 227.89,-42.04 248.11,-29.15"/>
<polygon fill="red" stroke="red" stroke-width="0.23" points="250.08,-32.05 256.64,-23.72 246.32,-26.14 250.08,-32.05"/>
</g>
<!-- 4&#45;&gt;1 -->
<g id="edge22" class="edge">
<title>4&#45;&gt;1</title>
<path fill="none" stroke="green" stroke-width="0.2" d="M173.97,-66.35C177,-58.32 180.94,-47.85 184.46,-38.53"/>
<polygon fill="green" stroke="green" stroke-width="0.2" points="187.78,-39.62 188.03,-29.03 181.23,-37.15 187.78,-39.62"/>
</g>
<!-- 5&#45;&gt;1 -->
<g id="edge4" class="edge">
<title>5&#45;&gt;1</title>
<path fill="none" stroke="green" stroke-width="0.14" d="M327.6,-73.78C302.18,-62.84 246.68,-38.95 215.47,-25.52"/>
<polygon fill="green" stroke="green" stroke-width="0.14" points="216.83,-22.29 206.26,-21.56 214.06,-28.72 216.83,-22.29"/>
</g>
</g>
</svg>
