<?xml version="1.0" encoding="UTF-8" standalone="no"?>
<!DOCTYPE svg PUBLIC "-//W3C//DTD SVG 1.1//EN"
 "http://www.w3.org/Graphics/SVG/1.1/DTD/svg11.dtd">
<!-- Generated by graphviz version 2.47.0 (20210316.0004)
 -->
<!-- Pages: 1 -->
<svg width="355pt" height="164pt"
 viewBox="0.00 0.00 355.38 164.47" xmlns="http://www.w3.org/2000/svg" xmlns:xlink="http://www.w3.org/1999/xlink">
<g id="graph0" class="graph" transform="scale(1 1) rotate(0) translate(4 160.47)">
<polygon fill="white" stroke="transparent" points="-4,4 -4,-160.47 351.38,-160.47 351.38,4 -4,4"/>
<!-- &#45;1 -->
<g id="node1" class="node">
<title>&#45;1</title>
<polygon fill="lightgray" stroke="black" points="24,-156.47 0,-156.47 0,-138.47 24,-138.47 24,-156.47"/>
<text text-anchor="middle" x="12" y="-145.27" font-family="Times New Roman,serif" font-size="9.00">&#45;1</text>
</g>
<!-- 19 -->
<g id="node11" class="node">
<title>19</title>
<ellipse fill="white" stroke="black" cx="35" cy="-84.08" rx="18.27" ry="18.27"/>
<text text-anchor="middle" x="35" y="-81.88" font-family="Times New Roman,serif" font-size="9.00">19</text>
</g>
<!-- &#45;1&#45;&gt;19 -->
<g id="edge12" class="edge">
<title>&#45;1&#45;&gt;19</title>
<path fill="none" stroke="green" stroke-width="0.16" d="M15.01,-138.44C17.62,-131.47 21.55,-120.98 25.24,-111.13"/>
<polygon fill="green" stroke="green" stroke-width="0.16" points="28.56,-112.25 28.79,-101.66 22,-109.8 28.56,-112.25"/>
</g>
<!-- &#45;2 -->
<g id="node2" class="node">
<title>&#45;2</title>
<polygon fill="lightgray" stroke="black" points="66,-156.47 42,-156.47 42,-138.47 66,-138.47 66,-156.47"/>
<text text-anchor="middle" x="54" y="-145.27" font-family="Times New Roman,serif" font-size="9.00">&#45;2</text>
</g>
<!-- 0 -->
<g id="node7" class="node">
<title>0</title>
<ellipse fill="lightblue" stroke="black" cx="94" cy="-14.85" rx="14.7" ry="14.7"/>
<text text-anchor="middle" x="94" y="-12.65" font-family="Times New Roman,serif" font-size="9.00">0</text>
</g>
<!-- &#45;2&#45;&gt;0 -->
<g id="edge11" class="edge">
<title>&#45;2&#45;&gt;0</title>
<path fill="none" stroke="red" stroke-width="0.34" d="M41.95,-139.12C30.78,-131.52 14.86,-118.52 8,-102.47 1.58,-87.44 -0.16,-79.86 8,-65.7 21.19,-42.8 49.37,-29.46 69.89,-22.44"/>
<polygon fill="red" stroke="red" stroke-width="0.34" points="71.04,-25.74 79.53,-19.4 68.94,-19.07 71.04,-25.74"/>
</g>
<!-- 17 -->
<g id="node9" class="node">
<title>17</title>
<ellipse fill="white" stroke="black" cx="90" cy="-84.08" rx="18.27" ry="18.27"/>
<text text-anchor="middle" x="90" y="-81.88" font-family="Times New Roman,serif" font-size="9.00">17</text>
</g>
<!-- &#45;2&#45;&gt;17 -->
<g id="edge10" class="edge">
<title>&#45;2&#45;&gt;17</title>
<path fill="none" stroke="red" stroke-width="0.22" d="M58.71,-138.44C63.07,-131 69.79,-119.55 75.88,-109.16"/>
<polygon fill="red" stroke="red" stroke-width="0.22" points="78.96,-110.82 81,-100.42 72.92,-107.28 78.96,-110.82"/>
</g>
<!-- &#45;2&#45;&gt;19 -->
<g id="edge17" class="edge">
<title>&#45;2&#45;&gt;19</title>
<path fill="none" stroke="red" stroke-width="0.1" d="M51.52,-138.44C49.4,-131.59 46.22,-121.34 43.22,-111.65"/>
<polygon fill="red" stroke="red" stroke-width="0.1" points="46.51,-110.43 40.21,-101.91 39.82,-112.5 46.51,-110.43"/>
</g>
<!-- 21 -->
<g id="node13" class="node">
<title>21</title>
<ellipse fill="white" stroke="black" cx="237" cy="-84.08" rx="18.27" ry="18.27"/>
<text text-anchor="middle" x="237" y="-81.88" font-family="Times New Roman,serif" font-size="9.00">21</text>
</g>
<!-- &#45;2&#45;&gt;21 -->
<g id="edge3" class="edge">
<title>&#45;2&#45;&gt;21</title>
<path fill="none" stroke="green" stroke-width="0.17" d="M66.4,-141.64C69.22,-140.57 72.21,-139.46 75,-138.47 122.09,-121.75 177.48,-103.88 209.78,-93.64"/>
<polygon fill="green" stroke="green" stroke-width="0.17" points="210.93,-96.94 219.41,-90.59 208.82,-90.27 210.93,-96.94"/>
</g>
<!-- &#45;3 -->
<g id="node3" class="node">
<title>&#45;3</title>
<polygon fill="lightgray" stroke="black" points="157,-156.47 133,-156.47 133,-138.47 157,-138.47 157,-156.47"/>
<text text-anchor="middle" x="145" y="-145.27" font-family="Times New Roman,serif" font-size="9.00">&#45;3</text>
</g>
<!-- 1 -->
<g id="node8" class="node">
<title>1</title>
<ellipse fill="lightblue" stroke="black" cx="145" cy="-14.85" rx="14.7" ry="14.7"/>
<text text-anchor="middle" x="145" y="-12.65" font-family="Times New Roman,serif" font-size="9.00">1</text>
</g>
<!-- &#45;3&#45;&gt;1 -->
<g id="edge16" class="edge">
<title>&#45;3&#45;&gt;1</title>
<path fill="none" stroke="green" stroke-width="0.11" d="M151.9,-138.37C158.53,-130.01 168.1,-116.27 172,-102.47 176.44,-86.74 176.01,-81.54 172,-65.7 169.37,-55.33 164.11,-44.78 158.92,-36.07"/>
<polygon fill="green" stroke="green" stroke-width="0.11" points="161.76,-34.01 153.45,-27.44 155.85,-37.76 161.76,-34.01"/>
</g>
<!-- &#45;3&#45;&gt;17 -->
<g id="edge15" class="edge">
<title>&#45;3&#45;&gt;17</title>
<path fill="none" stroke="green" stroke-width="0.12" d="M137.81,-138.44C130.5,-130.28 118.86,-117.3 108.9,-106.18"/>
<polygon fill="green" stroke="green" stroke-width="0.12" points="111.31,-103.62 102.03,-98.51 106.09,-108.29 111.31,-103.62"/>
</g>
<!-- 18 -->
<g id="node10" class="node">
<title>18</title>
<ellipse fill="white" stroke="black" cx="145" cy="-84.08" rx="18.27" ry="18.27"/>
<text text-anchor="middle" x="145" y="-81.88" font-family="Times New Roman,serif" font-size="9.00">18</text>
</g>
<!-- &#45;3&#45;&gt;18 -->
<g id="edge13" class="edge">
<title>&#45;3&#45;&gt;18</title>
<path fill="none" stroke="green" stroke-width="0.12" d="M145,-138.44C145,-131.88 145,-122.19 145,-112.86"/>
<polygon fill="green" stroke="green" stroke-width="0.12" points="148.5,-112.67 145,-102.67 141.5,-112.67 148.5,-112.67"/>
</g>
<!-- &#45;3&#45;&gt;19 -->
<g id="edge4" class="edge">
<title>&#45;3&#45;&gt;19</title>
<path fill="none" stroke="red" stroke-width="0.4" d="M132.92,-140.29C116.81,-131.98 87.48,-116.62 63,-102.47 61.7,-101.72 60.37,-100.94 59.03,-100.14"/>
<polygon fill="red" stroke="red" stroke-width="0.4" points="60.66,-97.03 50.3,-94.82 57.02,-103.01 60.66,-97.03"/>
</g>
<!-- &#45;3&#45;&gt;21 -->
<g id="edge23" class="edge">
<title>&#45;3&#45;&gt;21</title>
<path fill="none" stroke="red" stroke-width="0.13" d="M157.03,-138.44C171.21,-128.98 195.14,-113.02 213.13,-101.01"/>
<polygon fill="red" stroke="red" stroke-width="0.13" points="215.54,-103.61 221.91,-95.15 211.65,-97.79 215.54,-103.61"/>
</g>
<!-- &#45;4 -->
<g id="node4" class="node">
<title>&#45;4</title>
<polygon fill="lightgray" stroke="black" points="316,-156.47 292,-156.47 292,-138.47 316,-138.47 316,-156.47"/>
<text text-anchor="middle" x="304" y="-145.27" font-family="Times New Roman,serif" font-size="9.00">&#45;4</text>
</g>
<!-- 20 -->
<g id="node12" class="node">
<title>20</title>
<ellipse fill="white" stroke="black" cx="329" cy="-84.08" rx="18.27" ry="18.27"/>
<text text-anchor="middle" x="329" y="-81.88" font-family="Times New Roman,serif" font-size="9.00">20</text>
</g>
<!-- &#45;4&#45;&gt;20 -->
<g id="edge26" class="edge">
<title>&#45;4&#45;&gt;20</title>
<path fill="none" stroke="green" stroke-width="0.16" d="M307.27,-138.44C310.13,-131.42 314.44,-120.83 318.47,-110.93"/>
<polygon fill="green" stroke="green" stroke-width="0.16" points="321.82,-111.99 322.35,-101.41 315.34,-109.35 321.82,-111.99"/>
</g>
<!-- &#45;4&#45;&gt;21 -->
<g id="edge5" class="edge">
<title>&#45;4&#45;&gt;21</title>
<path fill="none" stroke="green" stroke-width="0.18" d="M295.24,-138.44C285.72,-129.72 270.19,-115.49 257.55,-103.91"/>
<polygon fill="green" stroke="green" stroke-width="0.18" points="259.88,-101.3 250.14,-97.12 255.15,-106.46 259.88,-101.3"/>
</g>
<!-- &#45;5 -->
<g id="node5" class="node">
<title>&#45;5</title>
<polygon fill="lightgray" stroke="black" points="108,-156.47 84,-156.47 84,-138.47 108,-138.47 108,-156.47"/>
<text text-anchor="middle" x="96" y="-145.27" font-family="Times New Roman,serif" font-size="9.00">&#45;5</text>
</g>
<!-- &#45;5&#45;&gt;17 -->
<g id="edge1" class="edge">
<title>&#45;5&#45;&gt;17</title>
<path fill="none" stroke="green" stroke-width="0.23" d="M95.22,-138.44C94.57,-131.83 93.61,-122.05 92.7,-112.66"/>
<polygon fill="green" stroke="green" stroke-width="0.23" points="96.15,-112.03 91.69,-102.42 89.18,-112.71 96.15,-112.03"/>
</g>
<!-- &#45;5&#45;&gt;18 -->
<g id="edge18" class="edge">
<title>&#45;5&#45;&gt;18</title>
<path fill="none" stroke="red" stroke-width="0.31" d="M102.41,-138.44C108.77,-130.47 118.82,-117.88 127.56,-106.93"/>
<polygon fill="red" stroke="red" stroke-width="0.31" points="130.4,-108.98 133.91,-98.98 124.93,-104.61 130.4,-108.98"/>
</g>
<!-- &#45;5&#45;&gt;19 -->
<g id="edge6" class="edge">
<title>&#45;5&#45;&gt;19</title>
<path fill="none" stroke="green" stroke-width="0.59" d="M88.03,-138.44C79.73,-130.1 66.42,-116.71 55.21,-105.42"/>
<polygon fill="green" stroke="green" stroke-width="0.59" points="57.41,-102.67 47.88,-98.04 52.44,-107.6 57.41,-102.67"/>
</g>
<!-- &#45;6 -->
<g id="node6" class="node">
<title>&#45;6</title>
<polygon fill="lightgray" stroke="black" points="249,-156.47 225,-156.47 225,-138.47 249,-138.47 249,-156.47"/>
<text text-anchor="middle" x="237" y="-145.27" font-family="Times New Roman,serif" font-size="9.00">&#45;6</text>
</g>
<!-- &#45;6&#45;&gt;0 -->
<g id="edge24" class="edge">
<title>&#45;6&#45;&gt;0</title>
<path fill="none" stroke="green" stroke-width="0.29" d="M244.49,-138.05C257.54,-122.33 281.45,-88.09 264,-65.7 223.71,-14.01 182.33,-52.8 121,-29.7 119.34,-29.07 117.65,-28.37 115.96,-27.63"/>
<polygon fill="green" stroke="green" stroke-width="0.29" points="117.16,-24.32 106.64,-23.08 114.1,-30.61 117.16,-24.32"/>
</g>
<!-- &#45;6&#45;&gt;18 -->
<g id="edge2" class="edge">
<title>&#45;6&#45;&gt;18</title>
<path fill="none" stroke="green" stroke-width="0.18" d="M224.97,-138.44C210.79,-128.98 186.86,-113.02 168.87,-101.01"/>
<polygon fill="green" stroke="green" stroke-width="0.18" points="170.35,-97.79 160.09,-95.15 166.46,-103.61 170.35,-97.79"/>
</g>
<!-- &#45;6&#45;&gt;21 -->
<g id="edge19" class="edge">
<title>&#45;6&#45;&gt;21</title>
<path fill="none" stroke="red" stroke-width="0.24" d="M237,-138.44C237,-131.88 237,-122.19 237,-112.86"/>
<polygon fill="red" stroke="red" stroke-width="0.24" points="240.5,-112.67 237,-102.67 233.5,-112.67 240.5,-112.67"/>
</g>
<!-- 17&#45;&gt;0 -->
<g id="edge8" class="edge">
<title>17&#45;&gt;0</title>
<path fill="none" stroke="green" stroke-width="0.18" d="M91.05,-65.42C91.51,-57.65 92.06,-48.4 92.56,-40.01"/>
<polygon fill="green" stroke="green" stroke-width="0.18" points="96.06,-40.2 93.16,-30.01 89.07,-39.78 96.06,-40.2"/>
</g>
<!-- 17&#45;&gt;1 -->
<g id="edge20" class="edge">
<title>17&#45;&gt;1</title>
<path fill="none" stroke="red" stroke-width="0.11" d="M101.4,-69.15C109.52,-59.22 120.54,-45.75 129.47,-34.84"/>
<polygon fill="red" stroke="red" stroke-width="0.11" points="132.18,-37.05 135.8,-27.09 126.76,-32.61 132.18,-37.05"/>
</g>
<!-- 18&#45;&gt;0 -->
<g id="edge22" class="edge">
<title>18&#45;&gt;0</title>
<path fill="none" stroke="green" stroke-width="0.18" d="M134.18,-68.82C126.8,-59.09 116.93,-46.07 108.81,-35.38"/>
<polygon fill="green" stroke="green" stroke-width="0.18" points="111.6,-33.26 102.77,-27.41 106.02,-37.49 111.6,-33.26"/>
</g>
<!-- 18&#45;&gt;1 -->
<g id="edge25" class="edge">
<title>18&#45;&gt;1</title>
<path fill="none" stroke="red" stroke-width="0.42" d="M145,-65.42C145,-57.74 145,-48.61 145,-40.29"/>
<polygon fill="red" stroke="red" stroke-width="0.42" points="148.5,-40.01 145,-30.01 141.5,-40.01 148.5,-40.01"/>
</g>
<!-- 19&#45;&gt;0 -->
<g id="edge7" class="edge">
<title>19&#45;&gt;0</title>
<path fill="none" stroke="green" stroke-width="0.57" d="M46.66,-69.8C55.63,-59.58 68.13,-45.33 78.03,-34.05"/>
<polygon fill="green" stroke="green" stroke-width="0.57" points="80.73,-36.28 84.69,-26.45 75.47,-31.66 80.73,-36.28"/>
</g>
<!-- 19&#45;&gt;1 -->
<g id="edge9" class="edge">
<title>19&#45;&gt;1</title>
<path fill="none" stroke="green" stroke-width="0.12" d="M50.39,-73.49C54.48,-70.95 58.9,-68.21 63,-65.7 83.53,-53.09 107.03,-38.82 123.6,-28.78"/>
<polygon fill="green" stroke="green" stroke-width="0.12" points="125.73,-31.58 132.47,-23.41 122.11,-25.6 125.73,-31.58"/>
</g>
<!-- 20&#45;&gt;1 -->
<g id="edge14" class="edge">
<title>20&#45;&gt;1</title>
<path fill="none" stroke="green" stroke-width="0.23" d="M313.33,-73.84C308.22,-71.02 302.46,-68.05 297,-65.7 252.98,-46.71 199.2,-30.66 168.85,-22.22"/>
<polygon fill="green" stroke="green" stroke-width="0.23" points="169.71,-18.83 159.14,-19.56 167.86,-25.58 169.71,-18.83"/>
</g>
<!-- 21&#45;&gt;0 -->
<g id="edge21" class="edge">
<title>21&#45;&gt;0</title>
<path fill="none" stroke="green" stroke-width="0.27" d="M220.38,-75.7C197.76,-65.6 156.09,-46.76 121,-29.7 119.4,-28.92 117.76,-28.11 116.11,-27.29"/>
<polygon fill="green" stroke="green" stroke-width="0.27" points="117.35,-23.99 106.85,-22.58 114.18,-30.23 117.35,-23.99"/>
</g>
</g>
</svg>
