<?xml version="1.0" encoding="utf-8" standalone="no"?>
<!DOCTYPE svg PUBLIC "-//W3C//DTD SVG 1.1//EN"
  "http://www.w3.org/Graphics/SVG/1.1/DTD/svg11.dtd">
<svg height="345.6pt" version="1.1" viewBox="0 0 460.8 345.6" width="460.8pt" xmlns="http://www.w3.org/2000/svg" xmlns:xlink="http://www.w3.org/1999/xlink">
 <metadata>
  <rdf:RDF xmlns:cc="http://creativecommons.org/ns#" xmlns:dc="http://purl.org/dc/elements/1.1/" xmlns:rdf="http://www.w3.org/1999/02/22-rdf-syntax-ns#">
   <cc:Work>
    <dc:type rdf:resource="http://purl.org/dc/dcmitype/StillImage"/>
    <dc:date>2021-04-14T22:44:07.809383</dc:date>
    <dc:format>image/svg+xml</dc:format>
    <dc:creator>
     <cc:Agent>
      <dc:title>Matplotlib v3.4.1, https://matplotlib.org/</dc:title>
     </cc:Agent>
    </dc:creator>
   </cc:Work>
  </rdf:RDF>
 </metadata>
 <defs>
  <style type="text/css">*{stroke-linecap:butt;stroke-linejoin:round;}</style>
 </defs>
 <g id="figure_1">
  <g id="patch_1">
   <path d="M 0 345.6 
L 460.8 345.6 
L 460.8 0 
L 0 0 
z
" style="fill:#ffffff;"/>
  </g>
  <g id="axes_1">
   <g id="patch_2">
    <path d="M 57.6 307.584 
L 414.72 307.584 
L 414.72 41.472 
L 57.6 41.472 
z
" style="fill:#ffffff;"/>
   </g>
   <g id="PolyCollection_1">
    <path clip-path="url(#p2e7baa0e43)" d="M 73.832727 180.864 
L 73.832727 307.584 
L 76.515823 307.584 
L 79.198918 307.584 
L 81.882014 307.584 
L 84.565109 307.584 
L 87.248204 307.584 
L 89.9313 307.584 
L 92.614395 307.584 
L 95.297491 307.584 
L 97.980586 307.584 
L 100.663681 307.584 
L 103.346777 307.584 
L 106.029872 307.584 
L 108.712968 307.584 
L 111.396063 307.584 
L 114.079159 307.584 
L 116.762254 307.584 
L 119.445349 307.584 
L 122.128445 307.584 
L 124.81154 307.584 
L 127.494636 307.584 
L 130.177731 307.584 
L 132.860826 307.584 
L 135.543922 307.584 
L 138.227017 307.584 
L 140.910113 307.584 
L 143.593208 307.584 
L 146.276304 307.584 
L 148.959399 307.584 
L 151.642494 307.584 
L 154.32559 307.584 
L 157.008685 307.584 
L 159.691781 307.584 
L 162.374876 307.584 
L 165.057971 307.584 
L 167.741067 307.584 
L 170.424162 307.584 
L 173.107258 307.584 
L 175.790353 307.584 
L 178.473449 307.584 
L 181.156544 307.584 
L 183.839639 307.584 
L 186.522735 307.584 
L 189.20583 307.584 
L 191.888926 307.584 
L 194.572021 307.584 
L 197.255116 307.584 
L 199.938212 307.584 
L 202.621307 307.584 
L 205.304403 307.584 
L 207.987498 307.584 
L 210.670594 307.584 
L 213.353689 307.584 
L 216.036784 307.584 
L 218.71988 307.584 
L 221.402975 307.584 
L 224.086071 307.584 
L 226.769166 307.584 
L 229.452261 307.584 
L 232.135357 307.584 
L 234.818452 307.584 
L 237.501548 307.584 
L 240.184643 307.584 
L 242.867739 307.584 
L 245.550834 307.584 
L 248.233929 307.584 
L 250.917025 307.584 
L 253.60012 307.584 
L 256.283216 307.584 
L 258.966311 307.584 
L 261.649406 307.584 
L 264.332502 307.584 
L 267.015597 307.584 
L 269.698693 307.584 
L 272.381788 307.584 
L 275.064884 307.584 
L 277.747979 307.584 
L 280.431074 307.584 
L 283.11417 307.584 
L 285.797265 307.584 
L 288.480361 307.584 
L 291.163456 307.584 
L 293.846551 307.584 
L 296.529647 307.584 
L 299.212742 307.584 
L 301.895838 307.584 
L 304.578933 307.584 
L 307.262029 307.584 
L 309.945124 307.584 
L 312.628219 307.584 
L 315.311315 307.584 
L 317.99441 307.584 
L 320.677506 307.584 
L 323.360601 307.584 
L 326.043696 307.584 
L 328.726792 307.584 
L 331.409887 307.584 
L 334.092983 307.584 
L 336.776078 307.584 
L 339.459174 307.584 
L 342.142269 307.584 
L 344.825364 307.584 
L 347.50846 307.584 
L 350.191555 307.584 
L 352.874651 307.584 
L 355.557746 307.584 
L 358.240841 307.584 
L 360.923937 307.584 
L 363.607032 307.584 
L 366.290128 307.584 
L 368.973223 307.584 
L 371.656319 307.584 
L 374.339414 307.584 
L 377.022509 307.584 
L 379.705605 307.584 
L 382.3887 307.584 
L 385.071796 307.584 
L 387.754891 307.584 
L 390.437986 307.584 
L 393.121082 307.584 
L 395.804177 307.584 
L 398.487273 307.584 
L 398.487273 180.864 
L 398.487273 180.864 
L 395.804177 180.864 
L 393.121082 180.864 
L 390.437986 180.864 
L 387.754891 180.864 
L 385.071796 180.864 
L 382.3887 180.864 
L 379.705605 180.864 
L 377.022509 180.864 
L 374.339414 180.864 
L 371.656319 180.864 
L 368.973223 180.864 
L 366.290128 180.864 
L 363.607032 180.864 
L 360.923937 180.864 
L 358.240841 180.864 
L 355.557746 180.864 
L 352.874651 180.864 
L 350.191555 180.864 
L 347.50846 180.864 
L 344.825364 180.864 
L 342.142269 180.864 
L 339.459174 180.864 
L 336.776078 180.864 
L 334.092983 180.864 
L 331.409887 180.864 
L 328.726792 180.864 
L 326.043696 180.864 
L 323.360601 180.864 
L 320.677506 180.864 
L 317.99441 180.864 
L 315.311315 180.864 
L 312.628219 180.864 
L 309.945124 180.864 
L 307.262029 180.864 
L 304.578933 180.864 
L 301.895838 180.864 
L 299.212742 180.864 
L 296.529647 180.864 
L 293.846551 180.864 
L 291.163456 180.864 
L 288.480361 180.864 
L 285.797265 180.864 
L 283.11417 180.864 
L 280.431074 180.864 
L 277.747979 180.864 
L 275.064884 180.864 
L 272.381788 180.864 
L 269.698693 180.864 
L 267.015597 180.864 
L 264.332502 180.864 
L 261.649406 180.864 
L 258.966311 180.864 
L 256.283216 180.864 
L 253.60012 180.864 
L 250.917025 180.864 
L 248.233929 180.864 
L 245.550834 180.864 
L 242.867739 180.864 
L 240.184643 180.864 
L 237.501548 180.864 
L 234.818452 180.864 
L 232.135357 180.864 
L 229.452261 180.864 
L 226.769166 180.864 
L 224.086071 180.864 
L 221.402975 180.864 
L 218.71988 180.864 
L 216.036784 180.864 
L 213.353689 180.864 
L 210.670594 180.864 
L 207.987498 180.864 
L 205.304403 180.864 
L 202.621307 180.864 
L 199.938212 180.864 
L 197.255116 180.864 
L 194.572021 180.864 
L 191.888926 180.864 
L 189.20583 180.864 
L 186.522735 180.864 
L 183.839639 180.864 
L 181.156544 180.864 
L 178.473449 180.864 
L 175.790353 180.864 
L 173.107258 180.864 
L 170.424162 180.864 
L 167.741067 180.864 
L 165.057971 180.864 
L 162.374876 180.864 
L 159.691781 180.864 
L 157.008685 180.864 
L 154.32559 180.864 
L 151.642494 180.864 
L 148.959399 180.864 
L 146.276304 180.864 
L 143.593208 180.864 
L 140.910113 180.864 
L 138.227017 180.864 
L 135.543922 180.864 
L 132.860826 180.864 
L 130.177731 180.864 
L 127.494636 180.864 
L 124.81154 180.864 
L 122.128445 180.864 
L 119.445349 180.864 
L 116.762254 180.864 
L 114.079159 180.864 
L 111.396063 180.864 
L 108.712968 180.864 
L 106.029872 180.864 
L 103.346777 180.864 
L 100.663681 180.864 
L 97.980586 180.864 
L 95.297491 180.864 
L 92.614395 180.864 
L 89.9313 180.864 
L 87.248204 180.864 
L 84.565109 180.864 
L 81.882014 180.864 
L 79.198918 180.864 
L 76.515823 180.864 
L 73.832727 180.864 
z
" style="fill:#1f77b4;"/>
   </g>
   <g id="PolyCollection_2">
    <path clip-path="url(#p2e7baa0e43)" d="M 73.832727 180.864 
L 73.832727 180.864 
L 76.515823 180.864 
L 79.198918 180.864 
L 81.882014 180.864 
L 84.565109 180.864 
L 87.248204 180.864 
L 89.9313 180.864 
L 92.614395 180.864 
L 95.297491 180.864 
L 97.980586 180.864 
L 100.663681 180.864 
L 103.346777 180.864 
L 106.029872 180.864 
L 108.712968 180.864 
L 111.396063 180.864 
L 114.079159 180.864 
L 116.762254 180.864 
L 119.445349 180.864 
L 122.128445 180.864 
L 124.81154 180.864 
L 127.494636 180.864 
L 130.177731 180.864 
L 132.860826 180.864 
L 135.543922 180.864 
L 138.227017 180.864 
L 140.910113 180.864 
L 143.593208 180.864 
L 146.276304 180.864 
L 148.959399 180.864 
L 151.642494 180.864 
L 154.32559 180.864 
L 157.008685 180.864 
L 159.691781 180.864 
L 162.374876 180.864 
L 165.057971 180.864 
L 167.741067 180.864 
L 170.424162 180.864 
L 173.107258 180.864 
L 175.790353 180.864 
L 178.473449 180.864 
L 181.156544 180.864 
L 183.839639 180.864 
L 186.522735 180.864 
L 189.20583 180.864 
L 191.888926 180.864 
L 194.572021 180.864 
L 197.255116 180.864 
L 199.938212 180.864 
L 202.621307 180.864 
L 205.304403 180.864 
L 207.987498 180.864 
L 210.670594 180.864 
L 213.353689 180.864 
L 216.036784 180.864 
L 218.71988 180.864 
L 221.402975 180.864 
L 224.086071 180.864 
L 226.769166 180.864 
L 229.452261 180.864 
L 232.135357 180.864 
L 234.818452 180.864 
L 237.501548 180.864 
L 240.184643 180.864 
L 242.867739 180.864 
L 245.550834 180.864 
L 248.233929 180.864 
L 250.917025 180.864 
L 253.60012 180.864 
L 256.283216 180.864 
L 258.966311 180.864 
L 261.649406 180.864 
L 264.332502 180.864 
L 267.015597 180.864 
L 269.698693 180.864 
L 272.381788 180.864 
L 275.064884 180.864 
L 277.747979 180.864 
L 280.431074 180.864 
L 283.11417 180.864 
L 285.797265 180.864 
L 288.480361 180.864 
L 291.163456 180.864 
L 293.846551 180.864 
L 296.529647 180.864 
L 299.212742 180.864 
L 301.895838 180.864 
L 304.578933 180.864 
L 307.262029 180.864 
L 309.945124 180.864 
L 312.628219 180.864 
L 315.311315 180.864 
L 317.99441 180.864 
L 320.677506 180.864 
L 323.360601 180.864 
L 326.043696 180.864 
L 328.726792 180.864 
L 331.409887 180.864 
L 334.092983 180.864 
L 336.776078 180.864 
L 339.459174 180.864 
L 342.142269 180.864 
L 344.825364 180.864 
L 347.50846 180.864 
L 350.191555 180.864 
L 352.874651 180.864 
L 355.557746 180.864 
L 358.240841 180.864 
L 360.923937 180.864 
L 363.607032 180.864 
L 366.290128 180.864 
L 368.973223 180.864 
L 371.656319 180.864 
L 374.339414 180.864 
L 377.022509 180.864 
L 379.705605 180.864 
L 382.3887 180.864 
L 385.071796 180.864 
L 387.754891 180.864 
L 390.437986 180.864 
L 393.121082 180.864 
L 395.804177 180.864 
L 398.487273 180.864 
L 398.487273 180.864 
L 398.487273 180.864 
L 395.804177 180.864 
L 393.121082 180.864 
L 390.437986 180.864 
L 387.754891 180.864 
L 385.071796 180.864 
L 382.3887 180.864 
L 379.705605 180.864 
L 377.022509 180.864 
L 374.339414 180.864 
L 371.656319 180.864 
L 368.973223 180.864 
L 366.290128 180.864 
L 363.607032 180.864 
L 360.923937 180.864 
L 358.240841 180.864 
L 355.557746 180.864 
L 352.874651 180.864 
L 350.191555 180.864 
L 347.50846 180.864 
L 344.825364 180.864 
L 342.142269 180.864 
L 339.459174 180.864 
L 336.776078 180.864 
L 334.092983 180.864 
L 331.409887 180.864 
L 328.726792 180.864 
L 326.043696 180.864 
L 323.360601 180.864 
L 320.677506 180.864 
L 317.99441 180.864 
L 315.311315 180.864 
L 312.628219 180.864 
L 309.945124 180.864 
L 307.262029 180.864 
L 304.578933 180.864 
L 301.895838 180.864 
L 299.212742 180.864 
L 296.529647 180.864 
L 293.846551 180.864 
L 291.163456 180.864 
L 288.480361 180.864 
L 285.797265 180.864 
L 283.11417 180.864 
L 280.431074 180.864 
L 277.747979 180.864 
L 275.064884 180.864 
L 272.381788 180.864 
L 269.698693 180.864 
L 267.015597 180.864 
L 264.332502 180.864 
L 261.649406 180.864 
L 258.966311 180.864 
L 256.283216 180.864 
L 253.60012 180.864 
L 250.917025 180.864 
L 248.233929 180.864 
L 245.550834 180.864 
L 242.867739 180.864 
L 240.184643 180.864 
L 237.501548 180.864 
L 234.818452 180.864 
L 232.135357 180.864 
L 229.452261 180.864 
L 226.769166 180.864 
L 224.086071 180.864 
L 221.402975 180.864 
L 218.71988 180.864 
L 216.036784 180.864 
L 213.353689 180.864 
L 210.670594 180.864 
L 207.987498 180.864 
L 205.304403 180.864 
L 202.621307 180.864 
L 199.938212 180.864 
L 197.255116 180.864 
L 194.572021 180.864 
L 191.888926 180.864 
L 189.20583 180.864 
L 186.522735 180.864 
L 183.839639 180.864 
L 181.156544 180.864 
L 178.473449 180.864 
L 175.790353 180.864 
L 173.107258 180.864 
L 170.424162 180.864 
L 167.741067 180.864 
L 165.057971 180.864 
L 162.374876 180.864 
L 159.691781 180.864 
L 157.008685 180.864 
L 154.32559 180.864 
L 151.642494 180.864 
L 148.959399 180.864 
L 146.276304 180.864 
L 143.593208 180.864 
L 140.910113 180.864 
L 138.227017 180.864 
L 135.543922 180.864 
L 132.860826 180.864 
L 130.177731 180.864 
L 127.494636 180.864 
L 124.81154 180.864 
L 122.128445 180.864 
L 119.445349 180.864 
L 116.762254 180.864 
L 114.079159 180.864 
L 111.396063 180.864 
L 108.712968 180.864 
L 106.029872 180.864 
L 103.346777 180.864 
L 100.663681 180.864 
L 97.980586 180.864 
L 95.297491 180.864 
L 92.614395 180.864 
L 89.9313 180.864 
L 87.248204 180.864 
L 84.565109 180.864 
L 81.882014 180.864 
L 79.198918 180.864 
L 76.515823 180.864 
L 73.832727 180.864 
z
" style="fill:#ff7f0e;"/>
   </g>
   <g id="PolyCollection_3">
    <path clip-path="url(#p2e7baa0e43)" d="M 73.832727 180.864 
L 73.832727 180.864 
L 76.515823 180.864 
L 79.198918 180.864 
L 81.882014 180.864 
L 84.565109 180.864 
L 87.248204 180.864 
L 89.9313 180.864 
L 92.614395 180.864 
L 95.297491 180.864 
L 97.980586 180.864 
L 100.663681 180.864 
L 103.346777 180.864 
L 106.029872 180.864 
L 108.712968 180.864 
L 111.396063 180.864 
L 114.079159 180.864 
L 116.762254 180.864 
L 119.445349 180.864 
L 122.128445 180.864 
L 124.81154 180.864 
L 127.494636 180.864 
L 130.177731 180.864 
L 132.860826 180.864 
L 135.543922 180.864 
L 138.227017 180.864 
L 140.910113 180.864 
L 143.593208 180.864 
L 146.276304 180.864 
L 148.959399 180.864 
L 151.642494 180.864 
L 154.32559 180.864 
L 157.008685 180.864 
L 159.691781 180.864 
L 162.374876 180.864 
L 165.057971 180.864 
L 167.741067 180.864 
L 170.424162 180.864 
L 173.107258 180.864 
L 175.790353 180.864 
L 178.473449 180.864 
L 181.156544 180.864 
L 183.839639 180.864 
L 186.522735 180.864 
L 189.20583 180.864 
L 191.888926 180.864 
L 194.572021 180.864 
L 197.255116 180.864 
L 199.938212 180.864 
L 202.621307 180.864 
L 205.304403 180.864 
L 207.987498 180.864 
L 210.670594 180.864 
L 213.353689 180.864 
L 216.036784 180.864 
L 218.71988 180.864 
L 221.402975 180.864 
L 224.086071 180.864 
L 226.769166 180.864 
L 229.452261 180.864 
L 232.135357 180.864 
L 234.818452 180.864 
L 237.501548 180.864 
L 240.184643 180.864 
L 242.867739 180.864 
L 245.550834 180.864 
L 248.233929 180.864 
L 250.917025 180.864 
L 253.60012 180.864 
L 256.283216 180.864 
L 258.966311 180.864 
L 261.649406 180.864 
L 264.332502 180.864 
L 267.015597 180.864 
L 269.698693 180.864 
L 272.381788 180.864 
L 275.064884 180.864 
L 277.747979 180.864 
L 280.431074 180.864 
L 283.11417 180.864 
L 285.797265 180.864 
L 288.480361 180.864 
L 291.163456 180.864 
L 293.846551 180.864 
L 296.529647 180.864 
L 299.212742 180.864 
L 301.895838 180.864 
L 304.578933 180.864 
L 307.262029 180.864 
L 309.945124 180.864 
L 312.628219 180.864 
L 315.311315 180.864 
L 317.99441 180.864 
L 320.677506 180.864 
L 323.360601 180.864 
L 326.043696 180.864 
L 328.726792 180.864 
L 331.409887 180.864 
L 334.092983 180.864 
L 336.776078 180.864 
L 339.459174 180.864 
L 342.142269 180.864 
L 344.825364 180.864 
L 347.50846 180.864 
L 350.191555 180.864 
L 352.874651 180.864 
L 355.557746 180.864 
L 358.240841 180.864 
L 360.923937 180.864 
L 363.607032 180.864 
L 366.290128 180.864 
L 368.973223 180.864 
L 371.656319 180.864 
L 374.339414 180.864 
L 377.022509 180.864 
L 379.705605 180.864 
L 382.3887 180.864 
L 385.071796 180.864 
L 387.754891 180.864 
L 390.437986 180.864 
L 393.121082 180.864 
L 395.804177 180.864 
L 398.487273 180.864 
L 398.487273 180.864 
L 398.487273 180.864 
L 395.804177 180.864 
L 393.121082 180.864 
L 390.437986 180.864 
L 387.754891 180.864 
L 385.071796 180.864 
L 382.3887 180.864 
L 379.705605 180.864 
L 377.022509 180.864 
L 374.339414 180.864 
L 371.656319 180.864 
L 368.973223 180.864 
L 366.290128 180.864 
L 363.607032 180.864 
L 360.923937 180.864 
L 358.240841 180.864 
L 355.557746 180.864 
L 352.874651 180.864 
L 350.191555 180.864 
L 347.50846 180.864 
L 344.825364 180.864 
L 342.142269 180.864 
L 339.459174 180.864 
L 336.776078 180.864 
L 334.092983 180.864 
L 331.409887 180.864 
L 328.726792 180.864 
L 326.043696 180.864 
L 323.360601 180.864 
L 320.677506 180.864 
L 317.99441 180.864 
L 315.311315 180.864 
L 312.628219 180.864 
L 309.945124 180.864 
L 307.262029 180.864 
L 304.578933 180.864 
L 301.895838 180.864 
L 299.212742 180.864 
L 296.529647 180.864 
L 293.846551 180.864 
L 291.163456 180.864 
L 288.480361 180.864 
L 285.797265 180.864 
L 283.11417 180.864 
L 280.431074 180.864 
L 277.747979 180.864 
L 275.064884 180.864 
L 272.381788 180.864 
L 269.698693 180.864 
L 267.015597 180.864 
L 264.332502 180.864 
L 261.649406 180.864 
L 258.966311 180.864 
L 256.283216 180.864 
L 253.60012 180.864 
L 250.917025 180.864 
L 248.233929 180.864 
L 245.550834 180.864 
L 242.867739 180.864 
L 240.184643 180.864 
L 237.501548 180.864 
L 234.818452 180.864 
L 232.135357 180.864 
L 229.452261 180.864 
L 226.769166 180.864 
L 224.086071 180.864 
L 221.402975 180.864 
L 218.71988 180.864 
L 216.036784 180.864 
L 213.353689 180.864 
L 210.670594 180.864 
L 207.987498 180.864 
L 205.304403 180.864 
L 202.621307 180.864 
L 199.938212 180.864 
L 197.255116 180.864 
L 194.572021 180.864 
L 191.888926 180.864 
L 189.20583 180.864 
L 186.522735 180.864 
L 183.839639 180.864 
L 181.156544 180.864 
L 178.473449 180.864 
L 175.790353 180.864 
L 173.107258 180.864 
L 170.424162 180.864 
L 167.741067 180.864 
L 165.057971 180.864 
L 162.374876 180.864 
L 159.691781 180.864 
L 157.008685 180.864 
L 154.32559 180.864 
L 151.642494 180.864 
L 148.959399 180.864 
L 146.276304 180.864 
L 143.593208 180.864 
L 140.910113 180.864 
L 138.227017 180.864 
L 135.543922 180.864 
L 132.860826 180.864 
L 130.177731 180.864 
L 127.494636 180.864 
L 124.81154 180.864 
L 122.128445 180.864 
L 119.445349 180.864 
L 116.762254 180.864 
L 114.079159 180.864 
L 111.396063 180.864 
L 108.712968 180.864 
L 106.029872 180.864 
L 103.346777 180.864 
L 100.663681 180.864 
L 97.980586 180.864 
L 95.297491 180.864 
L 92.614395 180.864 
L 89.9313 180.864 
L 87.248204 180.864 
L 84.565109 180.864 
L 81.882014 180.864 
L 79.198918 180.864 
L 76.515823 180.864 
L 73.832727 180.864 
z
" style="fill:#2ca02c;"/>
   </g>
   <g id="PolyCollection_4">
    <path clip-path="url(#p2e7baa0e43)" d="M 73.832727 54.144 
L 73.832727 180.864 
L 76.515823 180.864 
L 79.198918 180.864 
L 81.882014 180.864 
L 84.565109 180.864 
L 87.248204 180.864 
L 89.9313 180.864 
L 92.614395 180.864 
L 95.297491 180.864 
L 97.980586 180.864 
L 100.663681 180.864 
L 103.346777 180.864 
L 106.029872 180.864 
L 108.712968 180.864 
L 111.396063 180.864 
L 114.079159 180.864 
L 116.762254 180.864 
L 119.445349 180.864 
L 122.128445 180.864 
L 124.81154 180.864 
L 127.494636 180.864 
L 130.177731 180.864 
L 132.860826 180.864 
L 135.543922 180.864 
L 138.227017 180.864 
L 140.910113 180.864 
L 143.593208 180.864 
L 146.276304 180.864 
L 148.959399 180.864 
L 151.642494 180.864 
L 154.32559 180.864 
L 157.008685 180.864 
L 159.691781 180.864 
L 162.374876 180.864 
L 165.057971 180.864 
L 167.741067 180.864 
L 170.424162 180.864 
L 173.107258 180.864 
L 175.790353 180.864 
L 178.473449 180.864 
L 181.156544 180.864 
L 183.839639 180.864 
L 186.522735 180.864 
L 189.20583 180.864 
L 191.888926 180.864 
L 194.572021 180.864 
L 197.255116 180.864 
L 199.938212 180.864 
L 202.621307 180.864 
L 205.304403 180.864 
L 207.987498 180.864 
L 210.670594 180.864 
L 213.353689 180.864 
L 216.036784 180.864 
L 218.71988 180.864 
L 221.402975 180.864 
L 224.086071 180.864 
L 226.769166 180.864 
L 229.452261 180.864 
L 232.135357 180.864 
L 234.818452 180.864 
L 237.501548 180.864 
L 240.184643 180.864 
L 242.867739 180.864 
L 245.550834 180.864 
L 248.233929 180.864 
L 250.917025 180.864 
L 253.60012 180.864 
L 256.283216 180.864 
L 258.966311 180.864 
L 261.649406 180.864 
L 264.332502 180.864 
L 267.015597 180.864 
L 269.698693 180.864 
L 272.381788 180.864 
L 275.064884 180.864 
L 277.747979 180.864 
L 280.431074 180.864 
L 283.11417 180.864 
L 285.797265 180.864 
L 288.480361 180.864 
L 291.163456 180.864 
L 293.846551 180.864 
L 296.529647 180.864 
L 299.212742 180.864 
L 301.895838 180.864 
L 304.578933 180.864 
L 307.262029 180.864 
L 309.945124 180.864 
L 312.628219 180.864 
L 315.311315 180.864 
L 317.99441 180.864 
L 320.677506 180.864 
L 323.360601 180.864 
L 326.043696 180.864 
L 328.726792 180.864 
L 331.409887 180.864 
L 334.092983 180.864 
L 336.776078 180.864 
L 339.459174 180.864 
L 342.142269 180.864 
L 344.825364 180.864 
L 347.50846 180.864 
L 350.191555 180.864 
L 352.874651 180.864 
L 355.557746 180.864 
L 358.240841 180.864 
L 360.923937 180.864 
L 363.607032 180.864 
L 366.290128 180.864 
L 368.973223 180.864 
L 371.656319 180.864 
L 374.339414 180.864 
L 377.022509 180.864 
L 379.705605 180.864 
L 382.3887 180.864 
L 385.071796 180.864 
L 387.754891 180.864 
L 390.437986 180.864 
L 393.121082 180.864 
L 395.804177 180.864 
L 398.487273 180.864 
L 398.487273 54.144 
L 398.487273 54.144 
L 395.804177 54.144 
L 393.121082 54.144 
L 390.437986 54.144 
L 387.754891 54.144 
L 385.071796 54.144 
L 382.3887 54.144 
L 379.705605 54.144 
L 377.022509 54.144 
L 374.339414 54.144 
L 371.656319 54.144 
L 368.973223 54.144 
L 366.290128 54.144 
L 363.607032 54.144 
L 360.923937 54.144 
L 358.240841 54.144 
L 355.557746 54.144 
L 352.874651 54.144 
L 350.191555 54.144 
L 347.50846 54.144 
L 344.825364 54.144 
L 342.142269 54.144 
L 339.459174 54.144 
L 336.776078 54.144 
L 334.092983 54.144 
L 331.409887 54.144 
L 328.726792 54.144 
L 326.043696 54.144 
L 323.360601 54.144 
L 320.677506 54.144 
L 317.99441 54.144 
L 315.311315 54.144 
L 312.628219 54.144 
L 309.945124 54.144 
L 307.262029 54.144 
L 304.578933 54.144 
L 301.895838 54.144 
L 299.212742 54.144 
L 296.529647 54.144 
L 293.846551 54.144 
L 291.163456 54.144 
L 288.480361 54.144 
L 285.797265 54.144 
L 283.11417 54.144 
L 280.431074 54.144 
L 277.747979 54.144 
L 275.064884 54.144 
L 272.381788 54.144 
L 269.698693 54.144 
L 267.015597 54.144 
L 264.332502 54.144 
L 261.649406 54.144 
L 258.966311 54.144 
L 256.283216 54.144 
L 253.60012 54.144 
L 250.917025 54.144 
L 248.233929 54.144 
L 245.550834 54.144 
L 242.867739 54.144 
L 240.184643 54.144 
L 237.501548 54.144 
L 234.818452 54.144 
L 232.135357 54.144 
L 229.452261 54.144 
L 226.769166 54.144 
L 224.086071 54.144 
L 221.402975 54.144 
L 218.71988 54.144 
L 216.036784 54.144 
L 213.353689 54.144 
L 210.670594 54.144 
L 207.987498 54.144 
L 205.304403 54.144 
L 202.621307 54.144 
L 199.938212 54.144 
L 197.255116 54.144 
L 194.572021 54.144 
L 191.888926 54.144 
L 189.20583 54.144 
L 186.522735 54.144 
L 183.839639 54.144 
L 181.156544 54.144 
L 178.473449 54.144 
L 175.790353 54.144 
L 173.107258 54.144 
L 170.424162 54.144 
L 167.741067 54.144 
L 165.057971 54.144 
L 162.374876 54.144 
L 159.691781 54.144 
L 157.008685 54.144 
L 154.32559 54.144 
L 151.642494 54.144 
L 148.959399 54.144 
L 146.276304 54.144 
L 143.593208 54.144 
L 140.910113 54.144 
L 138.227017 54.144 
L 135.543922 54.144 
L 132.860826 54.144 
L 130.177731 54.144 
L 127.494636 54.144 
L 124.81154 54.144 
L 122.128445 54.144 
L 119.445349 54.144 
L 116.762254 54.144 
L 114.079159 54.144 
L 111.396063 54.144 
L 108.712968 54.144 
L 106.029872 54.144 
L 103.346777 54.144 
L 100.663681 54.144 
L 97.980586 54.144 
L 95.297491 54.144 
L 92.614395 54.144 
L 89.9313 54.144 
L 87.248204 54.144 
L 84.565109 54.144 
L 81.882014 54.144 
L 79.198918 54.144 
L 76.515823 54.144 
L 73.832727 54.144 
z
" style="fill:#d62728;"/>
   </g>
   <g id="matplotlib.axis_1">
    <g id="xtick_1">
     <g id="line2d_1">
      <defs>
       <path d="M 0 0 
L 0 3.5 
" id="mbb52a206f3" style="stroke:#000000;stroke-width:0.8;"/>
      </defs>
      <g>
       <use style="stroke:#000000;stroke-width:0.8;" x="73.832727" xlink:href="#mbb52a206f3" y="307.584"/>
      </g>
     </g>
     <g id="text_1">
      <!-- 0 -->
      <g transform="translate(70.651477 322.182437)scale(0.1 -0.1)">
       <defs>
        <path d="M 2034 4250 
Q 1547 4250 1301 3770 
Q 1056 3291 1056 2328 
Q 1056 1369 1301 889 
Q 1547 409 2034 409 
Q 2525 409 2770 889 
Q 3016 1369 3016 2328 
Q 3016 3291 2770 3770 
Q 2525 4250 2034 4250 
z
M 2034 4750 
Q 2819 4750 3233 4129 
Q 3647 3509 3647 2328 
Q 3647 1150 3233 529 
Q 2819 -91 2034 -91 
Q 1250 -91 836 529 
Q 422 1150 422 2328 
Q 422 3509 836 4129 
Q 1250 4750 2034 4750 
z
" id="DejaVuSans-30" transform="scale(0.015625)"/>
       </defs>
       <use xlink:href="#DejaVuSans-30"/>
      </g>
     </g>
    </g>
    <g id="xtick_2">
     <g id="line2d_2">
      <g>
       <use style="stroke:#000000;stroke-width:0.8;" x="127.494636" xlink:href="#mbb52a206f3" y="307.584"/>
      </g>
     </g>
     <g id="text_2">
      <!-- 20 -->
      <g transform="translate(121.132136 322.182437)scale(0.1 -0.1)">
       <defs>
        <path d="M 1228 531 
L 3431 531 
L 3431 0 
L 469 0 
L 469 531 
Q 828 903 1448 1529 
Q 2069 2156 2228 2338 
Q 2531 2678 2651 2914 
Q 2772 3150 2772 3378 
Q 2772 3750 2511 3984 
Q 2250 4219 1831 4219 
Q 1534 4219 1204 4116 
Q 875 4013 500 3803 
L 500 4441 
Q 881 4594 1212 4672 
Q 1544 4750 1819 4750 
Q 2544 4750 2975 4387 
Q 3406 4025 3406 3419 
Q 3406 3131 3298 2873 
Q 3191 2616 2906 2266 
Q 2828 2175 2409 1742 
Q 1991 1309 1228 531 
z
" id="DejaVuSans-32" transform="scale(0.015625)"/>
       </defs>
       <use xlink:href="#DejaVuSans-32"/>
       <use x="63.623047" xlink:href="#DejaVuSans-30"/>
      </g>
     </g>
    </g>
    <g id="xtick_3">
     <g id="line2d_3">
      <g>
       <use style="stroke:#000000;stroke-width:0.8;" x="181.156544" xlink:href="#mbb52a206f3" y="307.584"/>
      </g>
     </g>
     <g id="text_3">
      <!-- 40 -->
      <g transform="translate(174.794044 322.182437)scale(0.1 -0.1)">
       <defs>
        <path d="M 2419 4116 
L 825 1625 
L 2419 1625 
L 2419 4116 
z
M 2253 4666 
L 3047 4666 
L 3047 1625 
L 3713 1625 
L 3713 1100 
L 3047 1100 
L 3047 0 
L 2419 0 
L 2419 1100 
L 313 1100 
L 313 1709 
L 2253 4666 
z
" id="DejaVuSans-34" transform="scale(0.015625)"/>
       </defs>
       <use xlink:href="#DejaVuSans-34"/>
       <use x="63.623047" xlink:href="#DejaVuSans-30"/>
      </g>
     </g>
    </g>
    <g id="xtick_4">
     <g id="line2d_4">
      <g>
       <use style="stroke:#000000;stroke-width:0.8;" x="234.818452" xlink:href="#mbb52a206f3" y="307.584"/>
      </g>
     </g>
     <g id="text_4">
      <!-- 60 -->
      <g transform="translate(228.455952 322.182437)scale(0.1 -0.1)">
       <defs>
        <path d="M 2113 2584 
Q 1688 2584 1439 2293 
Q 1191 2003 1191 1497 
Q 1191 994 1439 701 
Q 1688 409 2113 409 
Q 2538 409 2786 701 
Q 3034 994 3034 1497 
Q 3034 2003 2786 2293 
Q 2538 2584 2113 2584 
z
M 3366 4563 
L 3366 3988 
Q 3128 4100 2886 4159 
Q 2644 4219 2406 4219 
Q 1781 4219 1451 3797 
Q 1122 3375 1075 2522 
Q 1259 2794 1537 2939 
Q 1816 3084 2150 3084 
Q 2853 3084 3261 2657 
Q 3669 2231 3669 1497 
Q 3669 778 3244 343 
Q 2819 -91 2113 -91 
Q 1303 -91 875 529 
Q 447 1150 447 2328 
Q 447 3434 972 4092 
Q 1497 4750 2381 4750 
Q 2619 4750 2861 4703 
Q 3103 4656 3366 4563 
z
" id="DejaVuSans-36" transform="scale(0.015625)"/>
       </defs>
       <use xlink:href="#DejaVuSans-36"/>
       <use x="63.623047" xlink:href="#DejaVuSans-30"/>
      </g>
     </g>
    </g>
    <g id="xtick_5">
     <g id="line2d_5">
      <g>
       <use style="stroke:#000000;stroke-width:0.8;" x="288.480361" xlink:href="#mbb52a206f3" y="307.584"/>
      </g>
     </g>
     <g id="text_5">
      <!-- 80 -->
      <g transform="translate(282.117861 322.182437)scale(0.1 -0.1)">
       <defs>
        <path d="M 2034 2216 
Q 1584 2216 1326 1975 
Q 1069 1734 1069 1313 
Q 1069 891 1326 650 
Q 1584 409 2034 409 
Q 2484 409 2743 651 
Q 3003 894 3003 1313 
Q 3003 1734 2745 1975 
Q 2488 2216 2034 2216 
z
M 1403 2484 
Q 997 2584 770 2862 
Q 544 3141 544 3541 
Q 544 4100 942 4425 
Q 1341 4750 2034 4750 
Q 2731 4750 3128 4425 
Q 3525 4100 3525 3541 
Q 3525 3141 3298 2862 
Q 3072 2584 2669 2484 
Q 3125 2378 3379 2068 
Q 3634 1759 3634 1313 
Q 3634 634 3220 271 
Q 2806 -91 2034 -91 
Q 1263 -91 848 271 
Q 434 634 434 1313 
Q 434 1759 690 2068 
Q 947 2378 1403 2484 
z
M 1172 3481 
Q 1172 3119 1398 2916 
Q 1625 2713 2034 2713 
Q 2441 2713 2670 2916 
Q 2900 3119 2900 3481 
Q 2900 3844 2670 4047 
Q 2441 4250 2034 4250 
Q 1625 4250 1398 4047 
Q 1172 3844 1172 3481 
z
" id="DejaVuSans-38" transform="scale(0.015625)"/>
       </defs>
       <use xlink:href="#DejaVuSans-38"/>
       <use x="63.623047" xlink:href="#DejaVuSans-30"/>
      </g>
     </g>
    </g>
    <g id="xtick_6">
     <g id="line2d_6">
      <g>
       <use style="stroke:#000000;stroke-width:0.8;" x="342.142269" xlink:href="#mbb52a206f3" y="307.584"/>
      </g>
     </g>
     <g id="text_6">
      <!-- 100 -->
      <g transform="translate(332.598519 322.182437)scale(0.1 -0.1)">
       <defs>
        <path d="M 794 531 
L 1825 531 
L 1825 4091 
L 703 3866 
L 703 4441 
L 1819 4666 
L 2450 4666 
L 2450 531 
L 3481 531 
L 3481 0 
L 794 0 
L 794 531 
z
" id="DejaVuSans-31" transform="scale(0.015625)"/>
       </defs>
       <use xlink:href="#DejaVuSans-31"/>
       <use x="63.623047" xlink:href="#DejaVuSans-30"/>
       <use x="127.246094" xlink:href="#DejaVuSans-30"/>
      </g>
     </g>
    </g>
    <g id="xtick_7">
     <g id="line2d_7">
      <g>
       <use style="stroke:#000000;stroke-width:0.8;" x="395.804177" xlink:href="#mbb52a206f3" y="307.584"/>
      </g>
     </g>
     <g id="text_7">
      <!-- 120 -->
      <g transform="translate(386.260427 322.182437)scale(0.1 -0.1)">
       <use xlink:href="#DejaVuSans-31"/>
       <use x="63.623047" xlink:href="#DejaVuSans-32"/>
       <use x="127.246094" xlink:href="#DejaVuSans-30"/>
      </g>
     </g>
    </g>
    <g id="text_8">
     <!-- Generations -->
     <g transform="translate(205.662344 335.860562)scale(0.1 -0.1)">
      <defs>
       <path d="M 3809 666 
L 3809 1919 
L 2778 1919 
L 2778 2438 
L 4434 2438 
L 4434 434 
Q 4069 175 3628 42 
Q 3188 -91 2688 -91 
Q 1594 -91 976 548 
Q 359 1188 359 2328 
Q 359 3472 976 4111 
Q 1594 4750 2688 4750 
Q 3144 4750 3555 4637 
Q 3966 4525 4313 4306 
L 4313 3634 
Q 3963 3931 3569 4081 
Q 3175 4231 2741 4231 
Q 1884 4231 1454 3753 
Q 1025 3275 1025 2328 
Q 1025 1384 1454 906 
Q 1884 428 2741 428 
Q 3075 428 3337 486 
Q 3600 544 3809 666 
z
" id="DejaVuSans-47" transform="scale(0.015625)"/>
       <path d="M 3597 1894 
L 3597 1613 
L 953 1613 
Q 991 1019 1311 708 
Q 1631 397 2203 397 
Q 2534 397 2845 478 
Q 3156 559 3463 722 
L 3463 178 
Q 3153 47 2828 -22 
Q 2503 -91 2169 -91 
Q 1331 -91 842 396 
Q 353 884 353 1716 
Q 353 2575 817 3079 
Q 1281 3584 2069 3584 
Q 2775 3584 3186 3129 
Q 3597 2675 3597 1894 
z
M 3022 2063 
Q 3016 2534 2758 2815 
Q 2500 3097 2075 3097 
Q 1594 3097 1305 2825 
Q 1016 2553 972 2059 
L 3022 2063 
z
" id="DejaVuSans-65" transform="scale(0.015625)"/>
       <path d="M 3513 2113 
L 3513 0 
L 2938 0 
L 2938 2094 
Q 2938 2591 2744 2837 
Q 2550 3084 2163 3084 
Q 1697 3084 1428 2787 
Q 1159 2491 1159 1978 
L 1159 0 
L 581 0 
L 581 3500 
L 1159 3500 
L 1159 2956 
Q 1366 3272 1645 3428 
Q 1925 3584 2291 3584 
Q 2894 3584 3203 3211 
Q 3513 2838 3513 2113 
z
" id="DejaVuSans-6e" transform="scale(0.015625)"/>
       <path d="M 2631 2963 
Q 2534 3019 2420 3045 
Q 2306 3072 2169 3072 
Q 1681 3072 1420 2755 
Q 1159 2438 1159 1844 
L 1159 0 
L 581 0 
L 581 3500 
L 1159 3500 
L 1159 2956 
Q 1341 3275 1631 3429 
Q 1922 3584 2338 3584 
Q 2397 3584 2469 3576 
Q 2541 3569 2628 3553 
L 2631 2963 
z
" id="DejaVuSans-72" transform="scale(0.015625)"/>
       <path d="M 2194 1759 
Q 1497 1759 1228 1600 
Q 959 1441 959 1056 
Q 959 750 1161 570 
Q 1363 391 1709 391 
Q 2188 391 2477 730 
Q 2766 1069 2766 1631 
L 2766 1759 
L 2194 1759 
z
M 3341 1997 
L 3341 0 
L 2766 0 
L 2766 531 
Q 2569 213 2275 61 
Q 1981 -91 1556 -91 
Q 1019 -91 701 211 
Q 384 513 384 1019 
Q 384 1609 779 1909 
Q 1175 2209 1959 2209 
L 2766 2209 
L 2766 2266 
Q 2766 2663 2505 2880 
Q 2244 3097 1772 3097 
Q 1472 3097 1187 3025 
Q 903 2953 641 2809 
L 641 3341 
Q 956 3463 1253 3523 
Q 1550 3584 1831 3584 
Q 2591 3584 2966 3190 
Q 3341 2797 3341 1997 
z
" id="DejaVuSans-61" transform="scale(0.015625)"/>
       <path d="M 1172 4494 
L 1172 3500 
L 2356 3500 
L 2356 3053 
L 1172 3053 
L 1172 1153 
Q 1172 725 1289 603 
Q 1406 481 1766 481 
L 2356 481 
L 2356 0 
L 1766 0 
Q 1100 0 847 248 
Q 594 497 594 1153 
L 594 3053 
L 172 3053 
L 172 3500 
L 594 3500 
L 594 4494 
L 1172 4494 
z
" id="DejaVuSans-74" transform="scale(0.015625)"/>
       <path d="M 603 3500 
L 1178 3500 
L 1178 0 
L 603 0 
L 603 3500 
z
M 603 4863 
L 1178 4863 
L 1178 4134 
L 603 4134 
L 603 4863 
z
" id="DejaVuSans-69" transform="scale(0.015625)"/>
       <path d="M 1959 3097 
Q 1497 3097 1228 2736 
Q 959 2375 959 1747 
Q 959 1119 1226 758 
Q 1494 397 1959 397 
Q 2419 397 2687 759 
Q 2956 1122 2956 1747 
Q 2956 2369 2687 2733 
Q 2419 3097 1959 3097 
z
M 1959 3584 
Q 2709 3584 3137 3096 
Q 3566 2609 3566 1747 
Q 3566 888 3137 398 
Q 2709 -91 1959 -91 
Q 1206 -91 779 398 
Q 353 888 353 1747 
Q 353 2609 779 3096 
Q 1206 3584 1959 3584 
z
" id="DejaVuSans-6f" transform="scale(0.015625)"/>
       <path d="M 2834 3397 
L 2834 2853 
Q 2591 2978 2328 3040 
Q 2066 3103 1784 3103 
Q 1356 3103 1142 2972 
Q 928 2841 928 2578 
Q 928 2378 1081 2264 
Q 1234 2150 1697 2047 
L 1894 2003 
Q 2506 1872 2764 1633 
Q 3022 1394 3022 966 
Q 3022 478 2636 193 
Q 2250 -91 1575 -91 
Q 1294 -91 989 -36 
Q 684 19 347 128 
L 347 722 
Q 666 556 975 473 
Q 1284 391 1588 391 
Q 1994 391 2212 530 
Q 2431 669 2431 922 
Q 2431 1156 2273 1281 
Q 2116 1406 1581 1522 
L 1381 1569 
Q 847 1681 609 1914 
Q 372 2147 372 2553 
Q 372 3047 722 3315 
Q 1072 3584 1716 3584 
Q 2034 3584 2315 3537 
Q 2597 3491 2834 3397 
z
" id="DejaVuSans-73" transform="scale(0.015625)"/>
      </defs>
      <use xlink:href="#DejaVuSans-47"/>
      <use x="77.490234" xlink:href="#DejaVuSans-65"/>
      <use x="139.013672" xlink:href="#DejaVuSans-6e"/>
      <use x="202.392578" xlink:href="#DejaVuSans-65"/>
      <use x="263.916016" xlink:href="#DejaVuSans-72"/>
      <use x="305.029297" xlink:href="#DejaVuSans-61"/>
      <use x="366.308594" xlink:href="#DejaVuSans-74"/>
      <use x="405.517578" xlink:href="#DejaVuSans-69"/>
      <use x="433.300781" xlink:href="#DejaVuSans-6f"/>
      <use x="494.482422" xlink:href="#DejaVuSans-6e"/>
      <use x="557.861328" xlink:href="#DejaVuSans-73"/>
     </g>
    </g>
   </g>
   <g id="matplotlib.axis_2">
    <g id="ytick_1">
     <g id="line2d_8">
      <defs>
       <path d="M 0 0 
L -3.5 0 
" id="m95d8238004" style="stroke:#000000;stroke-width:0.8;"/>
      </defs>
      <g>
       <use style="stroke:#000000;stroke-width:0.8;" x="57.6" xlink:href="#m95d8238004" y="307.584"/>
      </g>
     </g>
     <g id="text_9">
      <!-- 0.0 -->
      <g transform="translate(34.696875 311.383219)scale(0.1 -0.1)">
       <defs>
        <path d="M 684 794 
L 1344 794 
L 1344 0 
L 684 0 
L 684 794 
z
" id="DejaVuSans-2e" transform="scale(0.015625)"/>
       </defs>
       <use xlink:href="#DejaVuSans-30"/>
       <use x="63.623047" xlink:href="#DejaVuSans-2e"/>
       <use x="95.410156" xlink:href="#DejaVuSans-30"/>
      </g>
     </g>
    </g>
    <g id="ytick_2">
     <g id="line2d_9">
      <g>
       <use style="stroke:#000000;stroke-width:0.8;" x="57.6" xlink:href="#m95d8238004" y="275.904"/>
      </g>
     </g>
     <g id="text_10">
      <!-- 0.5 -->
      <g transform="translate(34.696875 279.703219)scale(0.1 -0.1)">
       <defs>
        <path d="M 691 4666 
L 3169 4666 
L 3169 4134 
L 1269 4134 
L 1269 2991 
Q 1406 3038 1543 3061 
Q 1681 3084 1819 3084 
Q 2600 3084 3056 2656 
Q 3513 2228 3513 1497 
Q 3513 744 3044 326 
Q 2575 -91 1722 -91 
Q 1428 -91 1123 -41 
Q 819 9 494 109 
L 494 744 
Q 775 591 1075 516 
Q 1375 441 1709 441 
Q 2250 441 2565 725 
Q 2881 1009 2881 1497 
Q 2881 1984 2565 2268 
Q 2250 2553 1709 2553 
Q 1456 2553 1204 2497 
Q 953 2441 691 2322 
L 691 4666 
z
" id="DejaVuSans-35" transform="scale(0.015625)"/>
       </defs>
       <use xlink:href="#DejaVuSans-30"/>
       <use x="63.623047" xlink:href="#DejaVuSans-2e"/>
       <use x="95.410156" xlink:href="#DejaVuSans-35"/>
      </g>
     </g>
    </g>
    <g id="ytick_3">
     <g id="line2d_10">
      <g>
       <use style="stroke:#000000;stroke-width:0.8;" x="57.6" xlink:href="#m95d8238004" y="244.224"/>
      </g>
     </g>
     <g id="text_11">
      <!-- 1.0 -->
      <g transform="translate(34.696875 248.023219)scale(0.1 -0.1)">
       <use xlink:href="#DejaVuSans-31"/>
       <use x="63.623047" xlink:href="#DejaVuSans-2e"/>
       <use x="95.410156" xlink:href="#DejaVuSans-30"/>
      </g>
     </g>
    </g>
    <g id="ytick_4">
     <g id="line2d_11">
      <g>
       <use style="stroke:#000000;stroke-width:0.8;" x="57.6" xlink:href="#m95d8238004" y="212.544"/>
      </g>
     </g>
     <g id="text_12">
      <!-- 1.5 -->
      <g transform="translate(34.696875 216.343219)scale(0.1 -0.1)">
       <use xlink:href="#DejaVuSans-31"/>
       <use x="63.623047" xlink:href="#DejaVuSans-2e"/>
       <use x="95.410156" xlink:href="#DejaVuSans-35"/>
      </g>
     </g>
    </g>
    <g id="ytick_5">
     <g id="line2d_12">
      <g>
       <use style="stroke:#000000;stroke-width:0.8;" x="57.6" xlink:href="#m95d8238004" y="180.864"/>
      </g>
     </g>
     <g id="text_13">
      <!-- 2.0 -->
      <g transform="translate(34.696875 184.663219)scale(0.1 -0.1)">
       <use xlink:href="#DejaVuSans-32"/>
       <use x="63.623047" xlink:href="#DejaVuSans-2e"/>
       <use x="95.410156" xlink:href="#DejaVuSans-30"/>
      </g>
     </g>
    </g>
    <g id="ytick_6">
     <g id="line2d_13">
      <g>
       <use style="stroke:#000000;stroke-width:0.8;" x="57.6" xlink:href="#m95d8238004" y="149.184"/>
      </g>
     </g>
     <g id="text_14">
      <!-- 2.5 -->
      <g transform="translate(34.696875 152.983219)scale(0.1 -0.1)">
       <use xlink:href="#DejaVuSans-32"/>
       <use x="63.623047" xlink:href="#DejaVuSans-2e"/>
       <use x="95.410156" xlink:href="#DejaVuSans-35"/>
      </g>
     </g>
    </g>
    <g id="ytick_7">
     <g id="line2d_14">
      <g>
       <use style="stroke:#000000;stroke-width:0.8;" x="57.6" xlink:href="#m95d8238004" y="117.504"/>
      </g>
     </g>
     <g id="text_15">
      <!-- 3.0 -->
      <g transform="translate(34.696875 121.303219)scale(0.1 -0.1)">
       <defs>
        <path d="M 2597 2516 
Q 3050 2419 3304 2112 
Q 3559 1806 3559 1356 
Q 3559 666 3084 287 
Q 2609 -91 1734 -91 
Q 1441 -91 1130 -33 
Q 819 25 488 141 
L 488 750 
Q 750 597 1062 519 
Q 1375 441 1716 441 
Q 2309 441 2620 675 
Q 2931 909 2931 1356 
Q 2931 1769 2642 2001 
Q 2353 2234 1838 2234 
L 1294 2234 
L 1294 2753 
L 1863 2753 
Q 2328 2753 2575 2939 
Q 2822 3125 2822 3475 
Q 2822 3834 2567 4026 
Q 2313 4219 1838 4219 
Q 1578 4219 1281 4162 
Q 984 4106 628 3988 
L 628 4550 
Q 988 4650 1302 4700 
Q 1616 4750 1894 4750 
Q 2613 4750 3031 4423 
Q 3450 4097 3450 3541 
Q 3450 3153 3228 2886 
Q 3006 2619 2597 2516 
z
" id="DejaVuSans-33" transform="scale(0.015625)"/>
       </defs>
       <use xlink:href="#DejaVuSans-33"/>
       <use x="63.623047" xlink:href="#DejaVuSans-2e"/>
       <use x="95.410156" xlink:href="#DejaVuSans-30"/>
      </g>
     </g>
    </g>
    <g id="ytick_8">
     <g id="line2d_15">
      <g>
       <use style="stroke:#000000;stroke-width:0.8;" x="57.6" xlink:href="#m95d8238004" y="85.824"/>
      </g>
     </g>
     <g id="text_16">
      <!-- 3.5 -->
      <g transform="translate(34.696875 89.623219)scale(0.1 -0.1)">
       <use xlink:href="#DejaVuSans-33"/>
       <use x="63.623047" xlink:href="#DejaVuSans-2e"/>
       <use x="95.410156" xlink:href="#DejaVuSans-35"/>
      </g>
     </g>
    </g>
    <g id="ytick_9">
     <g id="line2d_16">
      <g>
       <use style="stroke:#000000;stroke-width:0.8;" x="57.6" xlink:href="#m95d8238004" y="54.144"/>
      </g>
     </g>
     <g id="text_17">
      <!-- 4.0 -->
      <g transform="translate(34.696875 57.943219)scale(0.1 -0.1)">
       <use xlink:href="#DejaVuSans-34"/>
       <use x="63.623047" xlink:href="#DejaVuSans-2e"/>
       <use x="95.410156" xlink:href="#DejaVuSans-30"/>
      </g>
     </g>
    </g>
    <g id="text_18">
     <!-- Size per Species -->
     <g transform="translate(28.617187 215.520969)rotate(-90)scale(0.1 -0.1)">
      <defs>
       <path d="M 3425 4513 
L 3425 3897 
Q 3066 4069 2747 4153 
Q 2428 4238 2131 4238 
Q 1616 4238 1336 4038 
Q 1056 3838 1056 3469 
Q 1056 3159 1242 3001 
Q 1428 2844 1947 2747 
L 2328 2669 
Q 3034 2534 3370 2195 
Q 3706 1856 3706 1288 
Q 3706 609 3251 259 
Q 2797 -91 1919 -91 
Q 1588 -91 1214 -16 
Q 841 59 441 206 
L 441 856 
Q 825 641 1194 531 
Q 1563 422 1919 422 
Q 2459 422 2753 634 
Q 3047 847 3047 1241 
Q 3047 1584 2836 1778 
Q 2625 1972 2144 2069 
L 1759 2144 
Q 1053 2284 737 2584 
Q 422 2884 422 3419 
Q 422 4038 858 4394 
Q 1294 4750 2059 4750 
Q 2388 4750 2728 4690 
Q 3069 4631 3425 4513 
z
" id="DejaVuSans-53" transform="scale(0.015625)"/>
       <path d="M 353 3500 
L 3084 3500 
L 3084 2975 
L 922 459 
L 3084 459 
L 3084 0 
L 275 0 
L 275 525 
L 2438 3041 
L 353 3041 
L 353 3500 
z
" id="DejaVuSans-7a" transform="scale(0.015625)"/>
       <path id="DejaVuSans-20" transform="scale(0.015625)"/>
       <path d="M 1159 525 
L 1159 -1331 
L 581 -1331 
L 581 3500 
L 1159 3500 
L 1159 2969 
Q 1341 3281 1617 3432 
Q 1894 3584 2278 3584 
Q 2916 3584 3314 3078 
Q 3713 2572 3713 1747 
Q 3713 922 3314 415 
Q 2916 -91 2278 -91 
Q 1894 -91 1617 61 
Q 1341 213 1159 525 
z
M 3116 1747 
Q 3116 2381 2855 2742 
Q 2594 3103 2138 3103 
Q 1681 3103 1420 2742 
Q 1159 2381 1159 1747 
Q 1159 1113 1420 752 
Q 1681 391 2138 391 
Q 2594 391 2855 752 
Q 3116 1113 3116 1747 
z
" id="DejaVuSans-70" transform="scale(0.015625)"/>
       <path d="M 3122 3366 
L 3122 2828 
Q 2878 2963 2633 3030 
Q 2388 3097 2138 3097 
Q 1578 3097 1268 2742 
Q 959 2388 959 1747 
Q 959 1106 1268 751 
Q 1578 397 2138 397 
Q 2388 397 2633 464 
Q 2878 531 3122 666 
L 3122 134 
Q 2881 22 2623 -34 
Q 2366 -91 2075 -91 
Q 1284 -91 818 406 
Q 353 903 353 1747 
Q 353 2603 823 3093 
Q 1294 3584 2113 3584 
Q 2378 3584 2631 3529 
Q 2884 3475 3122 3366 
z
" id="DejaVuSans-63" transform="scale(0.015625)"/>
      </defs>
      <use xlink:href="#DejaVuSans-53"/>
      <use x="63.476562" xlink:href="#DejaVuSans-69"/>
      <use x="91.259766" xlink:href="#DejaVuSans-7a"/>
      <use x="143.75" xlink:href="#DejaVuSans-65"/>
      <use x="205.273438" xlink:href="#DejaVuSans-20"/>
      <use x="237.060547" xlink:href="#DejaVuSans-70"/>
      <use x="300.537109" xlink:href="#DejaVuSans-65"/>
      <use x="362.060547" xlink:href="#DejaVuSans-72"/>
      <use x="403.173828" xlink:href="#DejaVuSans-20"/>
      <use x="434.960938" xlink:href="#DejaVuSans-53"/>
      <use x="498.4375" xlink:href="#DejaVuSans-70"/>
      <use x="561.914062" xlink:href="#DejaVuSans-65"/>
      <use x="623.4375" xlink:href="#DejaVuSans-63"/>
      <use x="678.417969" xlink:href="#DejaVuSans-69"/>
      <use x="706.201172" xlink:href="#DejaVuSans-65"/>
      <use x="767.724609" xlink:href="#DejaVuSans-73"/>
     </g>
    </g>
   </g>
   <g id="patch_3">
    <path d="M 57.6 307.584 
L 57.6 41.472 
" style="fill:none;stroke:#000000;stroke-linecap:square;stroke-linejoin:miter;stroke-width:0.8;"/>
   </g>
   <g id="patch_4">
    <path d="M 414.72 307.584 
L 414.72 41.472 
" style="fill:none;stroke:#000000;stroke-linecap:square;stroke-linejoin:miter;stroke-width:0.8;"/>
   </g>
   <g id="patch_5">
    <path d="M 57.6 307.584 
L 414.72 307.584 
" style="fill:none;stroke:#000000;stroke-linecap:square;stroke-linejoin:miter;stroke-width:0.8;"/>
   </g>
   <g id="patch_6">
    <path d="M 57.6 41.472 
L 414.72 41.472 
" style="fill:none;stroke:#000000;stroke-linecap:square;stroke-linejoin:miter;stroke-width:0.8;"/>
   </g>
   <g id="text_19">
    <!-- Speciation -->
    <g transform="translate(204.714375 35.472)scale(0.12 -0.12)">
     <use xlink:href="#DejaVuSans-53"/>
     <use x="63.476562" xlink:href="#DejaVuSans-70"/>
     <use x="126.953125" xlink:href="#DejaVuSans-65"/>
     <use x="188.476562" xlink:href="#DejaVuSans-63"/>
     <use x="243.457031" xlink:href="#DejaVuSans-69"/>
     <use x="271.240234" xlink:href="#DejaVuSans-61"/>
     <use x="332.519531" xlink:href="#DejaVuSans-74"/>
     <use x="371.728516" xlink:href="#DejaVuSans-69"/>
     <use x="399.511719" xlink:href="#DejaVuSans-6f"/>
     <use x="460.693359" xlink:href="#DejaVuSans-6e"/>
    </g>
   </g>
  </g>
 </g>
 <defs>
  <clipPath id="p2e7baa0e43">
   <rect height="266.112" width="357.12" x="57.6" y="41.472"/>
  </clipPath>
 </defs>
</svg>
